<svg width="97" height="100" viewBox="0 0 97 100" fill="none" xmlns="http://www.w3.org/2000/svg">
<path d="M53.8307 35.9376H50.5646L35.5948 64.0626H42.9436L57.9134 35.9376H53.8307Z" fill="#F1F1F1"/>
<path d="M65.2622 35.9376L50.0203 64.0626H53.8307H59.2743H65.2622L79.6876 50.0001L65.2622 35.9376Z" fill="#F1F1F1"/>
<path d="M21.1694 35.9375V47.1875V52.8125V64.0625H28.246L43.488 35.9375H21.1694Z" fill="#F1F1F1"/>
<path d="M66.623 33.4062L66.3509 33.1249H59.5464H59.2742H53.8307H52.1976H44.8488H18.4476V47.1874V52.8124V66.8749H26.8851H34.2339H41.5827H48.9315H53.8307H59.2742H66.3509L83.7702 49.9999L66.623 33.4062ZM59.2742 64.0624H53.8307H50.0202L65.2621 35.9374L79.9597 49.9999L65.2621 64.0624H59.2742ZM21.1694 52.8124V47.1874V35.9374H43.488L28.246 64.0624H21.1694V52.8124ZM50.5646 35.9374H53.8307H57.9134L42.9436 64.0624H35.5948L50.5646 35.9374Z" fill="#55555F"/>
</svg>
