<svg width="98" height="100" viewBox="0 0 98 100" fill="none" xmlns="http://www.w3.org/2000/svg">
<path d="M65.9871 35.9374H59.9326H58.5566L43.4205 64.0624H54.4286H59.9326H65.9871L80.5727 49.9999L65.9871 35.9374Z" fill="#F1F1F1"/>
<path d="M21.4044 35.9374V47.1874V52.8124V64.0624H35.9901L51.1262 35.9374H21.4044Z" fill="#F1F1F1"/>
<path d="M67.088 33.1249H60.2079H59.9327H54.4287H52.7775H18.6525V47.1874V52.8124V66.8749H34.339H41.7694H54.4287H59.9327H67.088L84.7009 49.9999L67.088 33.1249ZM59.9327 64.0624H54.4287H43.4206L58.8319 35.9374H59.9327H65.9872L80.848 49.9999L65.9872 64.0624H59.9327ZM21.4045 52.8124V47.1874V35.9374H51.1263L35.715 64.0624H21.4045V52.8124Z" fill="#55555F"/>
</svg>
