<svg width="100" height="58" viewBox="0 0 100 58" fill="none" xmlns="http://www.w3.org/2000/svg">
<path d="M5.55615 2H98.8261L93.3913 55.4211H1L5.55615 2Z" fill="#184A9B"/>
<path fill-rule="evenodd" clip-rule="evenodd" d="M62.2655 32.4916C61.7469 32.4916 61.2283 32.4916 60.7022 32.4916C60.3836 32.4916 60.2132 32.4015 60.3021 32.0546C60.554 31.0905 60.7096 30.1126 60.7319 29.1207C60.7319 28.8502 60.88 28.7392 61.1542 28.7462C62.2655 28.7462 63.3695 28.7462 64.4808 28.7462C64.792 28.7462 64.9106 28.8918 64.9032 29.1693C64.8661 30.1958 64.6661 31.1946 64.3475 32.1795C64.266 32.4223 64.0734 32.4916 63.8289 32.4916C63.3102 32.4916 62.7916 32.4916 62.2655 32.4916Z" fill="#FFCC00"/>
<path fill-rule="evenodd" clip-rule="evenodd" d="M40.7201 28.7392C41.2387 28.7392 41.7573 28.753 42.276 28.7392C42.6464 28.7322 42.802 28.8571 42.8094 29.2177C42.8168 30.1472 42.965 31.0627 43.2095 31.9575C43.3132 32.339 43.2095 32.4985 42.7798 32.4985C41.7722 32.4846 40.7719 32.4916 39.7643 32.4985C39.4457 32.4985 39.2457 32.3945 39.1568 32.0893C38.8752 31.1806 38.7048 30.2582 38.6307 29.3149C38.6011 28.9056 38.7419 28.7114 39.2086 28.7322C39.7124 28.76 40.2163 28.7322 40.7127 28.7322L40.7201 28.7392Z" fill="#FFCC00"/>
<path fill-rule="evenodd" clip-rule="evenodd" d="M40.7274 28.3647C40.1866 28.3647 39.6531 28.3578 39.1197 28.3647C38.7566 28.3716 38.6232 28.219 38.6381 27.8931C38.6825 26.9012 38.8752 25.9302 39.1789 24.9799C39.2604 24.7233 39.4308 24.6123 39.7124 24.6123C40.7719 24.6123 41.824 24.6123 42.8835 24.6123C43.2095 24.6123 43.3132 24.7441 43.2391 25.0423C42.9946 26.0064 42.8316 26.9844 42.8168 27.9763C42.8168 28.2815 42.6315 28.3647 42.35 28.3647C41.8165 28.3647 41.2757 28.3647 40.7422 28.3647H40.7274Z" fill="#FFCC00"/>
<path fill-rule="evenodd" clip-rule="evenodd" d="M62.8213 28.3647C62.2804 28.3647 61.7469 28.3647 61.2061 28.3647C60.8875 28.3647 60.7393 28.2468 60.7319 27.9347C60.7171 26.9775 60.5615 26.0273 60.317 25.0978C60.2281 24.7649 60.317 24.6123 60.7097 24.6123C61.7469 24.6192 62.7916 24.6123 63.8289 24.6123C64.1104 24.6123 64.2882 24.7163 64.3697 24.973C64.6661 25.9093 64.8513 26.8665 64.9106 27.8376C64.9402 28.2537 64.7402 28.3855 64.3253 28.3647C63.8215 28.3439 63.3177 28.3647 62.8213 28.3647Z" fill="#FFCC00"/>
<path fill-rule="evenodd" clip-rule="evenodd" d="M59.9242 36.6462C59.4574 36.6462 58.9906 36.6462 58.5164 36.6462C58.1904 36.6462 58.0422 36.5768 58.2793 36.2578C58.9832 35.3075 59.5389 34.281 59.9464 33.1851C60.0353 32.9493 60.1835 32.8522 60.4428 32.8522C61.5023 32.8522 62.5618 32.8522 63.6139 32.8522C63.9621 32.8522 64.051 32.984 63.9176 33.2753C63.4138 34.4058 62.7544 35.4463 61.9098 36.3896C61.7394 36.5838 61.5319 36.6531 61.2726 36.6462C60.8206 36.6393 60.3687 36.6462 59.9167 36.6462H59.9242Z" fill="#FFCC00"/>
<path fill-rule="evenodd" clip-rule="evenodd" d="M41.5054 32.8453C42.0092 32.8453 42.513 32.8592 43.0168 32.8453C43.3502 32.8315 43.5207 32.9633 43.6244 33.2546C44.0097 34.3227 44.5579 35.3146 45.247 36.244C45.5063 36.5908 45.3433 36.6532 44.9951 36.6532C44.0912 36.6532 43.1872 36.6463 42.2908 36.6532C41.987 36.6532 41.7647 36.5561 41.5721 36.3342C40.7793 35.4186 40.1421 34.4198 39.6457 33.3378C39.4753 32.9702 39.5864 32.8315 40.0014 32.8453C40.5052 32.8592 41.009 32.8453 41.5128 32.8453H41.5054Z" fill="#FFCC00"/>
<path fill-rule="evenodd" clip-rule="evenodd" d="M41.4756 24.2585C40.9348 24.2585 40.4013 24.2585 39.8605 24.2585C39.5715 24.2585 39.4752 24.1406 39.5863 23.8909C40.105 22.7118 40.7866 21.6228 41.6831 20.6518C41.8239 20.5061 42.0017 20.4645 42.2017 20.4645C43.1353 20.4645 44.0762 20.4645 45.0098 20.4645C45.4395 20.4645 45.4321 20.6032 45.2246 20.8876C44.543 21.817 43.9947 22.8089 43.6094 23.877C43.5131 24.1475 43.3501 24.2654 43.0389 24.2585C42.5203 24.2446 41.9943 24.2585 41.4756 24.2585Z" fill="#FFCC00"/>
<path fill-rule="evenodd" clip-rule="evenodd" d="M62.0209 24.2308C61.4133 24.2308 60.7317 24.3972 60.2205 24.1892C59.687 23.9672 59.7092 23.2181 59.4351 22.7187C59.0795 22.0806 58.7238 21.4494 58.2941 20.8668C58.0718 20.5616 58.1756 20.4714 58.5238 20.4714C59.4573 20.4714 60.3983 20.4714 61.3318 20.4714C61.5986 20.4714 61.7912 20.5755 61.9542 20.7627C62.7692 21.6852 63.4064 22.6979 63.9102 23.8007C64.0658 24.1337 63.9843 24.2863 63.5768 24.2724C63.0581 24.2585 62.5321 24.2724 62.0135 24.2724V24.2377L62.0209 24.2308Z" fill="#FFCC00"/>
<path fill-rule="evenodd" clip-rule="evenodd" d="M58.3757 28.7392C58.8795 28.7392 59.3833 28.7461 59.8871 28.7392C60.2354 28.7322 60.4058 28.8571 60.3835 29.1969C60.3168 30.168 60.1983 31.139 59.9316 32.0823C59.8501 32.3667 59.6871 32.4916 59.3833 32.4916C58.4127 32.4916 57.4421 32.4916 56.4641 32.4916C56.1159 32.4916 55.9974 32.3459 56.0492 32.0407C56.2196 31.0766 56.316 30.1056 56.353 29.1345C56.3678 28.8363 56.5308 28.7392 56.8124 28.7392C57.331 28.7392 57.857 28.7392 58.3757 28.7392Z" fill="#FFCC00"/>
<path fill-rule="evenodd" clip-rule="evenodd" d="M45.1579 28.7461C45.6765 28.7461 46.2026 28.7461 46.7212 28.7461C47.0546 28.7461 47.1805 28.8779 47.188 29.1831C47.225 30.1264 47.3065 31.0628 47.4843 31.9922C47.551 32.3459 47.4325 32.5055 47.025 32.4985C46.0914 32.4847 45.1505 32.4847 44.2169 32.4985C43.8613 32.4985 43.6909 32.3667 43.602 32.0407C43.3501 31.1113 43.2315 30.1611 43.1648 29.2039C43.1426 28.864 43.3056 28.7392 43.6612 28.7461C44.1651 28.76 44.6689 28.7461 45.1727 28.7461H45.1579Z" fill="#FFCC00"/>
<path fill-rule="evenodd" clip-rule="evenodd" d="M58.3088 28.3716C57.8198 28.3716 57.3383 28.3647 56.8493 28.3716C56.5084 28.3785 56.3529 28.2537 56.338 27.9138C56.3084 26.9913 56.2269 26.0688 56.0491 25.1533C55.9824 24.7926 56.0713 24.5984 56.5159 24.6123C57.4346 24.6331 58.3533 24.6261 59.272 24.6123C59.6425 24.6123 59.8425 24.7302 59.9314 25.0839C60.1833 26.0203 60.3019 26.9636 60.3686 27.9208C60.3908 28.2259 60.25 28.3716 59.9166 28.3647C59.3757 28.3577 58.8423 28.3647 58.3014 28.3647L58.3088 28.3716Z" fill="#FFCC00"/>
<path fill-rule="evenodd" clip-rule="evenodd" d="M45.1356 28.3717C44.6318 28.3717 44.128 28.3717 43.6242 28.3717C43.2982 28.3717 43.1352 28.2538 43.1574 27.9347C43.2241 26.9428 43.3352 25.9579 43.6242 25.0007C43.7057 24.7372 43.8613 24.6193 44.1428 24.6193C45.1134 24.6193 46.0914 24.6193 47.062 24.6193C47.4028 24.6193 47.5362 24.7857 47.4843 25.084C47.3213 26.0481 47.225 27.0191 47.1879 27.9971C47.1805 28.2746 47.0249 28.3647 46.7582 28.3647C46.2173 28.3647 45.6839 28.3647 45.143 28.3647L45.1356 28.3717Z" fill="#FFCC00"/>
<path fill-rule="evenodd" clip-rule="evenodd" d="M51.9668 30.5841C51.9668 30.1263 51.9742 29.6755 51.9668 29.2177C51.9668 28.8986 52.0779 28.7322 52.4484 28.7391C53.456 28.746 54.4636 28.746 55.4713 28.7391C55.8269 28.7391 55.9677 28.8848 55.9677 29.2108C55.9677 30.1541 55.8491 31.0904 55.7009 32.0268C55.6491 32.3528 55.4787 32.5054 55.1082 32.4984C54.2414 32.4846 53.3745 32.4915 52.5002 32.4984C52.1298 32.4984 51.9594 32.3597 51.9668 32.006C51.9816 31.5343 51.9668 31.0627 51.9668 30.591V30.5841Z" fill="#FFCC00"/>
<path fill-rule="evenodd" clip-rule="evenodd" d="M51.5668 30.6535C51.5668 31.1252 51.5668 31.5968 51.5668 32.0685C51.5668 32.3529 51.4261 32.4916 51.1297 32.4916C50.1888 32.4916 49.2552 32.4916 48.3143 32.4916C48.0401 32.4916 47.9142 32.3459 47.8697 32.1101C47.6919 31.1321 47.5734 30.1472 47.5808 29.1553C47.5808 28.864 47.7364 28.7531 48.0327 28.7531C49.0552 28.7531 50.085 28.7531 51.1075 28.7531C51.4409 28.7531 51.5743 28.8987 51.5668 29.197C51.5594 29.6825 51.5668 30.1749 51.5668 30.6605V30.6535Z" fill="#FFCC00"/>
<path fill-rule="evenodd" clip-rule="evenodd" d="M51.5668 26.5267C51.5668 26.9844 51.5594 27.4353 51.5668 27.8931C51.5668 28.2121 51.4483 28.3716 51.0853 28.3716C50.0776 28.3647 49.07 28.3647 48.0624 28.3716C47.6993 28.3716 47.5734 28.2191 47.5734 27.8931C47.5734 26.9498 47.6919 26.0134 47.8401 25.077C47.892 24.7441 48.0772 24.6054 48.4328 24.6123C49.2997 24.6262 50.1665 24.6192 51.0408 24.6123C51.4113 24.6123 51.5817 24.758 51.5668 25.1117C51.552 25.5834 51.5668 26.055 51.5668 26.5267Z" fill="#FFCC00"/>
<path fill-rule="evenodd" clip-rule="evenodd" d="M53.9376 28.3717C53.4486 28.3717 52.967 28.3647 52.478 28.3717C52.1372 28.3786 51.9594 28.2607 51.9668 27.9208C51.9742 26.9775 51.9742 26.0342 51.9668 25.0909C51.9668 24.758 52.1224 24.6193 52.4632 24.6193C53.3671 24.6193 54.271 24.6193 55.1749 24.6193C55.4639 24.6193 55.6194 24.7372 55.6713 25.0077C55.8491 25.9857 55.9677 26.9706 55.9528 27.9624C55.9528 28.2538 55.7898 28.3647 55.4935 28.3647C54.9749 28.3647 54.4488 28.3647 53.9302 28.3647L53.9376 28.3717Z" fill="#FFCC00"/>
<path fill-rule="evenodd" clip-rule="evenodd" d="M57.6495 24.2655C57.1753 24.2308 56.4863 24.4735 56.0269 24.1753C55.5675 23.8701 55.6713 23.1626 55.4786 22.6494C55.2638 22.0667 55.0711 21.4772 54.8489 20.8945C54.7303 20.5893 54.8266 20.4714 55.1675 20.4714C55.8417 20.4714 56.5233 20.4784 57.1975 20.4714C57.4717 20.4714 57.6495 20.5963 57.7977 20.7905C58.5163 21.7199 59.0868 22.7187 59.5166 23.7938C59.6499 24.1337 59.5758 24.2793 59.1757 24.2724C58.709 24.2585 58.2348 24.2724 57.6495 24.2724V24.2655Z" fill="#FFCC00"/>
<path fill-rule="evenodd" clip-rule="evenodd" d="M56.1751 36.6393C55.8121 36.6393 55.449 36.6393 55.086 36.6393C54.8267 36.6393 54.7378 36.5144 54.8267 36.2925C55.249 35.259 55.5824 34.2047 55.8417 33.1296C55.8936 32.9146 56.0492 32.8522 56.264 32.8522C57.2717 32.8522 58.2719 32.8522 59.2795 32.8522C59.5759 32.8522 59.6426 32.9909 59.5536 33.2267C59.1091 34.3781 58.509 35.4463 57.7162 36.4242C57.5754 36.5976 57.3902 36.6462 57.1679 36.6462C56.8419 36.6462 56.5085 36.6462 56.1825 36.6462L56.1751 36.6393Z" fill="#FFCC00"/>
<path fill-rule="evenodd" clip-rule="evenodd" d="M45.7434 24.2585C45.2618 24.2585 44.7728 24.2585 44.2912 24.2585C43.9727 24.2585 43.8912 24.1267 43.9949 23.8562C44.432 22.7187 45.0396 21.6713 45.8027 20.7003C45.9361 20.5269 46.1139 20.4645 46.3436 20.4645C47.0178 20.4645 47.692 20.4645 48.3662 20.4645C48.6922 20.4645 48.8108 20.5685 48.6848 20.8806C48.2773 21.8656 47.9587 22.8713 47.7142 23.9048C47.6475 24.1891 47.4697 24.2654 47.1956 24.2654C46.714 24.2654 46.225 24.2654 45.7434 24.2654V24.2585Z" fill="#FFCC00"/>
<path fill-rule="evenodd" clip-rule="evenodd" d="M47.1807 36.6393C46.2027 36.9375 45.6174 36.3272 45.1358 35.4879C44.7357 34.7874 44.3356 34.0868 44.0318 33.3447C43.8911 32.9979 43.9429 32.8314 44.38 32.8383C45.3136 32.8522 46.2471 32.8453 47.1881 32.8383C47.4919 32.8383 47.6623 32.9354 47.7289 33.2337C47.966 34.2464 48.292 35.2382 48.6847 36.2093C48.8033 36.5075 48.7218 36.6393 48.3809 36.6324C48.0327 36.6324 47.6919 36.6324 47.1807 36.6324V36.6393Z" fill="#FFCC00"/>
<path fill-rule="evenodd" clip-rule="evenodd" d="M51.9669 34.7458C51.9669 34.2603 51.9669 33.7678 51.9669 33.2823C51.9669 32.9771 52.1076 32.8453 52.4336 32.8453C53.3227 32.8523 54.2044 32.8453 55.0935 32.8453C55.3973 32.8453 55.4936 32.9702 55.4343 33.2407C55.1898 34.3088 54.8416 35.3423 54.397 36.355C54.3155 36.5423 54.1674 36.6324 53.9525 36.6324C53.4339 36.6324 52.9078 36.6324 52.3892 36.6324C52.078 36.6324 51.9595 36.4798 51.9669 36.2024C51.9669 35.7169 51.9669 35.2244 51.9669 34.7389V34.7458Z" fill="#FFCC00"/>
<path fill-rule="evenodd" clip-rule="evenodd" d="M51.5742 34.8012C51.5742 35.2105 51.552 35.6127 51.5742 36.022C51.6038 36.4797 51.4334 36.6948 50.9222 36.6531C50.6629 36.6323 50.4036 36.6531 50.1443 36.6531C49.5268 36.6531 49.1119 36.3757 48.8995 35.8208C48.6032 35.0371 48.3364 34.2463 48.1364 33.4418C48.0104 32.9216 48.0549 32.8661 48.5958 32.8591C49.4108 32.8591 50.2258 32.8661 51.0482 32.8591C51.4334 32.8591 51.5816 33.0048 51.5668 33.3516C51.552 33.8371 51.5668 34.3296 51.5668 34.8151L51.5742 34.8012Z" fill="#FFCC00"/>
<path fill-rule="evenodd" clip-rule="evenodd" d="M51.5668 22.358C51.5668 22.8436 51.5668 23.3291 51.5668 23.8146C51.5668 24.1129 51.4483 24.2655 51.1075 24.2585C50.2258 24.2516 49.3441 24.2585 48.4624 24.2585C48.1364 24.2585 48.0327 24.1406 48.0994 23.8424C48.3439 22.795 48.6921 21.7754 49.1144 20.7836C49.2033 20.5824 49.3441 20.4714 49.5812 20.4714C50.0998 20.4714 50.6185 20.4714 51.1371 20.4714C51.4483 20.4714 51.5668 20.624 51.5594 20.9015C51.5594 21.387 51.5594 21.8725 51.5594 22.358H51.5668Z" fill="#FFCC00"/>
<path fill-rule="evenodd" clip-rule="evenodd" d="M51.9668 22.3233C51.9668 21.8517 51.9668 21.38 51.9668 20.9084C51.9668 20.6032 52.115 20.4645 52.441 20.4714C54.6712 20.5199 54.1599 20.0968 54.8786 21.9834C55.1009 22.5661 55.2416 23.1695 55.4195 23.766C55.5232 24.1128 55.4269 24.2862 55.0046 24.2723C54.1747 24.2515 53.3375 24.2515 52.5003 24.2723C52.078 24.2793 51.952 24.1059 51.9668 23.7452C51.9817 23.2736 51.9668 22.8019 51.9668 22.3302V22.3233Z" fill="#FFCC00"/>
<path fill-rule="evenodd" clip-rule="evenodd" d="M50.596 16.2749C49.7588 16.8575 48.8919 17.3569 48.1066 17.9603C47.3805 18.5221 46.7137 19.1256 46.1061 19.7983C45.8838 20.0411 45.6542 20.166 45.3059 20.159C44.4761 20.1451 43.6389 20.159 42.8091 20.1521C42.6461 20.1521 42.409 20.2353 42.3423 20.055C42.2904 19.8955 42.5127 19.7914 42.6313 19.6804C44.5058 17.995 46.7211 16.9199 49.2698 16.4552C49.6995 16.3789 50.144 16.3304 50.5812 16.2749H50.596Z" fill="#FFCC00"/>
<path fill-rule="evenodd" clip-rule="evenodd" d="M52.9078 40.8357C52.9745 40.6207 53.1449 40.5999 53.2708 40.5305C54.8564 39.6635 56.2641 38.5954 57.4421 37.2775C57.62 37.0833 57.8052 36.9515 58.0941 36.9515C59.0129 36.9654 59.9316 36.9515 60.8503 36.9515C60.9614 36.9515 61.117 36.9099 61.1763 37.0417C61.2208 37.1458 61.1096 37.2151 61.0355 37.2775C58.7758 39.3584 56.0715 40.5167 52.9004 40.8288L52.9078 40.8357Z" fill="#FFCC00"/>
<path fill-rule="evenodd" clip-rule="evenodd" d="M50.6554 40.8288C48.529 40.6624 46.6174 40.0451 44.8541 39.0393C44.0095 38.5538 43.2315 37.9851 42.5351 37.3261C42.4536 37.2498 42.3128 37.1735 42.3572 37.0556C42.4091 36.9238 42.5647 36.9655 42.6758 36.9655C43.6094 36.9655 44.5503 36.9655 45.4839 36.9655C45.6839 36.9655 45.8543 37.021 45.9877 37.1735C47.262 38.6162 48.7957 39.7676 50.5368 40.6832C50.5739 40.704 50.5961 40.7525 50.6628 40.8358L50.6554 40.8288Z" fill="#FFCC00"/>
<path fill-rule="evenodd" clip-rule="evenodd" d="M52.8781 16.386C56.0565 16.5732 58.7238 17.7107 60.9613 19.736C61.0576 19.8262 61.2281 19.9094 61.191 20.0412C61.1317 20.2215 60.9243 20.1452 60.7835 20.1452C59.9167 20.1452 59.0498 20.1452 58.1829 20.1452C57.931 20.1452 57.7162 20.1106 57.5383 19.9094C56.2714 18.4806 54.76 17.3292 53.0262 16.4345C52.9818 16.4137 52.9299 16.3998 52.8781 16.379V16.386Z" fill="#FFCC00"/>
<path fill-rule="evenodd" clip-rule="evenodd" d="M62.3913 7.22363C61.6208 10.4003 60.1538 13.3203 58.057 15.9213C58.8424 12.7516 60.2871 9.81766 62.3913 7.22363Z" fill="#FFCC00"/>
<path fill-rule="evenodd" clip-rule="evenodd" d="M41.1423 7.22363C43.2391 9.81766 44.6913 12.7516 45.4766 15.9213C43.3799 13.3203 41.9129 10.4003 41.1423 7.22363Z" fill="#FFCC00"/>
<path fill-rule="evenodd" clip-rule="evenodd" d="M58.0422 41.1547C60.139 43.7765 61.6208 46.6966 62.3914 49.8663C61.1837 48.8814 58.309 43.1453 58.0422 41.1547Z" fill="#FFCC00"/>
<path fill-rule="evenodd" clip-rule="evenodd" d="M41.1792 49.9565C41.9201 46.7035 43.3797 43.7765 45.5579 41.1616C45.0097 42.6945 44.5948 44.2898 43.8687 45.7533C43.1352 47.2237 42.0905 48.5624 41.1866 49.9635L41.1792 49.9565Z" fill="#FFCC00"/>
<path fill-rule="evenodd" clip-rule="evenodd" d="M70.971 13.4658C68.852 16.0737 66.17 18.0851 63.1396 19.618C65.2809 17.0864 67.874 14.9709 70.971 13.4658Z" fill="#FFCC00"/>
<path fill-rule="evenodd" clip-rule="evenodd" d="M31.14 42.0702C33.5109 39.7189 36.2819 37.8392 39.5048 36.5907C37.1562 39.0044 34.3037 40.787 31.14 42.0702Z" fill="#FFCC00"/>
<path fill-rule="evenodd" clip-rule="evenodd" d="M32.5626 13.4589C35.6596 14.9778 38.2528 17.0863 40.4014 19.611C37.3563 18.0851 34.689 16.0598 32.5626 13.4589Z" fill="#FFCC00"/>
<path fill-rule="evenodd" clip-rule="evenodd" d="M72.4676 42.0426C69.2299 40.7871 66.3848 39.0046 64.0583 36.5145C65.5624 37.2844 67.1479 37.9434 68.5408 38.8589C69.9485 39.7883 71.171 40.9675 72.4676 42.0426Z" fill="#FFCC00"/>
<path fill-rule="evenodd" clip-rule="evenodd" d="M66.2218 47.8688C63.6361 45.6215 61.6431 42.9442 60.2798 39.9409C61.7912 40.8981 65.4587 45.7741 66.2218 47.8688Z" fill="#FFCC00"/>
<path fill-rule="evenodd" clip-rule="evenodd" d="M37.3414 47.8411C38.6973 44.8309 40.7051 42.1674 43.2464 39.9479C41.8906 42.9373 39.905 45.6216 37.3414 47.8411Z" fill="#FFCC00"/>
<path fill-rule="evenodd" clip-rule="evenodd" d="M35.6372 46.544C37.2672 43.6517 39.4973 41.1964 42.2164 39.2126C41.6311 40.8218 37.3783 45.5799 35.6372 46.544Z" fill="#FFCC00"/>
<path fill-rule="evenodd" clip-rule="evenodd" d="M32.5847 43.7211C34.6889 41.0438 37.3487 39.0254 40.5717 37.4023C39.2751 38.6786 38.1786 39.9548 36.8671 40.9952C35.5557 42.0287 34.0221 42.8263 32.5847 43.728V43.7211Z" fill="#FFCC00"/>
<path fill-rule="evenodd" clip-rule="evenodd" d="M38.7416 35.495C36.2299 37.7631 33.2663 39.3168 29.9323 40.2947C31.3029 39.3445 32.6069 38.2764 34.0739 37.4787C35.5483 36.6811 37.1857 36.147 38.749 35.495H38.7416Z" fill="#FFCC00"/>
<path fill-rule="evenodd" clip-rule="evenodd" d="M27.428 22.4413C30.0656 22.4344 34.9037 23.6482 37.4598 24.9383C35.5187 25.1048 29.6581 23.6621 27.428 22.4413Z" fill="#FFCC00"/>
<path fill-rule="evenodd" clip-rule="evenodd" d="M29.9844 16.7812C33.2666 17.78 36.2228 19.3406 38.7937 21.5393C35.4745 20.5613 32.5553 18.9314 29.9844 16.7812Z" fill="#FFCC00"/>
<path fill-rule="evenodd" clip-rule="evenodd" d="M73.5643 40.3363C70.2821 39.3098 67.3111 37.7769 64.7401 35.5643C68.0742 36.5423 70.9785 38.1862 73.5643 40.3363Z" fill="#FFCC00"/>
<path fill-rule="evenodd" clip-rule="evenodd" d="M64.7327 21.5394C67.3184 19.3338 70.282 17.7732 73.5569 16.7744C70.9859 18.9107 68.0741 20.5476 64.7327 21.5394Z" fill="#FFCC00"/>
<path fill-rule="evenodd" clip-rule="evenodd" d="M37.4153 32.1449C34.3332 33.6223 31.0065 34.4685 27.5168 34.628C30.6212 33.1159 33.9627 32.3322 37.4153 32.1449Z" fill="#FFCC00"/>
<path fill-rule="evenodd" clip-rule="evenodd" d="M61.2726 39.1294C63.6435 40.8357 67.1406 44.7545 67.9037 46.544C65.1179 44.5534 62.9544 42.0495 61.2726 39.1294Z" fill="#FFCC00"/>
<path fill-rule="evenodd" clip-rule="evenodd" d="M71.06 43.61C67.8963 42.1326 65.2957 40.038 63.1471 37.4161C64.5919 38.3109 66.1255 39.1016 67.4518 40.1351C68.7706 41.1685 69.8671 42.4448 71.0674 43.61H71.06Z" fill="#FFCC00"/>
<path fill-rule="evenodd" clip-rule="evenodd" d="M37.2526 9.2489C39.8309 11.4545 41.8388 14.0486 43.1354 17.1281C42.0092 15.9282 40.757 14.8046 39.7791 13.5006C38.7936 12.1759 38.0824 10.6708 37.2526 9.2489Z" fill="#FFCC00"/>
<path fill-rule="evenodd" clip-rule="evenodd" d="M66.2069 9.24194C64.8436 12.2105 62.9173 14.86 60.3538 17.0726C61.68 14.0555 63.6952 11.4614 66.2069 9.24194Z" fill="#FFCC00"/>
<path fill-rule="evenodd" clip-rule="evenodd" d="M75.3794 36.5909C71.8823 36.1401 68.6964 35.0372 65.7847 33.331C67.3406 33.2269 73.4234 35.28 75.3794 36.5909Z" fill="#FFCC00"/>
<path fill-rule="evenodd" clip-rule="evenodd" d="M31.1549 15.0404C34.3186 16.3027 37.1488 18.113 39.5197 20.5198C36.2968 19.2644 33.511 17.3847 31.1549 15.0404Z" fill="#FFCC00"/>
<path fill-rule="evenodd" clip-rule="evenodd" d="M65.7626 23.7799C68.6891 22.0737 71.875 20.95 75.3351 20.5131C72.3937 22.2679 69.1781 23.3222 65.7626 23.7799Z" fill="#FFCC00"/>
<path fill-rule="evenodd" clip-rule="evenodd" d="M37.8231 23.7245C34.8299 23.4609 30.2733 21.9072 28.2284 20.4437C29.888 20.8252 31.5995 21.0818 33.1999 21.6229C34.8002 22.1708 36.282 23.0101 37.8231 23.7245Z" fill="#FFCC00"/>
<path fill-rule="evenodd" clip-rule="evenodd" d="M28.2135 36.5769C31.1401 34.8221 34.3556 33.7817 37.7786 33.3101C34.8446 35.0302 31.6513 36.14 28.2135 36.5769Z" fill="#FFCC00"/>
<path fill-rule="evenodd" clip-rule="evenodd" d="M34.0073 12.037C36.9339 13.7155 39.29 15.8934 41.0607 18.6469C39.7568 17.6689 38.349 16.7812 37.171 15.6783C35.993 14.5755 35.052 13.2577 34.0073 12.037Z" fill="#FFCC00"/>
<path fill-rule="evenodd" clip-rule="evenodd" d="M69.4079 11.9192C67.6224 14.6589 65.2885 16.8645 62.4583 18.5707C62.5175 18.3002 64.7328 15.4842 65.5034 14.8739C66.7777 13.8543 68.104 12.9041 69.4154 11.9261L69.4079 11.9192Z" fill="#FFCC00"/>
<path fill-rule="evenodd" clip-rule="evenodd" d="M46.6841 15.4773C45.3505 13.889 43.2315 8.44433 43.187 6.4884C44.4391 7.86865 46.5507 13.2925 46.6841 15.4773Z" fill="#FFCC00"/>
<path fill-rule="evenodd" clip-rule="evenodd" d="M60.3464 6.4884C60.3019 8.44433 58.1681 13.9237 56.8419 15.4773C56.9827 13.2856 59.1017 7.85478 60.3464 6.4884Z" fill="#FFCC00"/>
<path fill-rule="evenodd" clip-rule="evenodd" d="M64.0658 20.589C66.3848 18.1129 69.2077 16.3096 72.5714 14.964C71.1785 16.1154 69.9782 17.2875 68.5927 18.2031C67.185 19.1325 65.5846 19.8053 64.0732 20.589H64.0658Z" fill="#FFCC00"/>
<path fill-rule="evenodd" clip-rule="evenodd" d="M35.6298 10.5529C38.423 12.5504 40.579 15.0543 42.2238 17.898C40.7568 17.2044 36.4077 12.377 35.6298 10.5529Z" fill="#FFCC00"/>
<path fill-rule="evenodd" clip-rule="evenodd" d="M37.1708 26.1313C33.6663 26.2493 30.2211 25.6944 26.9537 24.4389C29.0653 24.1615 35.3334 25.2019 37.1708 26.1313Z" fill="#FFCC00"/>
<path fill-rule="evenodd" clip-rule="evenodd" d="M37.1044 30.9656C33.8592 32.2072 30.4436 32.7413 26.9984 32.6372C30.1917 31.4165 33.5999 30.8477 37.1044 30.9656Z" fill="#FFCC00"/>
<path fill-rule="evenodd" clip-rule="evenodd" d="M37.0081 27.3451C34.2222 27.7543 28.984 27.3243 26.6354 26.492C28.7247 26.0203 34.8742 26.5267 37.0081 27.3451Z" fill="#FFCC00"/>
<path fill-rule="evenodd" clip-rule="evenodd" d="M59.2648 40.7039C61.6134 43.1037 63.2657 45.8851 64.34 48.93C62.9248 47.8965 59.576 42.4864 59.2648 40.7039Z" fill="#FFCC00"/>
<path fill-rule="evenodd" clip-rule="evenodd" d="M46.6101 41.6125C46.1656 44.8447 45.069 47.855 43.113 50.5947C43.5205 49.0411 43.7873 47.4388 44.3652 45.9406C44.9505 44.4425 45.847 43.0483 46.6101 41.6125Z" fill="#FFCC00"/>
<path fill-rule="evenodd" clip-rule="evenodd" d="M39.1714 48.9579C39.7048 46.8424 42.6314 42.0843 44.2762 40.6763C43.2241 43.8044 41.483 46.5303 39.1714 48.9579Z" fill="#FFCC00"/>
<path fill-rule="evenodd" clip-rule="evenodd" d="M41.1571 38.4913C39.29 41.2103 36.9265 43.3882 34.1111 45.1014C34.3926 43.9777 39.3715 39.2751 41.1571 38.4913Z" fill="#FFCC00"/>
<path fill-rule="evenodd" clip-rule="evenodd" d="M69.4966 45.143C66.6293 43.3951 64.2658 41.2241 62.3914 38.4913C65.3179 40.2392 67.6296 42.4518 69.4966 45.143Z" fill="#FFCC00"/>
<path fill-rule="evenodd" clip-rule="evenodd" d="M67.9038 10.5529C66.2664 13.459 64.0289 15.8935 61.3246 17.898C61.8358 16.3721 66.096 11.6002 67.9038 10.5529Z" fill="#FFCC00"/>
<path fill-rule="evenodd" clip-rule="evenodd" d="M65.1624 22.684C67.6444 20.9292 72.4677 18.8415 74.5793 18.5848C71.786 20.5685 68.652 21.9211 65.1624 22.684Z" fill="#FFCC00"/>
<path fill-rule="evenodd" clip-rule="evenodd" d="M38.3268 22.6771C34.9112 21.9141 31.7624 20.5893 28.9988 18.6056C30.6658 18.668 36.556 21.2274 38.3268 22.6771Z" fill="#FFCC00"/>
<path fill-rule="evenodd" clip-rule="evenodd" d="M56.7902 41.6404C58.6721 44.387 59.8723 47.3695 60.2798 50.6364C59.776 49.6931 59.287 48.729 58.7536 47.7996C58.2053 46.8493 57.8274 45.8505 57.5903 44.7893C57.3532 43.735 57.0643 42.6877 56.7976 41.6334L56.7902 41.6404Z" fill="#FFCC00"/>
<path fill-rule="evenodd" clip-rule="evenodd" d="M53.9673 5.05261C54.36 8.30556 54.1081 11.5446 53.0708 14.6311C52.6263 11.4198 52.9597 8.18765 53.9673 5.05261Z" fill="#FFCC00"/>
<path fill-rule="evenodd" clip-rule="evenodd" d="M50.4701 14.6378C49.4254 11.5583 49.1809 8.31229 49.5662 5.06628C50.5887 8.19438 50.9073 11.4335 50.4701 14.6378Z" fill="#FFCC00"/>
<path fill-rule="evenodd" clip-rule="evenodd" d="M58.2721 51.2536C56.6569 48.3474 55.8197 45.2193 55.6196 41.994C57.1829 44.8725 58.0943 47.9798 58.2721 51.2536Z" fill="#FFCC00"/>
<path fill-rule="evenodd" clip-rule="evenodd" d="M53.9823 52.0929C53.1525 50.2965 52.6709 45.2609 53.0562 42.3824C53.9082 44.1928 54.4565 49.9705 53.9823 52.0929Z" fill="#FFCC00"/>
<path fill-rule="evenodd" clip-rule="evenodd" d="M58.2054 5.80176C58.3461 7.98657 56.7161 13.6255 55.5159 15.2485C55.8641 13.4521 55.9085 11.6973 56.4494 10.0396C56.9236 8.59693 57.6126 7.20975 58.2054 5.80176Z" fill="#FFCC00"/>
<path fill-rule="evenodd" clip-rule="evenodd" d="M47.9216 15.1166C46.3657 12.2313 45.4396 9.12402 45.2692 5.86414C46.8843 8.76335 47.7142 11.8845 47.9216 15.1166Z" fill="#FFCC00"/>
<path fill-rule="evenodd" clip-rule="evenodd" d="M51.7668 14.5618C51.0555 11.406 51.0259 8.30562 51.7668 5.14978C52.5077 8.30562 52.4781 11.406 51.7668 14.5618Z" fill="#FFCC00"/>
<path fill-rule="evenodd" clip-rule="evenodd" d="M51.7669 52.0374C51.063 48.8746 51.0185 45.7742 51.7669 42.6183C52.5078 45.7673 52.4781 48.8746 51.7669 52.0374Z" fill="#FFCC00"/>
<path fill-rule="evenodd" clip-rule="evenodd" d="M47.9735 41.9594C47.6549 43.6726 47.6253 45.4343 47.0696 47.092C46.588 48.5209 45.9138 49.8942 45.2988 51.2814C45.4396 47.9798 46.3583 44.8794 47.9735 41.9594Z" fill="#FFCC00"/>
<path fill-rule="evenodd" clip-rule="evenodd" d="M49.1959 42.2159C49.2626 45.3996 48.7958 48.5555 47.4251 51.5865C47.2547 48.3058 47.9364 45.1915 49.1959 42.2159Z" fill="#FFCC00"/>
<path fill-rule="evenodd" clip-rule="evenodd" d="M56.1087 51.5935C54.738 48.5555 54.2786 45.4065 54.3379 42.2159C55.59 45.1776 56.2717 48.2919 56.1087 51.5935Z" fill="#FFCC00"/>
<path fill-rule="evenodd" clip-rule="evenodd" d="M49.5662 52.072C49.181 48.8051 49.4181 45.566 50.4701 42.4725C50.974 44.1025 50.4183 50.2617 49.5662 52.072Z" fill="#FFCC00"/>
<path fill-rule="evenodd" clip-rule="evenodd" d="M47.5141 5.52429C47.9586 6.91147 48.492 8.28479 48.818 9.69278C49.2107 11.4059 49.0625 13.1815 49.2922 14.9918C48.292 13.6185 47.1066 7.44554 47.5215 5.52429H47.5141Z" fill="#FFCC00"/>
<path fill-rule="evenodd" clip-rule="evenodd" d="M54.3376 14.8878C54.2783 11.7042 54.7303 8.55526 56.1084 5.51733C56.2788 8.80496 55.5897 11.9192 54.3376 14.8878Z" fill="#FFCC00"/>
<path fill-rule="evenodd" clip-rule="evenodd" d="M26.6205 30.6051C28.9692 29.7866 33.6887 29.3913 36.9191 29.8282C35.2224 30.1473 33.5405 30.5912 31.8216 30.7507C30.1027 30.9103 28.3616 30.7854 26.6279 30.7854C26.6279 30.723 26.6279 30.6606 26.6279 30.5981L26.6205 30.6051Z" fill="#FFCC00"/>
<path fill-rule="evenodd" clip-rule="evenodd" d="M64.214 8.40959C63.2212 11.4267 61.4875 14.0416 59.1907 16.372C59.8501 14.9502 60.3909 13.4589 61.2059 12.1272C62.0283 10.7886 63.1249 9.60257 64.1029 8.34717C64.1399 8.36798 64.177 8.38878 64.214 8.40959Z" fill="#FFCC00"/>
<path fill-rule="evenodd" clip-rule="evenodd" d="M39.2157 8.40259C41.6088 10.6776 43.224 13.3826 44.2094 16.4482C43.224 15.1998 42.12 14.0207 41.2976 12.689C40.4604 11.3365 39.8973 9.83832 39.2231 8.40259H39.2157Z" fill="#FFCC00"/>
<path fill-rule="evenodd" clip-rule="evenodd" d="M74.6164 38.4567C72.1566 38.1446 66.7924 35.8002 65.3995 34.413C67.0073 34.9262 68.6743 35.3147 70.208 35.9874C71.7491 36.6672 73.1494 37.6244 74.6164 38.4567Z" fill="#FFCC00"/>
<path fill-rule="evenodd" clip-rule="evenodd" d="M28.9692 38.5052C31.718 36.5839 34.7705 35.1967 38.1861 34.4823C35.4151 36.4799 32.3181 37.763 28.9692 38.5052Z" fill="#FFCC00"/>
<path fill-rule="evenodd" clip-rule="evenodd" d="M36.7413 28.552C33.3701 29.2456 30.0509 29.2109 26.6946 28.552C30.0509 27.8861 33.3627 27.8584 36.7413 28.552Z" fill="#FFCC00"/>
<path fill-rule="evenodd" clip-rule="evenodd" d="M52.515 40.4125C53.2485 39.3929 53.8857 38.3178 54.4191 37.2011C54.508 37.0139 54.6785 36.9584 54.8859 36.9584C55.5083 36.9584 56.1306 36.9584 56.753 36.9584C57.0197 36.9584 57.1975 37.0416 56.953 37.2913C55.7009 38.5883 54.2932 39.6912 52.5965 40.4541C52.5891 40.4541 52.5669 40.4403 52.515 40.4195V40.4125Z" fill="#FFCC00"/>
<path fill-rule="evenodd" clip-rule="evenodd" d="M50.9741 40.4403C49.2626 39.6842 47.8327 38.6092 46.5879 37.3052C46.3657 37.0694 46.462 36.9584 46.7658 36.9584C47.4029 36.9584 48.0475 36.9584 48.6847 36.9584C48.8996 36.9584 49.0478 37.0485 49.1293 37.2289C49.6553 38.3386 50.2851 39.3999 50.9741 40.4403Z" fill="#FFCC00"/>
<path fill-rule="evenodd" clip-rule="evenodd" d="M52.567 16.6703C53.7006 17.1489 54.7082 17.8008 55.627 18.5707C56.0789 18.9522 56.4938 19.3684 56.9161 19.7776C56.9976 19.8539 57.1088 19.9371 57.0421 20.0689C56.9828 20.1729 56.8643 20.1521 56.7605 20.1521C56.1382 20.1521 55.5084 20.1521 54.8861 20.1521C54.649 20.1521 54.4934 20.0619 54.3971 19.8608C53.8784 18.758 53.2486 17.7107 52.567 16.6703Z" fill="#FFCC00"/>
<path fill-rule="evenodd" clip-rule="evenodd" d="M51.011 16.6703C50.7591 17.0518 50.5072 17.4124 50.2775 17.787C50.0256 18.1962 49.7144 18.5846 49.5736 19.0285C49.2625 20.0203 48.5882 20.3394 47.5584 20.1591C47.5065 20.1521 47.4547 20.1591 47.4028 20.1591C47.0916 20.1105 46.6248 20.3255 46.4989 20.0273C46.3877 19.7637 46.8397 19.5487 47.0546 19.3337C48.0548 18.3349 49.218 17.5165 50.4924 16.8437C50.6331 16.7674 50.7665 16.6425 51.011 16.6772V16.6703Z" fill="#FFCC00"/>
<path fill-rule="evenodd" clip-rule="evenodd" d="M51.5595 16.8229C51.5595 17.8216 51.5595 18.8273 51.5595 19.8261C51.5595 20.0481 51.4113 20.1452 51.189 20.1452C50.7222 20.1452 50.2555 20.1452 49.7813 20.1452C49.5664 20.1452 49.4331 20.0758 49.5442 19.8469C50.0628 18.7649 50.6556 17.7315 51.4187 16.7812C51.4706 16.7951 51.515 16.809 51.5669 16.8159L51.5595 16.8229Z" fill="#FFCC00"/>
<path fill-rule="evenodd" clip-rule="evenodd" d="M51.9742 40.2739C51.9742 39.289 51.9742 38.3041 51.9742 37.3122C51.9742 37.1041 52.0779 36.9723 52.315 36.9654C52.7966 36.9585 53.2856 36.9585 53.7672 36.9654C53.9524 36.9654 54.0932 37.0278 53.9969 37.229C53.4857 38.3249 52.8781 39.3722 52.1076 40.3225C52.0631 40.3086 52.0113 40.2947 51.9668 40.2739H51.9742Z" fill="#FFCC00"/>
<path fill-rule="evenodd" clip-rule="evenodd" d="M52.1299 16.7952C52.8856 17.7454 53.4857 18.7788 53.997 19.8608C54.0859 20.0481 53.997 20.1452 53.7969 20.1452C53.2931 20.1452 52.7893 20.1452 52.2855 20.1383C52.1076 20.1383 51.9817 20.0412 51.9817 19.8678C51.9817 18.8551 51.9817 17.8356 51.9817 16.8229C52.0336 16.816 52.078 16.8021 52.1299 16.7952Z" fill="#FFCC00"/>
<path fill-rule="evenodd" clip-rule="evenodd" d="M51.5742 40.3294C51.2408 40.2184 51.1667 40.0034 51.0482 39.8369C50.4925 39.0531 50.0109 38.2278 49.5886 37.3677C49.4478 37.0833 49.4923 36.9307 49.8627 36.9515C49.8998 36.9515 49.9294 36.9515 49.9665 36.9515C51.878 36.9793 51.5372 36.6949 51.5742 38.422C51.589 39.0462 51.5742 39.6705 51.5742 40.3294Z" fill="#FFCC00"/>
</svg>
