<svg width="100" height="58" viewBox="0 0 100 58" fill="none" xmlns="http://www.w3.org/2000/svg">
<path d="M9.64967 2.90002L5 55.1H90.3503L95 2.90002H9.64967Z" fill="#184A9B"/>
<path d="M39.7134 22.4064C39.9044 22.6125 39.9044 22.8185 39.777 23.0246C39.777 23.0933 39.7771 23.162 39.8407 23.2307C39.9681 23.2993 39.9044 23.368 39.8407 23.5054C39.7771 23.5741 39.777 23.6428 39.7134 23.7114L39.777 23.7801C39.777 23.8488 39.7771 23.8488 39.8407 23.9175C39.9044 24.1235 39.9681 24.1235 40.1592 23.9175L40.2229 23.8488C40.2229 23.9175 40.2229 23.9175 40.2229 23.9862C40.2229 24.1235 40.1592 24.2609 40.1592 24.3983C40.0955 24.5357 40.2229 24.673 40.3503 24.673H40.414C40.5414 24.673 40.6688 24.6043 40.7962 24.673C40.9236 24.7417 40.8598 24.8791 40.9235 25.0164C40.9872 25.0851 40.9872 25.1538 41.0509 25.2225C41.1783 25.2912 41.1783 25.4285 41.1146 25.5659C40.9872 25.978 40.9235 26.0467 40.5414 25.978H40.4777C40.414 25.978 40.3503 25.978 40.3503 26.0467C40.3503 26.2528 40.2866 26.4588 40.414 26.6649C40.4777 26.7335 40.414 26.8709 40.3503 26.9396C40.2866 27.0083 40.1592 27.077 40.0955 27.1457C40.0318 27.2143 39.9681 27.2143 39.9044 27.283C39.9044 27.283 39.8407 27.3517 39.8407 27.4204C39.8407 27.4891 39.9044 27.5578 39.9044 27.5578C40.2229 27.6264 40.4777 27.6951 40.7324 27.9012L40.7962 27.9699C40.7325 27.9699 40.7325 28.0385 40.6688 28.0385C40.414 27.9699 40.2229 28.1072 40.0955 28.3133C39.9044 28.588 39.7134 28.7254 39.5223 29.0001V29.0688C39.5223 29.0688 39.5223 29.1375 39.586 29.1375C39.6497 29.1375 39.7133 29.1375 39.777 29.1375C39.9044 29.0688 40.0318 29.0001 40.2229 29.0001C40.4777 29.0688 40.6688 29.0001 40.7962 28.7941C40.8599 28.7254 40.9872 28.7254 41.0509 28.7254C41.3057 28.7254 41.5605 28.7254 41.8153 28.6567C42.1337 28.588 42.3885 28.5193 42.707 28.5193C42.9618 28.5193 43.2165 28.382 43.4713 28.1072C43.535 28.0385 43.535 27.9699 43.4713 27.9012C43.4076 27.9012 43.4076 27.8325 43.3439 27.8325C43.2802 27.7638 43.2802 27.6951 43.2802 27.6264C43.4076 27.4891 43.535 27.3517 43.5987 27.1457C43.7898 26.8022 43.6624 26.3901 43.2802 26.3901C43.1528 26.3901 43.0255 26.3901 42.8981 26.3901C42.8981 26.3214 42.8981 26.2528 42.8981 26.1841C42.7707 25.978 42.707 25.7033 42.6433 25.4285C42.5796 25.2912 42.5159 25.0851 42.3885 25.0164C42.1337 24.8791 42.07 24.673 42.0063 24.3983C41.9426 23.9862 41.7516 23.7114 41.4331 23.5741C41.3694 23.5741 41.3694 23.5054 41.3694 23.4367C41.4331 23.2993 41.4331 23.162 41.5605 23.0933C41.6879 22.8872 41.8152 22.6125 41.8789 22.3378C41.9426 22.2004 41.8152 22.063 41.6879 22.063C41.6242 22.063 41.6242 22.063 41.5605 22.063C41.3694 22.063 41.242 22.063 41.0509 22.063C40.9872 22.063 40.9872 21.9943 40.9872 21.9943V21.9257C41.1146 21.7883 41.1783 21.6509 41.3057 21.5822C41.3057 21.5135 41.3057 21.5135 41.3694 21.4449C41.3694 21.3762 41.3057 21.3075 41.242 21.3075C41.0509 21.3075 40.8598 21.3075 40.6688 21.3762C40.5414 21.3762 40.4777 21.4449 40.414 21.5822C40.2866 21.7883 40.1592 22.063 40.0318 22.2691C39.9681 22.3378 39.9681 22.3378 39.9044 22.3378C39.6497 22.1317 39.586 22.2004 39.7134 22.4064Z" fill="#FFCC00"/>
<path d="M37.8662 27.5577C37.9936 27.489 38.121 27.4203 38.3121 27.3517C38.5669 27.2143 38.7579 27.0769 39.0127 27.0769C39.1401 27.0769 39.2038 27.0082 39.2675 26.8709C39.4586 26.5961 39.586 26.2527 39.5223 25.9093C39.5223 25.8406 39.5223 25.7719 39.5223 25.7032C39.5223 25.5659 39.586 25.4972 39.6497 25.4285C39.7134 25.3598 39.7134 25.3598 39.7771 25.2911C39.9681 25.0851 39.9682 24.9477 39.9045 24.7417C39.8408 24.673 39.8408 24.5356 39.7771 24.4669C39.7134 24.3982 39.6497 24.3295 39.586 24.3295C39.3949 24.2609 39.2038 24.2609 39.0127 24.2609C38.949 24.2609 38.8854 24.2609 38.8854 24.2609C38.6943 24.2609 38.5669 24.3982 38.4395 24.6043C38.3758 24.7417 38.3121 24.879 38.2484 24.9477C38.2484 25.0164 38.1847 25.0164 38.121 25.0164C37.9936 25.0164 37.8025 25.0164 37.6752 25.0164C37.6115 25.0164 37.5478 25.0851 37.4841 25.1538C37.4841 25.2911 37.4841 25.4972 37.4204 25.6345C37.3567 25.7719 37.4204 25.9093 37.4841 25.978C37.6115 26.1153 37.5478 26.2527 37.4841 26.3901C37.4204 26.5274 37.293 26.6648 37.2293 26.8022C37.2293 26.8709 37.1656 26.8709 37.1019 26.9395C36.9745 27.0769 36.9745 27.3517 37.1656 27.489C37.4204 27.6264 37.6115 27.6264 37.8662 27.5577Z" fill="#FFCC00"/>
<path d="M47.293 36.9675C47.293 36.8988 47.3567 36.7615 47.3567 36.6928C47.3567 36.418 47.1656 36.0059 46.8472 36.2807C46.5924 36.4867 46.5924 36.3494 46.465 36.418C46.4013 36.4867 46.465 36.5554 46.465 36.6241C46.5287 36.9675 46.465 37.2422 46.4013 37.5857C46.3376 38.0665 46.5287 38.2038 46.9745 37.9978C47.1019 37.9291 47.1656 37.9291 47.1656 37.7917C47.2293 37.6544 47.2293 37.3796 47.2293 37.3796C47.2293 37.3109 47.293 37.0362 47.293 36.9675Z" fill="#FFCC00"/>
<path d="M61.6879 40.5391C61.4968 40.5391 61.3057 40.6077 61.1147 40.6077C60.9236 40.6077 60.7962 40.7451 60.6051 40.8138C60.5414 40.8825 60.4777 41.0199 60.5414 41.0885C60.6051 41.2259 60.7962 41.2946 60.9236 41.2259C61.0509 41.1572 61.242 41.0885 61.3694 41.0199C61.5605 41.0199 61.6242 40.8138 61.6879 40.5391C61.6879 40.6077 61.6879 40.5391 61.6879 40.5391Z" fill="#FFCC00"/>
<path d="M47.2293 35.9372C47.293 35.8685 47.3567 35.7998 47.3567 35.7311C47.4204 35.5938 47.4841 35.4564 47.4841 35.319C47.4841 35.1817 47.4841 35.1817 47.4841 35.113C47.4841 35.113 47.4841 34.9069 47.4841 34.8382C47.4841 34.7009 47.4204 34.9069 47.3567 34.9069C47.293 34.9069 47.1656 34.9069 47.0382 34.9069C46.9109 34.9756 46.8472 35.113 46.8472 35.2503C46.8472 35.4564 46.8471 35.6624 46.9745 35.8685C46.9745 36.0059 47.1656 36.0059 47.2293 35.9372Z" fill="#FFCC00"/>
<path d="M43.2165 37.7916C43.1528 37.7916 43.0892 37.7916 43.0255 37.7916C42.9618 37.8603 42.898 37.929 42.8344 38.0664C42.8344 38.135 42.8344 38.2037 42.8981 38.2037C42.9618 38.2037 42.9618 38.2037 43.0255 38.2037C43.0892 38.2037 43.1528 38.1351 43.2165 38.1351C43.2802 38.1351 43.2802 38.0664 43.2802 38.0664C43.3439 37.9977 43.3439 37.9977 43.2802 37.929C43.2802 37.7916 43.2802 37.7916 43.2165 37.7916Z" fill="#FFCC00"/>
<path d="M56.2102 40.6077C56.0191 40.6077 55.7643 40.6077 55.5732 40.5391C55.5095 40.5391 55.4459 40.5391 55.4459 40.6077C55.3822 40.6077 55.3822 40.6764 55.3822 40.7451C55.3822 40.8138 55.3822 40.8825 55.4459 40.8825C55.7007 40.9512 55.8917 41.0198 56.1465 41.0885H56.2102C56.4013 41.0885 56.5924 41.0198 56.7834 41.0198L56.8471 40.9512C56.8471 40.8825 56.8471 40.8825 56.7834 40.8138C56.5924 40.6764 56.4013 40.6077 56.2102 40.6077Z" fill="#FFCC00"/>
<path d="M39.9044 21.5135C39.9044 21.4448 39.9044 21.3761 39.8407 21.3761H39.777C39.6496 21.4448 39.5223 21.5135 39.5223 21.6508C39.5223 21.7195 39.5223 21.8569 39.4586 21.9256C39.5223 21.9256 39.5223 21.9256 39.586 21.8569C39.777 21.7882 39.8407 21.6508 39.9044 21.5135Z" fill="#FFCC00"/>
<path d="M52.7069 22.6124C52.7706 22.6811 52.8344 22.6124 52.8981 22.5437C53.0891 22.3377 53.0891 22.0629 53.0891 21.7882C52.9617 21.7882 52.8344 21.7882 52.7707 21.9256C52.6433 22.0629 52.5796 22.2003 52.5796 22.3377C52.5796 22.4064 52.5796 22.4751 52.5796 22.4751C52.707 22.5437 52.7069 22.5437 52.7069 22.6124Z" fill="#FFCC00"/>
<path d="M53.6624 19.3843H53.7261C53.7898 19.3156 53.7898 19.2469 53.7898 19.1783C53.7898 19.1096 53.7261 19.0409 53.6624 19.0409C53.5987 19.0409 53.5987 19.0409 53.5987 19.0409C53.535 19.1096 53.535 19.1783 53.535 19.2469C53.535 19.3156 53.5987 19.3843 53.6624 19.3843Z" fill="#FFCC00"/>
<path d="M50.8598 24.3982C50.8598 24.3982 50.9235 24.3982 50.8598 24.3982C50.9235 24.3295 50.8598 24.2609 50.8598 24.2609C50.7961 24.1922 50.7961 24.1922 50.7324 24.2609C50.7324 24.3295 50.7324 24.3295 50.7324 24.3982C50.7961 24.3982 50.8598 24.3982 50.8598 24.3982Z" fill="#FFCC00"/>
<path d="M55.0638 20.7579C55.1275 20.8266 55.1911 20.7579 55.2548 20.6892V20.6206C55.2548 20.5519 55.1275 20.5519 55.0638 20.5519C55.0001 20.5519 55 20.6206 55 20.6892C55 20.6892 55.0001 20.6892 55.0638 20.7579Z" fill="#FFCC00"/>
<path d="M62.707 14.8511C62.1975 14.3703 61.6879 13.8895 61.1147 13.4087C58.5669 11.4856 55.3822 10.318 51.879 10.2493C51.8153 10.2493 51.7516 10.2493 51.6879 10.2493C51.4331 10.2493 51.1147 10.2493 50.8599 10.2493C50.8599 10.2493 50.8599 10.2493 50.7962 10.2493C41.4331 10.7301 33.2165 19.0408 32.3248 29.2748C31.879 34.4261 33.344 39.1653 36.2102 42.5995C39.0764 46.1024 43.344 48.3003 48.3121 48.3003C52.707 48.3003 56.9108 46.5145 60.2866 43.6298C61.051 42.943 61.7516 42.2561 62.4522 41.5006C65.3185 38.2037 67.2293 33.9453 67.6751 29.2748C68.1847 23.5053 66.2102 18.2853 62.707 14.8511ZM63.344 20.6206V20.5519C63.344 20.4832 63.344 20.3458 63.4077 20.3458C63.4713 20.3458 63.5987 20.6206 63.7261 20.758C63.7898 20.8266 63.7261 20.964 63.6624 20.964C63.5351 21.0327 63.4077 20.964 63.344 20.8953C63.2803 20.758 63.2803 20.6893 63.344 20.6206ZM61.4331 16.9116C61.5605 16.9116 61.6242 16.843 61.6879 16.7743C61.7516 16.7056 61.7516 16.7056 61.8153 16.6369V16.7056C61.879 16.9803 62.0064 17.2551 62.1338 17.4611C62.1975 17.5298 62.1974 17.6672 62.1974 17.7358C62.1338 17.8045 62.1338 17.8732 62.0701 17.9419C62.0701 18.0106 62.0063 18.0106 61.9427 18.0106C61.879 18.0106 61.879 18.0106 61.879 17.9419C61.879 17.7358 61.8153 17.5298 61.6242 17.4611C61.4331 17.3924 61.3694 17.2551 61.3694 17.049C61.3057 17.049 61.3695 16.9803 61.4331 16.9116ZM59.4586 17.5298H59.5223C59.586 17.5298 59.586 17.5985 59.6497 17.5985C59.7771 17.7358 59.9044 17.8732 60.0955 18.0106C60.1592 18.0106 60.1592 18.0793 60.2229 18.0793C60.5414 18.4227 60.414 18.7661 60.0318 19.0408C60.0318 19.0408 59.9681 19.0408 59.9681 19.1095C59.8408 19.1782 59.7771 19.1782 59.7134 19.1095C59.5223 18.8348 59.3949 18.4914 59.2038 18.2166C59.2038 18.148 59.2038 18.0793 59.2038 18.0793C59.2038 17.8045 59.2675 17.6672 59.4586 17.5298ZM57.8025 36.418C57.9936 36.2806 58.2484 36.3493 58.4395 36.3493C58.5669 36.3493 58.6305 36.4866 58.5032 36.624C58.4395 36.6927 58.3758 36.6927 58.3121 36.7614C58.2484 36.7614 58.1847 36.7614 58.1847 36.7614C58.121 36.7614 58.0573 36.7614 58.0573 36.7614C57.9936 36.7614 57.8662 36.7614 57.8025 36.7614C57.7388 36.7614 57.6752 36.6927 57.6752 36.624C57.6752 36.5553 57.7388 36.4866 57.8025 36.418ZM57.93 17.8045C57.9937 17.7358 58.121 17.5985 58.2484 17.5298H58.3121C58.3121 17.5298 58.3121 17.5298 58.3758 17.5985C58.3758 17.6672 58.3121 17.6672 58.3121 17.7358C58.2484 17.8045 58.1847 17.8732 58.2484 17.9419C58.2484 18.0106 58.3121 18.0793 58.1847 18.148C58.121 18.148 58.0573 18.148 57.9936 18.0793C57.8026 18.0106 57.8026 17.8732 57.93 17.8045ZM62.707 39.7148C62.6433 39.8522 62.5796 40.0582 62.5796 40.1956C61.6242 41.4319 60.4777 42.5995 59.2675 43.5611C59.0764 43.6298 58.949 43.6985 58.8216 43.7672C58.6942 43.8358 58.5669 43.8359 58.3758 43.8359C57.8662 43.6985 57.3567 43.5611 56.7834 43.4924C56.5924 43.4924 56.4013 43.4237 56.2102 43.3551C55.9554 43.2177 55.7006 43.149 55.4459 43.0803C55.2548 43.0116 55 42.943 54.8726 42.8056C54.8089 42.7369 54.7452 42.6682 54.6178 42.6682C54.2357 42.5309 53.7898 42.5995 53.4076 42.8056C53.1529 42.943 52.8981 43.3551 52.9618 43.6985C52.9618 43.7672 53.0255 43.9045 53.0255 43.9732C53.0255 44.1106 52.9618 44.1793 52.8981 44.248C52.8344 44.3166 52.7707 44.3853 52.707 44.454C52.5796 44.5914 52.3248 44.5914 52.1974 44.5227C52.1337 44.454 52.0701 44.3853 51.9427 44.3166C51.8153 44.248 51.6879 44.1106 51.6242 44.0419C51.3057 43.8359 51.051 43.6985 50.6688 43.7672C50.4777 43.7672 50.414 43.6985 50.3503 43.4924C50.3503 43.4237 50.2866 43.2864 50.2866 43.2177C50.2229 43.0803 50.1593 42.943 50.0319 42.8743C49.6497 42.7369 49.2038 42.5995 48.758 42.5995C48.5032 42.5995 48.3121 42.5308 48.0573 42.3935C48.0573 42.3935 47.9936 42.3935 47.9936 42.3248C47.8662 42.1187 47.6115 41.9814 47.4204 41.9127C47.293 41.844 47.293 41.638 47.3567 41.5693C47.4841 41.4319 47.6115 41.3632 47.6752 41.2259C47.8662 41.0198 47.8663 40.8137 47.8026 40.6077C47.7389 40.4703 47.6751 40.4016 47.6114 40.2643C47.6114 40.1956 47.6114 40.1269 47.6114 40.1269C47.6751 39.9895 47.7389 39.8522 47.8026 39.7148C47.8663 39.6461 47.8026 39.5774 47.6752 39.5774C47.5478 39.6461 47.4204 39.6461 47.3567 39.5087C47.2293 39.3027 47.0382 39.3027 46.8471 39.3714C46.6561 39.4401 46.465 39.5087 46.2739 39.5774C46.1465 39.5774 46.0191 39.5774 45.8917 39.6461C45.7007 39.5087 45.5096 39.7148 45.3185 39.5774C45.1274 39.4401 44.9363 39.6461 44.7452 39.6461C44.6178 39.6461 44.4268 39.6461 44.2994 39.6461C43.9172 39.5774 43.535 39.5774 43.2166 39.7148C43.0255 39.7835 42.8344 39.7835 42.6433 39.7835C42.4522 39.7835 42.3248 39.8522 42.1338 39.9209C41.879 40.0582 41.5605 40.1956 41.3057 40.333C41.1147 40.4016 40.8599 40.539 40.7325 40.6764C40.5414 40.8824 40.2866 40.8824 40.0319 40.8137C39.8408 40.7451 39.6497 40.6764 39.4586 40.7451C39.2675 40.7451 39.0764 40.7451 38.8854 40.7451C38.8217 40.7451 38.6943 40.6764 38.6306 40.6077C38.5669 40.6077 38.5669 40.539 38.5669 40.4703C38.3758 40.2643 38.1847 40.333 38.0573 40.6077C37.9936 40.7451 37.9299 40.8824 37.8662 41.0885C37.7388 41.4319 37.5478 41.7066 37.2293 41.844C37.1019 41.9127 36.9745 41.9814 36.8471 42.1187C34.1083 38.8219 32.5796 34.2887 33.0892 29.2061C33.9809 19.3156 42.0064 11.2108 51.1784 11.0048V11.0735C51.1784 11.1422 51.1146 11.1422 51.1146 11.2108C51.0509 11.2795 50.9873 11.3482 50.9873 11.4169C50.9873 11.5543 50.9235 11.6916 50.7962 11.7603C50.6688 11.829 50.5414 11.8977 50.4777 12.1037C50.414 12.2411 50.2866 12.3785 50.2866 12.5158C50.2866 12.6532 50.2229 12.7906 50.0955 12.7906C50.0318 12.7906 49.9681 12.928 49.9681 12.9966C49.9681 13.134 49.9682 13.2714 49.9045 13.4774C49.8408 13.6148 49.8408 13.8208 49.7771 13.9582C49.7134 14.0956 49.6497 14.1643 49.586 14.1643C49.5223 14.1643 49.4586 14.233 49.3949 14.233C49.3312 14.233 49.3312 14.3016 49.3312 14.3703C49.3312 14.5077 49.3312 14.6451 49.1401 14.7137C48.8853 14.9198 48.6943 15.1258 48.5669 15.4693C48.5032 15.538 48.5032 15.6066 48.4395 15.6753C48.3758 15.744 48.3121 15.8127 48.1847 15.8127C48.0573 15.8127 47.9936 15.8127 47.8662 15.744H47.8026C47.7389 15.8127 47.7389 15.8127 47.8026 15.8814L47.8662 15.9501C47.9299 16.0187 47.8663 16.1561 47.8026 16.1561C47.5478 16.1561 47.4204 16.4308 47.1656 16.4308C46.9745 16.5682 46.8471 16.7056 46.656 16.7743V16.843C46.656 17.049 46.5924 17.049 46.4013 17.1177C46.2739 17.1177 46.2102 17.1864 46.1465 17.1864C46.0828 17.1864 46.0191 17.3237 46.0191 17.3237C45.9554 17.3924 46.0191 17.5298 45.9554 17.6672C45.8917 17.9419 45.9554 18.2166 45.828 18.4914V18.5601C45.8917 18.7661 46.0191 18.9035 46.0828 19.1095C46.1465 19.2469 46.1465 19.3156 46.2102 19.453C46.2102 19.5216 46.2102 19.5903 46.1465 19.659C46.0828 19.7277 46.0191 19.7964 45.9554 19.9337C45.8917 20.0024 45.9554 20.1398 45.9554 20.1398C46.0191 20.2085 46.0828 20.2085 46.1465 20.2085C46.2102 20.2772 46.2739 20.3458 46.2102 20.4145C46.1465 20.4832 46.0828 20.5519 46.0191 20.6893C45.9554 20.758 45.9554 20.964 46.0191 20.964C46.2739 21.2387 46.5287 21.4448 46.8471 21.5135C46.9108 21.5135 46.9745 21.5822 46.9745 21.5135C47.293 21.3761 47.6115 21.3761 47.8662 21.0327C47.9299 20.8953 48.0573 20.758 48.1847 20.6893C48.3758 20.5519 48.6943 20.4832 48.8217 20.2085H48.8853C48.949 20.2772 49.0764 20.3458 49.0764 20.4145C49.1401 20.5519 49.0764 20.758 49.1401 20.8953C49.1401 21.1014 49.2675 21.2387 49.2675 21.4448C49.2675 21.7195 49.3949 21.9943 49.5223 22.269C49.6497 22.4751 49.7134 22.7498 49.8407 22.9558C49.9044 23.0245 49.8407 23.0932 49.8407 23.1619C49.8407 23.2306 49.8408 23.5053 49.9045 23.574C50.0319 24.1235 50.1592 23.9861 50.5414 23.9174C50.6688 23.9174 50.7325 23.7801 50.7325 23.7114C50.7962 23.5053 50.9236 23.4366 51.051 23.4366C51.1146 23.4366 51.1784 23.4366 51.3057 23.4366C51.4968 23.4366 51.6879 23.368 51.8153 23.1619C52.1338 23.2306 52.1337 22.9558 52.1974 22.7498C52.1974 22.6811 52.1974 22.6124 52.1974 22.6124C52.1974 22.5437 52.1337 22.4751 52.07 22.4751H52.0064V22.4064C52.0064 22.1316 52.0064 21.8569 52.1338 21.6508C52.1975 21.5135 52.1974 21.3761 52.1974 21.2387C52.1974 20.964 52.3248 20.8266 52.5159 20.6893C52.6433 20.6206 52.7707 20.5519 52.8981 20.4145C53.0255 20.2772 53.1529 20.1398 53.1529 19.9337C53.1529 19.8651 53.2166 19.7277 53.2166 19.5903C53.2166 19.5216 53.2166 19.453 53.1529 19.3843C53.0255 19.1095 52.8344 18.8348 52.5796 18.6974C52.4522 18.6287 52.3885 18.4914 52.3885 18.2853C52.4522 17.8732 52.4522 17.4611 52.5159 16.9803C52.5159 16.9116 52.5796 16.843 52.6433 16.7743C52.8981 16.4308 53.1529 16.0874 53.4713 15.8127C53.6624 15.6753 53.7898 15.538 53.9809 15.4006C54.2993 15.1258 54.2994 15.1258 54.4905 14.7137C54.5542 14.5764 54.5541 14.439 54.5541 14.3016C54.4904 13.9582 54.6179 13.6148 54.7453 13.4087C54.8726 13.134 55.0637 12.928 55.3822 13.0653C55.7644 12.9966 56.0828 13.0653 56.3376 13.2714C56.4013 13.3401 56.465 13.5461 56.3376 13.6148C56.2102 13.6835 56.1465 13.7522 56.0828 13.8895C56.0828 13.9582 56.0191 14.0956 55.9554 14.1643C55.7006 14.5077 55.4459 14.9198 55.1274 15.2632C55.0637 15.3319 54.9363 15.4693 54.8726 15.6066C54.8089 15.8127 54.6815 15.8127 54.4905 15.8127C54.4268 15.8127 54.3631 15.8814 54.3631 15.9501C54.3631 16.0874 54.363 16.2248 54.2993 16.3622C54.2357 16.4308 54.2357 16.5682 54.2993 16.7056C54.2993 16.843 54.3631 16.9116 54.3631 16.9803C54.4268 17.3924 54.4904 17.8045 54.4267 18.2166C54.4267 18.2853 54.4267 18.354 54.4267 18.4227C54.4267 18.5601 54.4904 18.6974 54.6178 18.6974C54.6815 18.7661 55 18.9722 55 18.9722C55.191 18.9722 55.2547 19.0408 55.3184 19.1782C55.3821 19.3156 55.5096 19.3843 55.7007 19.3156C55.8281 19.2469 55.9554 19.1782 56.1465 19.1095C56.5924 18.9035 57.1019 18.6974 57.6115 18.6974C57.8026 18.6974 57.9299 18.6287 58.121 18.6287C58.1847 18.6287 58.2484 18.6287 58.2484 18.6974C58.3121 18.9722 58.5669 18.9035 58.6943 18.9722C58.6943 18.9722 58.7579 18.9722 58.7579 19.0408V19.1095C58.6942 19.1782 58.5668 19.2469 58.5032 19.2469C58.3758 19.3156 58.1847 19.3843 58.121 19.5216C57.9299 19.7964 57.7388 19.7964 57.4841 19.7277C57.3567 19.659 57.1656 19.659 56.9746 19.5903C56.9109 19.5903 56.8471 19.5903 56.7834 19.5903C56.5287 19.659 56.2739 19.7277 56.0828 19.8651C55.828 19.9337 55.6369 20.1398 55.5732 20.4145C55.5732 20.5519 55.4458 20.6206 55.3184 20.6893C55.2547 20.6893 55.1274 20.758 55 20.758C54.8089 20.8266 54.7452 20.964 54.8726 21.1701C54.8726 21.1701 54.8726 21.1701 54.8726 21.2387C55.0637 21.2387 55.2548 21.1014 55.3822 20.964C55.5096 20.8953 55.5095 20.8953 55.6369 20.964C55.7006 21.0327 55.7643 21.1014 55.828 21.1701C55.8917 21.2387 55.9554 21.2387 55.9554 21.3761C55.9554 21.5822 55.9554 21.7882 55.8917 21.9943C55.8917 22.1316 55.7644 22.2003 55.7007 22.2003C55.637 22.2003 55.5732 22.2003 55.5096 22.1316C55.3822 21.9943 55.3185 21.9256 55.2548 21.7882C55.1911 21.6508 55.0637 21.6508 54.9363 21.7195C54.7452 21.7882 54.5542 21.9256 54.4905 22.1316C54.4268 22.269 54.363 22.4064 54.2993 22.6124C54.2357 22.8185 54.172 23.0245 54.172 23.2306C54.172 23.5053 54.2357 23.7801 54.2357 23.9861C54.2357 24.0548 54.172 24.1235 54.172 24.1235C54.0446 24.1922 53.9172 24.1922 53.7898 24.2608C53.6624 24.3295 53.5987 24.3982 53.535 24.5356C53.4713 24.8103 53.0255 24.8103 52.8981 24.673C52.8981 24.6043 52.8344 24.6043 52.8344 24.5356C52.7707 24.3982 52.6433 24.3295 52.5159 24.3982C52.2611 24.3982 52.0064 24.4669 51.8153 24.6043C51.4968 24.8103 51.1784 25.0164 50.8599 25.1537C50.7325 25.2224 50.6688 25.3598 50.5414 25.4285C50.4777 25.4972 50.3503 25.4972 50.3503 25.4285C50.2229 25.2911 50.1593 25.1537 50.0319 25.0164C50.0319 24.9477 50.0319 24.879 50.0319 24.8103C50.0319 24.7416 49.9044 24.673 49.8407 24.7416C49.7134 24.8103 49.586 24.9477 49.4586 24.9477C49.2038 24.9477 49.0127 25.1537 48.8217 25.2224H48.6943C48.6306 25.1537 48.5669 25.0164 48.4395 25.0164C48.3121 25.0164 48.1847 24.9477 48.121 24.879C48.0573 24.8103 48.0573 24.673 47.9936 24.5356C47.9936 24.4669 47.9936 24.4669 48.0573 24.3982H48.121C48.3121 24.4669 48.5032 24.5356 48.6943 24.673C48.8853 24.879 49.0764 24.7416 49.2675 24.5356C49.4586 24.1922 49.586 23.8487 49.586 23.5053C49.586 23.368 49.0764 23.574 48.8853 23.7801C48.8216 23.8487 48.758 23.9861 48.8217 24.0548C48.8853 24.1235 48.9491 24.2608 48.9491 24.3295V24.4669C48.8854 24.4669 48.8853 24.4669 48.8217 24.4669C48.8217 24.4669 48.758 24.4669 48.758 24.3982C48.5669 24.2608 48.5669 23.9861 48.3758 23.8487C48.3758 23.8487 48.3758 23.7801 48.3758 23.7114C48.4395 23.5053 48.5032 23.368 48.6943 23.2993C48.758 23.2993 48.758 23.2306 48.6943 23.1619C48.6943 23.1619 48.6943 23.0932 48.6306 23.0932C48.3758 22.9558 48.3758 22.7498 48.5032 22.4751C48.5669 22.3377 48.6306 22.2003 48.5669 22.063C48.5669 21.9943 48.5032 21.9256 48.4395 21.9256C48.3758 21.9256 48.3121 21.9256 48.3121 21.9943C47.9936 22.1316 47.8026 22.4751 47.4841 22.5437C47.4204 22.5437 47.4204 22.6124 47.4204 22.6811C47.4204 23.0245 47.1656 23.2993 47.2293 23.574C47.2293 23.6427 47.2293 23.6427 47.1656 23.7114C47.1019 23.8487 47.1656 23.9174 47.2293 23.9861C47.293 24.0548 47.3567 24.1235 47.3567 24.1922C47.4204 24.5356 47.4841 24.879 47.4841 25.2224C47.4841 25.4285 47.2293 25.7032 47.1019 25.6345C46.9108 25.5658 46.7198 25.5658 46.5287 25.7032C46.4013 25.7719 46.2102 25.8406 46.0191 25.9093C45.7643 25.978 45.5732 26.1153 45.3821 26.184C45.1911 26.2527 45.0637 26.4587 45 26.6648C44.7452 27.3516 44.7452 27.3516 44.172 27.8324C44.0446 27.9011 43.9172 27.9698 43.7898 28.1072C43.7261 28.1758 43.6624 28.2445 43.6624 28.3132C43.5987 28.3819 43.5987 28.5193 43.535 28.588C43.4713 28.7253 43.344 28.8627 43.2166 28.9314C43.1529 28.9314 43.0892 29.0001 43.0255 29.0001C42.8981 29.0687 42.7707 29.1374 42.707 29.2748C42.5796 29.4122 42.4522 29.4809 42.3248 29.4122C42.1974 29.4122 42.1337 29.3435 42.0064 29.2748C41.9427 29.2061 41.879 29.2061 41.8153 29.2061C41.7516 29.2061 41.6242 29.2748 41.6242 29.3435C41.6242 29.4808 41.6879 29.6182 41.6879 29.8243C41.6879 29.9616 41.6242 30.0303 41.4968 30.0303C41.3057 30.0303 41.1784 30.0303 40.9873 29.9616C40.9236 29.893 40.7962 29.893 40.7325 29.893C40.5414 29.9616 40.3503 30.0303 40.1593 30.099C40.0956 30.099 40.0319 30.2364 40.0319 30.3051C40.0319 30.5798 40.0318 30.8545 40.414 30.8545C40.5414 30.8545 40.6688 30.9919 40.7962 30.9919C41.051 31.0606 41.1783 31.198 41.242 31.4727C41.3057 31.7474 41.4331 31.8848 41.6242 32.0222C41.7516 32.0909 41.8153 32.2282 41.7516 32.4343C41.6879 32.8464 41.6242 33.2585 41.5605 33.6706C41.5605 33.808 41.4968 34.014 41.4331 34.1514C41.3694 34.2887 41.1783 34.4261 41.0509 34.3574C40.7962 34.2201 40.4777 34.4261 40.2866 34.2887C40.2229 34.2887 40.1592 34.2201 40.0955 34.2887C39.8408 34.3574 39.586 34.3574 39.3949 34.2887C39.1401 34.2201 38.8853 34.1514 38.6306 34.2201C38.5669 34.2201 38.5032 34.2201 38.4395 34.2201C38.121 34.0827 37.8663 34.0827 37.6115 34.4261C37.5478 34.4948 37.4841 34.4948 37.4204 34.4948C37.3567 34.4948 37.3567 34.5635 37.293 34.5635C37.2293 34.6322 37.1019 34.7695 37.1656 34.8382C37.293 35.113 37.3567 35.3877 37.2293 35.6624V35.7311C37.293 36.3493 37.1656 36.8987 36.8471 37.4482C36.7834 37.5856 36.7198 37.723 36.6561 37.8603C36.5924 37.929 36.5924 38.0664 36.6561 38.1351C36.8471 38.4098 36.9108 38.7532 36.8471 39.0966C36.8471 39.1653 36.8471 39.234 36.8471 39.234C36.8471 39.3027 36.9108 39.3714 36.9108 39.3714C37.1019 39.4401 37.2293 39.5087 37.4841 39.5087C37.6115 39.5087 37.6752 39.4401 37.8026 39.4401C37.9299 39.4401 38.0573 39.5087 38.121 39.5774C38.1847 39.7148 38.2484 39.9209 38.3758 40.0582C38.4395 40.1956 38.6943 40.2643 38.8216 40.1956C38.949 40.1269 39.0764 40.0582 39.1401 39.9895C39.3949 39.7835 39.7134 39.7148 39.9681 39.7148C40.1592 39.7148 40.414 39.7148 40.6051 39.7148C40.7325 39.7148 40.8599 39.6461 40.9236 39.5087C41.0509 39.3714 41.1147 39.3027 41.3057 39.234C41.4331 39.1653 41.5605 39.0966 41.6242 38.8906C41.6879 38.6845 41.8153 38.4785 42.0064 38.2724C42.0701 38.2037 42.1338 38.0664 42.0701 37.9977C41.8153 37.5856 42.0064 37.3109 42.2612 37.0361C42.3248 36.9674 42.3885 36.8987 42.4522 36.8301C42.6433 36.624 42.8344 36.3493 43.2166 36.2806C43.535 36.1432 43.8535 35.8685 43.9172 35.4564C43.9172 35.319 43.9809 35.113 43.9809 34.9756C43.9809 34.9069 44.0446 34.8382 44.0446 34.7695C44.1083 34.5635 44.363 34.4261 44.5541 34.4261C44.8726 34.4948 45.2548 34.4948 45.5095 34.7009C45.6369 34.7695 45.828 34.7695 45.8917 34.6322C46.0828 34.3574 46.3376 34.2201 46.656 34.0827C46.7197 34.0827 46.8471 33.9453 46.9108 33.8766C47.1019 33.6706 47.293 33.6706 47.5478 33.7393C47.7389 33.808 47.9299 33.9453 47.9936 34.2201C48.0573 34.4261 48.121 34.5635 48.1847 34.7695C48.4395 35.0443 48.758 35.3877 49.0127 35.7311C49.2038 36.0059 49.3949 36.1432 49.7134 36.2119C50.0319 36.2806 50.2866 36.624 50.5414 36.7614C50.6051 36.9674 50.7962 37.1048 50.9236 37.1735C50.9873 37.1735 51.051 37.2422 51.051 37.3109C51.1146 37.5169 51.1784 37.723 51.1784 37.929C51.1784 37.9977 51.1784 38.0664 51.1784 38.0664C51.1147 38.2724 50.9236 38.4098 50.9236 38.6159C50.9236 38.7532 50.9236 38.8219 50.9873 38.8906C51.051 38.9593 51.242 38.8219 51.3694 38.6845C51.4968 38.4785 51.6242 38.2037 51.8153 37.9977C51.879 37.8603 51.879 37.723 51.8153 37.5169C51.7516 37.4482 51.7516 37.3795 51.6879 37.3109C51.6879 37.2422 51.6879 37.1048 51.7516 36.9674C51.8153 36.8301 52.0064 36.7614 52.1338 36.8301C52.2612 36.8987 52.3248 37.0361 52.4522 37.1048C52.4522 37.1048 52.5796 37.1048 52.5796 37.0361C52.707 36.8987 52.707 36.6927 52.5796 36.624C52.1975 36.418 51.9427 36.0059 51.4968 35.9372C51.3694 35.8685 51.3057 35.7998 51.3057 35.6624C51.3057 35.5937 51.242 35.5251 51.242 35.5251C51.1783 35.5251 51.051 35.4564 50.9873 35.4564C50.7325 35.4564 50.6051 35.319 50.414 35.113C50.2866 34.9756 50.2229 34.8382 50.1592 34.6322C50.0955 34.2887 49.8408 34.0827 49.6497 33.8766C49.586 33.808 49.4586 33.7393 49.3949 33.6706C49.2675 33.5332 49.2675 33.3958 49.2675 33.2585C49.2675 33.1211 49.3312 32.9837 49.3312 32.8464C49.3312 32.7777 49.3949 32.709 49.4586 32.6403C49.586 32.5716 49.7134 32.503 49.8407 32.503C49.9044 32.503 49.9681 32.503 49.9681 32.5716C49.9681 32.709 49.9682 32.8464 50.0319 32.9837C50.0319 33.0524 50.0955 33.1898 50.2229 33.1898C50.414 33.1211 50.4777 33.3272 50.6051 33.3272C50.7325 33.3272 50.7962 33.3958 50.7962 33.4645C50.8599 33.808 51.051 34.014 51.3057 34.2201C51.4968 34.3574 51.6879 34.5635 52.0064 34.5635C52.1338 34.6322 52.1974 34.7695 52.3885 34.8382C52.5796 34.8382 52.707 34.9756 52.7707 35.113C52.8981 35.2503 53.0255 35.4564 53.1529 35.5937C53.2166 35.6624 53.2166 35.7311 53.2166 35.8685C53.2166 36.0058 53.2166 36.2119 53.1529 36.3493C53.0892 36.624 53.1528 36.8987 53.3439 37.0361C53.3439 37.0361 53.4076 37.1048 53.3439 37.1048C53.2802 37.3109 53.4077 37.4482 53.535 37.5169C53.6624 37.5856 53.7261 37.723 53.8535 37.8603C53.8535 38.0664 54.1083 38.2037 54.1083 38.4785C54.172 38.5472 54.172 38.5472 54.1083 38.6159C54.1083 38.6845 54.1083 38.7532 54.1083 38.8219C54.2994 38.9593 54.4905 39.0966 54.4905 39.4401C54.4905 39.5087 54.5541 39.5774 54.6178 39.5774C54.8089 39.6461 55 39.7148 55.1911 39.7148C55.2548 39.7148 55.3821 39.6461 55.3184 39.5774C55.2547 39.3027 55.5096 39.1653 55.5096 38.8906C55.5096 38.8906 55.5732 38.8219 55.5732 38.8906C55.7643 38.9593 55.8917 38.8219 56.0828 38.7532C56.1465 38.7532 56.1465 38.6845 56.1465 38.6159C56.0828 38.4098 56.0828 38.2037 55.8917 38.0664C55.828 37.9977 55.7006 37.9977 55.6369 37.8603C55.4458 37.5856 55.3185 37.3109 55.1911 36.9674C55.1911 36.8987 55.1911 36.8987 55.1911 36.8301V36.7614C55.2548 36.6927 55.2547 36.6927 55.3184 36.7614C55.3821 36.8301 55.3822 36.8301 55.4459 36.8987C55.637 37.1048 55.828 37.0361 55.9554 36.7614C56.0191 36.6927 56.0191 36.5553 56.0828 36.4866L56.2102 36.418C56.2739 36.4866 56.4013 36.4866 56.465 36.418C56.5924 36.2806 56.7197 36.2806 56.9108 36.3493C57.1019 36.3493 57.2293 36.5553 57.2293 36.7614C57.2293 37.1048 57.1656 37.3795 57.0382 37.723C57.0382 37.7916 57.1019 37.8603 57.1656 37.8603C57.2293 37.8603 57.293 37.8603 57.3567 37.8603H57.4204C57.4204 37.8603 57.4841 37.8603 57.4841 37.929C57.4841 37.9977 57.4841 38.0664 57.4841 38.0664C57.3567 38.2037 57.2293 38.2037 57.1019 38.2724C57.1019 38.2724 57.0382 38.2724 57.0382 38.3411C57.0382 38.4098 57.0382 38.4785 57.1019 38.4785C57.1656 38.5472 57.293 38.5472 57.3567 38.6159C57.4204 38.6845 57.484 38.6845 57.5477 38.7532C57.6114 38.8219 57.4204 38.9593 57.4841 39.028C57.6114 39.0966 57.7388 39.234 57.8025 39.3714C57.8662 39.5087 57.9936 39.5774 58.0573 39.7148C58.121 39.7835 58.1847 39.7835 58.3121 39.7835C58.5032 39.7148 58.6942 39.7835 58.8216 39.9895C58.8853 40.0582 58.949 40.0582 59.0127 40.1269C59.0764 40.1269 59.0764 40.1956 59.1401 40.1956C59.3949 40.1269 59.6497 40.1269 59.8408 39.9209C59.9682 39.7148 60.1592 39.7148 60.2866 39.7835C60.4777 39.8522 60.6051 39.9209 60.7325 40.0582C60.9235 40.2643 61.1784 40.2643 61.4331 40.1956C61.6879 40.1269 61.9427 39.9895 62.1338 39.7835C62.1975 39.7148 62.3249 39.6461 62.3886 39.7148C62.2612 39.7148 62.4523 39.7148 62.707 39.7148C62.6433 39.7148 62.6433 39.7148 62.707 39.7148ZM50.414 20.6206C50.414 20.6893 50.414 20.758 50.414 20.8266C50.414 20.964 50.2866 21.1014 50.1592 21.1014C50.0318 21.1014 49.8407 21.1701 49.8407 21.1014C49.8407 21.1014 49.8408 20.758 50.0955 20.6893C50.1592 20.6893 50.1592 20.5519 50.2229 20.4832C50.2866 20.4145 50.3503 20.3458 50.414 20.4145C50.3503 20.4832 50.414 20.5519 50.414 20.6206ZM52.1338 20.0711H52.1974C52.2611 20.0711 52.2611 20.0711 52.3248 20.1398V20.2085C52.2611 20.2085 52.2611 20.2085 52.1974 20.2085C52.1337 20.1398 52.0701 20.0711 52.1338 20.0711ZM64.8726 36.0745C64.6815 36.0059 64.4267 36.0059 64.2356 36.0745C64.1082 36.1432 63.9172 36.1432 63.7898 36.0745C63.535 36.0059 63.2165 35.8685 62.9617 35.7998C62.8981 35.7998 62.8344 35.7311 62.7707 35.6624C62.707 35.6624 62.707 35.5937 62.6433 35.5937C62.3885 35.5937 62.1338 35.4564 61.879 35.3877C61.3694 35.319 60.9235 35.3877 60.414 35.5937C60.2229 35.6624 60.0319 35.7998 59.9045 36.0058C59.8408 36.1432 59.7134 36.1432 59.586 36.1432C59.3312 36.0745 59.0764 36.1432 58.7579 36.0745C58.3758 36.0745 58.121 35.9372 57.9936 35.5251C57.9299 35.3877 57.8662 35.319 57.8662 35.1816C57.8662 35.113 57.8662 35.0443 57.8662 34.9756C57.9299 34.7695 57.9299 34.6322 58.121 34.4948C58.2484 34.3574 58.3758 34.2201 58.3758 34.014C58.3758 33.8766 58.4395 33.6706 58.4395 33.5332C58.4395 33.3959 58.5032 33.3272 58.6306 33.3272C58.8217 33.2585 58.8854 33.1211 58.9491 32.9151C58.9491 32.8464 59.0127 32.709 59.0764 32.6403C59.2675 32.3656 59.4586 32.1595 59.586 31.9535C59.6497 31.8848 59.8408 31.8161 59.9045 31.8848H59.9681C60.2229 32.0908 60.4777 32.2282 60.7962 32.2282C60.8599 32.2282 60.9236 32.3656 60.8599 32.4343C60.7962 32.503 60.7325 32.5716 60.6051 32.6403C60.5414 32.709 60.5414 32.7777 60.6051 32.8464C60.6688 32.8464 60.6688 32.9151 60.7325 32.9151C60.8598 32.9837 60.9236 33.1211 60.9236 33.2585C60.9236 33.4645 61.1146 33.5332 61.3057 33.4645C61.3694 33.4645 61.4331 33.3959 61.4968 33.3959C61.6242 33.3272 61.7516 33.2585 61.879 33.1898C62.0701 33.0524 62.2612 33.0524 62.4522 33.0524C62.5159 33.0524 62.5159 32.9837 62.5796 32.9837C62.6433 32.9837 62.707 32.8464 62.6433 32.7777C62.6433 32.709 62.5796 32.6403 62.5159 32.6403H62.4522C61.879 32.709 61.879 32.709 61.6242 32.2282H61.5605L61.6242 32.1595C61.8153 31.8848 62.0701 31.7474 62.3886 31.6787C62.5796 31.6787 62.707 31.6101 62.8981 31.4727C63.2165 31.1293 63.9172 31.198 63.9172 31.198C63.9172 31.198 63.6624 31.4727 63.535 31.5414C63.4713 31.6101 63.4076 31.7474 63.4713 31.8161C63.4713 31.8848 63.535 31.9535 63.4713 32.0222C63.3439 32.2282 63.2165 32.503 62.9617 32.6403C62.9617 32.6403 62.8981 32.7777 62.9617 32.7777C63.0891 32.9837 63.2166 33.1898 63.4713 33.2585C63.7898 33.3272 64.0446 33.5332 64.2356 33.808C64.4904 34.0827 64.8089 34.2887 65.1274 34.4948C65.2548 34.5635 65.3185 34.6322 65.3822 34.7695C65.1911 35.2503 65 35.7311 64.8089 36.1432C65 36.0745 64.9363 36.0745 64.8726 36.0745Z" fill="#FFCC00"/>
<path d="M50.5413 39.0279C50.5413 38.8905 50.4776 38.6845 50.2865 38.6158C50.0955 38.5471 49.5222 38.7532 49.2037 38.6845C49.14 38.6845 49.0763 38.6845 49.0127 38.7532C48.949 38.7532 48.949 38.8218 48.949 38.8905C48.949 38.9592 48.949 39.0279 48.949 39.0279C49.0764 39.0966 49.2038 39.2339 49.3948 39.3026C49.7133 39.44 49.9681 39.6461 50.2865 39.7834C50.3502 39.7834 50.4776 39.7834 50.4776 39.7147C50.5413 39.6461 50.5413 39.5774 50.5413 39.5087C50.5413 39.3713 50.5413 39.3026 50.5413 39.1653C50.4776 39.0966 50.5413 39.0966 50.5413 39.0279Z" fill="#FFCC00"/>
</svg>
