<svg width="100" height="59" viewBox="0 0 100 59" fill="none" xmlns="http://www.w3.org/2000/svg">
<path d="M89.9809 55.1566H5L10.0191 2.90295H95L89.9809 55.1566Z" fill="#CC0000"/>
<path d="M33.3957 55.1566L38.4148 2.90295H49.6906L44.6715 55.1566H33.3957Z" fill="white"/>
<path d="M37.246 55.1566L42.2651 2.90295H45.8403L40.8212 55.1566H37.246Z" fill="black"/>
<path d="M42.7463 55.1566L47.7655 2.90295H48.728L43.7089 55.1566H42.7463Z" fill="black"/>
<path d="M34.3583 55.1566L39.3774 2.90295H40.3399L35.3208 55.1566H34.3583Z" fill="black"/>
<path d="M91.906 34.6677H6.99387L8.02519 23.3231H93.0061L91.906 34.6677Z" fill="white"/>
<path d="M92.3186 30.8174H7.33765L7.68142 27.2422H92.6624L92.3186 30.8174Z" fill="black"/>
<path d="M92.7998 25.3171H7.88766L7.95642 24.3545H92.9373L92.7998 25.3171Z" fill="black"/>
<path d="M92.0436 33.6364H7.06265L7.13141 32.7426H92.1123L92.0436 33.6364Z" fill="black"/>
<path d="M43.1589 11.9786C33.7395 11.9786 25.3514 19.6104 24.3889 29.0986C23.495 38.518 30.3705 46.2185 39.8587 46.2185C49.2781 46.2185 57.6662 38.5867 58.6287 29.0986C59.5225 19.6104 52.6471 11.9786 43.1589 11.9786ZM39.9274 45.6685C30.7831 45.6685 24.0451 38.243 24.9389 29.0986C25.8327 19.9542 33.9458 12.5287 43.1589 12.5287C52.3033 12.5287 59.0413 19.9542 58.1475 29.0986C57.2537 38.243 49.1406 45.6685 39.9274 45.6685Z" fill="white"/>
<path d="M43.1589 12.46C34.0145 12.46 25.8327 19.8855 24.9389 29.0299C24.0451 38.1742 30.7831 45.5998 39.9275 45.5998C49.0718 45.5998 57.2537 38.1742 58.1475 29.0299C59.0413 19.8855 52.3033 12.46 43.1589 12.46ZM40.065 44.0872C31.7456 44.0872 25.6952 37.3492 26.4515 29.0299C27.2766 20.7105 34.6333 13.9726 42.9527 13.9726C51.272 13.9726 57.3224 20.7105 56.5661 29.0299C55.8098 37.3492 48.3843 44.0872 40.065 44.0872Z" fill="black"/>
<path d="M43.0214 13.9725C34.7021 13.9725 27.3453 20.7105 26.5203 29.0298C25.6952 37.3492 31.8144 44.0871 40.1337 44.0871C48.453 44.0871 55.8098 37.3492 56.6348 29.0298C57.3911 20.7105 51.272 13.9725 43.0214 13.9725ZM40.2025 43.3308C32.2957 43.3308 26.5202 36.9366 27.2765 29.0298C28.0328 21.123 35.0458 14.7288 42.9526 14.7288C50.8594 14.7288 56.6348 21.123 55.8785 29.0298C55.0535 36.9366 48.0405 43.3308 40.2025 43.3308Z" fill="white"/>
<path d="M42.8839 14.7976C34.9771 14.7976 27.9641 21.1918 27.2078 29.0986C26.4515 37.0054 32.2269 43.3996 40.1337 43.3996C48.0405 43.3996 55.0535 37.0054 55.8098 29.0986C56.5661 21.1918 50.7907 14.7976 42.8839 14.7976ZM40.2024 42.7808C32.6394 42.7808 27.0703 36.6616 27.7578 29.0298C28.5141 21.4668 35.2521 15.2789 42.8151 15.2789C50.3781 15.2789 55.9473 21.3981 55.2597 29.0298C54.5722 36.6616 47.8342 42.7808 40.2024 42.7808Z" fill="black"/>
<path d="M42.8839 15.2788C35.3209 15.2788 28.5142 21.398 27.8266 29.0298C27.0703 36.5928 32.6394 42.7807 40.2712 42.7807C47.8342 42.7807 54.5722 36.6615 55.3285 29.0298C56.0161 21.4667 50.4469 15.2788 42.8839 15.2788Z" fill="white"/>
<path d="M53.3346 23.3919L52.9908 23.5982C49.0718 25.8671 45.6341 26.4171 44.4652 26.5546C44.534 26.0733 44.7403 25.317 45.084 24.2857C45.5653 22.8419 46.5279 20.6417 48.2467 18.304L48.453 18.029L48.5905 17.8228H48.3843H48.0405H43.4339H42.3338H37.7273H37.3835H37.0397L37.1772 18.029L37.3147 18.304C38.5523 20.6417 39.1023 22.8419 39.3086 24.2857C39.4461 25.317 39.5149 26.1421 39.5149 26.5546C39.1024 26.4859 38.346 26.4171 37.3147 26.1421C35.8709 25.7983 33.7395 25.042 31.5393 23.5982L31.2643 23.3919L31.058 23.2544V23.4606L30.9893 23.8044L30.5768 28.411L30.4392 29.5111L30.0267 34.1176L29.958 34.4614V34.6677L30.1642 34.5302L30.508 34.3239C34.427 32.055 37.8648 31.505 39.0336 31.3674C38.9648 31.8487 38.7586 32.605 38.4148 33.6364C37.9335 35.0802 36.971 37.2804 35.2521 39.618L35.0458 39.893L34.9083 40.0993H35.1146H35.4584H40.0649H41.165H45.7716H46.1154H46.3216L46.1841 39.893L46.0466 39.618C44.809 37.2804 44.259 35.0802 44.0527 33.6364C43.9152 32.605 43.8464 31.78 43.8464 31.3674C44.259 31.4362 45.0153 31.505 46.0466 31.78C47.4904 32.1237 49.6218 32.8801 51.822 34.3239L52.097 34.5302L52.3033 34.6677V34.4614L52.372 34.1176L52.7846 29.5111L52.9221 28.411L53.3346 23.8044L53.4033 23.4606V23.2544L53.3346 23.3919Z" fill="black"/>
<path d="M35.2521 40.0305L35.3896 39.893C38.4149 35.699 39.1712 31.8487 39.2399 31.2299C38.6211 31.2987 34.7709 31.6424 30.3018 34.2551L30.1643 34.3239L31.1956 23.5981L31.3331 23.6669C35.2521 26.2796 39.1024 26.6233 39.6524 26.6921C39.6524 26.0733 39.6524 22.223 37.4523 18.029L37.3835 17.8915H48.1093L47.9718 18.029C44.9465 22.223 44.1902 26.0733 44.1215 26.6921C44.7403 26.6233 48.5905 26.2796 53.0596 23.6669L53.1971 23.5981L52.1658 34.3239L52.0283 34.2551C48.1093 31.6424 44.259 31.2987 43.709 31.2299C43.709 31.8487 43.709 35.699 45.9091 39.893L45.9779 40.0305H35.2521Z" fill="white"/>
<path d="M43.1589 27.7234C43.0902 27.7234 43.0902 27.7234 43.0214 27.7234C43.0214 27.6546 43.0214 27.6546 43.0214 27.5859C43.3652 23.7356 46.4592 18.7853 46.4592 18.7853H42.7464H42.5401H38.8274C38.8274 18.7853 40.9588 23.6669 40.615 27.5859C40.615 27.6546 40.615 27.6546 40.615 27.7234C40.5462 27.7234 40.5462 27.7234 40.4775 27.7234C36.6272 27.7234 31.9519 25.1107 31.9519 25.1107L31.6081 28.8235V29.0985L31.2643 32.8113C31.2643 32.8113 36.421 30.1986 40.2712 30.1986C40.34 30.1986 40.34 30.1986 40.4087 30.1986C40.4087 30.2673 40.4087 30.2673 40.4087 30.3361C40.0649 34.1863 36.971 39.1367 36.971 39.1367H40.6837H40.9588H44.6715C44.6715 39.1367 42.5401 34.2551 42.8839 30.3361C42.8839 30.2673 42.8839 30.2673 42.8839 30.1986C42.9527 30.1986 42.9527 30.1986 43.0214 30.1986C46.8717 30.1986 51.547 32.8113 51.547 32.8113L51.8908 29.0985V28.8235L52.2345 25.1107C52.2345 25.1107 47.0779 27.7234 43.1589 27.7234Z" fill="black"/>
</svg>
