<svg width="101" height="54" viewBox="0 0 101 54" fill="none" xmlns="http://www.w3.org/2000/svg">
<g clip-path="url(#clip0_1_9626)">
<path d="M79.5984 15.6052L77.8789 32.4061L50.9094 54H43.1307L18.2697 8.3819e-06H35.2395L79.5984 15.6052Z" fill="#F3D500"/>
<path d="M44.9321 46.4001C44.8912 46.5521 44.9526 46.5521 45.014 46.5622C45.1573 46.5926 45.1573 46.4406 45.2699 46.4305C45.2187 46.3798 45.1675 46.3393 45.0856 46.3393C44.9833 46.3393 44.9321 46.39 44.9321 46.4001Z" fill="#E5D229"/>
<path d="M45.1675 45.7921C45.2289 45.7718 45.362 45.8225 45.3517 45.7516C45.3415 45.5996 45.6997 45.4577 45.3927 45.2956C45.2494 45.2246 45.5257 45.174 45.4746 45.0828C45.7509 45.103 45.5872 44.951 45.5769 44.8902C45.5564 44.8193 45.536 44.6977 45.3825 44.7382C45.2596 44.7686 45.1573 44.7889 45.1163 44.9308C45.0652 45.1436 45.1573 45.3665 44.9935 45.5692C44.84 45.7516 44.973 45.7921 45.1675 45.782V45.7921Z" fill="#E5D229"/>
<path d="M22.6708 1.1856C22.6196 1.2768 22.6708 1.32746 22.7322 1.32746C22.9062 1.34773 22.8959 1.22613 22.9164 1.1248C22.814 1.05386 22.7424 1.05386 22.6708 1.1856Z" fill="#E5D229"/>
<path d="M57.03 12.3018C57.3166 12.3828 57.337 12.4943 57.1631 12.6159C57.1119 12.6564 57.0198 12.6463 57.03 12.7273C57.0505 12.8388 57.1631 12.7881 57.2347 12.778C57.378 12.7679 57.5213 12.7476 57.5008 12.5652C57.5008 12.474 57.5008 12.3828 57.5725 12.2916H57.0198L57.03 12.3018Z" fill="#E5D229"/>
<path d="M47.1224 7.85326C46.7847 7.79246 46.4469 7.69113 46.0784 7.81273C46.1091 7.90393 46.2115 7.8938 46.2729 7.93433C46.4162 8.03566 46.5185 8.22819 46.754 8.16739C46.887 8.137 47.0201 8.10659 47.1531 8.09646C47.2657 8.09646 47.409 8.19779 47.4704 8.07619C47.5625 7.88366 47.3066 7.93433 47.2145 7.87353C47.1941 7.8634 47.1531 7.85326 47.1326 7.85326H47.1224Z" fill="#E5D229"/>
<path d="M45.5667 53.7568C45.5974 53.6757 45.6997 53.7163 45.7611 53.7163C45.884 53.7061 46.0068 53.7365 46.1194 53.7568C46.1706 53.8885 46.4367 53.8581 46.4674 54.0101H46.539C46.3855 53.7872 46.6516 53.6656 46.7642 53.5035C46.7642 53.7365 46.8256 53.848 46.9689 54.0101H47.3476C47.3476 54.0101 47.2657 54.0101 47.235 54C47.0098 53.9696 46.9996 53.8075 46.9894 53.6859C46.9689 53.544 47.1531 53.5541 47.2759 53.5339C47.3578 53.5136 47.4397 53.4933 47.5113 53.4528C47.5932 53.4123 47.6444 53.3008 47.5523 53.2806C47.4295 53.2502 47.2657 53.1995 47.1429 53.3211C47.0712 53.392 47.0405 53.4528 46.9177 53.392C46.7847 53.3312 46.8358 53.2502 46.8358 53.1691C46.8358 53.0678 46.8665 52.9968 46.9996 53.0779C46.9996 53.0779 47.0815 53.0374 47.1019 53.007C47.1429 52.9462 47.0712 52.9462 47.0303 52.9158C46.9791 52.8752 46.887 52.8854 46.8768 52.8144C46.8768 52.8144 46.8768 52.8144 46.8665 52.8144C46.9484 52.8144 47.0303 52.8144 47.1019 52.8347C47.3476 52.8955 47.4909 52.8043 47.5318 52.5915C47.2862 52.6118 47.061 52.6726 46.8665 52.8144C46.754 52.7739 46.6414 52.7638 46.6004 52.8955C46.5493 53.0678 46.4878 53.2502 46.4878 53.4224C46.4878 53.6453 46.365 53.7467 46.1194 53.7467C45.9249 53.6048 45.71 53.5035 45.3927 53.5136C45.5667 53.5643 45.5974 53.5947 45.4848 53.7568C45.3722 53.9088 45.1368 53.7568 45.1368 53.9899C45.0037 53.8987 45.1163 53.7771 45.0549 53.7163C44.9423 53.5947 44.9526 53.8581 44.84 53.7669C44.9116 53.6555 44.9321 53.5643 44.7274 53.5541C44.6455 53.5541 44.5739 53.4832 44.492 53.4427C44.6558 53.3414 44.6148 53.2197 44.5841 53.0982C44.625 53.0982 44.6967 53.0678 44.6967 53.0779C44.7376 53.1286 44.8298 53.1691 44.7786 53.24C44.7274 53.311 44.6762 53.3717 44.799 53.392C44.8707 53.4021 44.9833 53.4325 44.9833 53.3008C44.9833 53.1792 45.0549 53.1488 45.1675 53.1894C45.2085 53.1995 45.2392 53.24 45.2494 53.1792C45.2596 53.1286 45.2801 53.0576 45.1675 53.1184C45.0652 52.9462 44.7274 53.1184 44.6762 52.8651C44.7376 52.8651 44.8093 52.8448 44.9116 52.8347C44.799 52.7739 44.6558 52.7638 44.6046 52.6726C44.5125 52.9259 44.3794 52.6118 44.2668 52.784C44.2668 52.5712 44.4818 52.6827 44.5022 52.5408C44.3487 52.5206 44.2054 52.4902 44.1849 52.328C44.3794 52.3483 44.3282 51.9632 44.6046 52.1254C44.6251 52.176 44.6762 52.2368 44.6762 52.2875C44.6762 52.328 44.5841 52.3888 44.6762 52.4091C44.7786 52.4294 44.7479 52.3179 44.8093 52.2774C44.7274 52.2267 44.8502 52.0646 44.6558 52.0747C44.7069 51.9835 44.5329 51.8619 44.7376 51.7808C44.7376 51.7808 44.7581 51.6795 44.7069 51.6998C44.5125 51.7504 44.3282 51.6998 44.1952 51.639C44.0928 51.5984 44.1133 51.6187 44.1133 51.6694C44.0928 51.872 43.8574 51.8619 43.7858 51.8315C43.6322 51.7808 43.7346 51.6694 43.8165 51.5782C43.8881 51.4971 43.9495 51.3856 43.8574 51.2944C43.8165 51.2539 43.8165 51.2032 43.8677 51.1627C43.8984 51.3046 44.0724 51.031 44.0928 51.2032C44.0928 51.2336 44.0519 51.3147 44.1542 51.2742C44.1849 51.264 44.2259 51.2032 44.2156 51.183C44.144 51.0411 44.0928 50.8992 44.2361 50.7472C44.2361 50.7472 44.2361 50.7067 44.2259 50.7067C43.9086 50.7371 44.0724 50.5243 44.0109 50.3419C43.9905 50.7675 43.6732 50.4432 43.5504 50.575C43.5504 50.5446 43.5197 50.5142 43.5197 50.4838C43.5197 50.4331 43.5197 50.3723 43.6118 50.3622C43.9086 50.3216 43.7755 50.2102 43.6732 50.1291C43.4582 49.9569 43.622 49.7441 43.622 49.5515C43.8369 49.5515 43.6732 49.4198 43.7244 49.3489C43.8677 49.1462 44.0212 49.055 44.318 49.0854C44.3692 48.8523 44.5943 48.7003 44.7069 48.4875C44.7581 48.3963 44.7786 48.3051 44.7069 48.2443C44.6455 48.1835 44.5739 48.1531 44.4715 48.2849C44.4203 48.3558 44.1952 48.2342 44.1542 48.1633C44.0826 48.0315 43.97 48.143 43.9598 48.1633C43.8165 48.2342 44.0212 48.1937 44.0007 48.2443C43.97 48.3153 43.9393 48.3862 43.8677 48.4166C43.8165 48.4369 43.7244 48.4369 43.7346 48.3558C43.7448 48.2747 43.5913 48.1633 43.7653 48.1227C44.0007 48.0619 44.1133 47.839 44.3589 47.8187C44.4613 47.8187 44.4715 47.7478 44.4511 47.6971C44.4203 47.6262 44.3692 47.6363 44.3282 47.6971C44.2975 47.7478 44.2464 47.7782 44.2156 47.7174C44.1849 47.6769 44.1849 47.6161 44.2771 47.5857C44.7172 47.4235 44.7888 47.1398 44.6865 46.7953C44.6865 46.775 44.666 46.7345 44.7376 46.7243C44.9116 46.694 45.0652 46.5622 45.2494 46.5926C45.3313 46.6129 45.3006 46.7243 45.2699 46.7649C45.147 46.9169 45.3313 47.079 45.147 47.2107C45.321 47.2715 45.4541 47.2513 45.5974 47.1601C45.5564 47.079 45.4029 47.1905 45.3825 47.0689C45.362 46.9574 45.495 46.9675 45.536 46.9169C45.5564 46.8966 45.6486 46.9371 45.6076 46.8459C45.5667 46.7649 45.6588 46.4508 45.6383 46.4001C45.5769 46.1873 45.9863 46.015 45.7714 45.8022C45.7714 45.7921 45.7714 45.7617 45.7714 45.7516C45.9863 45.6097 45.9556 45.4172 45.9863 45.2246C45.9966 45.1436 45.9863 44.9713 46.2115 44.951C46.3855 44.9409 46.2422 44.8193 46.2217 44.8092C46.1398 44.7889 46.0273 44.7889 46.0068 44.6876C46.1398 44.6572 46.2729 44.6268 46.406 44.5862C46.2422 44.5356 46.1091 44.4241 45.9351 44.4748C45.8942 44.4849 46.0887 44.5558 45.9659 44.6369C45.4439 44.6673 45.2494 44.414 45.4439 43.9073C45.495 43.7756 45.5053 43.6438 45.5872 43.5121C45.6486 43.4108 45.6179 43.3297 45.8123 43.2689C45.9556 43.2284 46.0273 42.9852 45.9761 42.8129C45.9249 42.6407 45.7612 42.4583 45.8226 42.3265C45.9454 42.0124 45.669 41.7591 45.843 41.4551C46.017 41.5969 46.1501 41.5361 46.2217 41.3436C46.3241 41.07 46.5288 40.8167 46.6516 40.5532C46.7949 40.2391 47.1122 39.9756 47.1224 39.6209C47.1224 39.4487 47.2145 39.2663 47.409 39.1548C47.4499 39.1346 47.4806 39.1244 47.4909 39.0839C47.6035 38.4962 47.757 37.9084 47.6444 37.3308C47.6137 37.189 47.6035 37.0572 47.7468 36.9255C47.9515 36.733 47.9617 36.4999 47.9003 36.2669C47.8696 36.1554 47.8593 36.0845 47.9208 35.9629C48.1152 35.6082 48.279 35.2434 48.4325 34.8685C48.5451 34.5949 48.7293 34.3314 48.6167 34.0375C49.0057 33.6322 48.6474 33.1559 48.9136 32.7304C48.9545 32.6594 48.6884 32.5784 48.8317 32.4872C49.3537 32.1832 49.2411 31.7069 49.282 31.3421C49.323 30.9165 49.4356 30.4706 49.3434 30.0349C49.3127 29.893 49.3639 29.7208 49.3844 29.5688C49.1592 29.4067 48.8112 29.2749 48.7293 29.0621C48.627 28.7784 48.3199 28.7987 48.1664 28.6365C48.0436 28.5251 47.9208 28.5048 47.7775 28.444C47.4295 28.3123 47.1224 28.1197 46.8051 27.9576C46.7335 27.9171 46.6618 27.8664 46.58 27.8461C46.1501 27.7144 45.9556 27.38 45.669 27.1267C45.5667 27.0355 45.6486 26.8632 45.4643 26.8024C45.4029 26.7821 45.4336 26.7315 45.5053 26.7112C45.7202 26.6605 45.6383 26.5187 45.5872 26.4477C45.3415 26.1133 45.147 25.7486 44.9321 25.3939C44.7683 25.1203 44.5841 24.8366 44.4818 24.5528C44.3385 24.1779 44.1542 23.8131 43.97 23.4686C43.8165 23.1848 43.6629 22.8808 43.448 22.6275C43.315 22.4654 43.1 22.3742 42.8851 22.2931C42.6394 22.2121 42.619 22.1107 42.8441 21.9689C42.8953 21.9385 42.9465 21.9587 42.8646 21.8979C42.6804 21.7763 42.7213 21.5534 42.6394 21.3913C42.5269 21.1582 42.793 20.9758 42.9772 20.8745C43.2024 20.7529 43.3661 20.5705 43.622 20.4793C43.796 20.4185 43.7244 20.2462 43.8267 20.1449C43.7244 20.1246 43.5811 20.0638 43.5401 20.1043C43.3661 20.2361 43.2945 20.1347 43.274 20.0435C43.2331 19.9118 43.0693 20.0233 43.0181 19.9422C43.2228 19.8105 43.3047 19.4558 43.141 19.3139C42.967 19.1721 43.3252 19.2126 43.2433 19.1113C43.448 19.1214 43.4378 18.9998 43.4378 18.8884C43.4378 18.7769 43.5197 18.706 43.6118 18.6654C43.7653 18.5945 43.8267 18.4932 43.8267 18.3614C43.8267 18.0676 44.0928 18.027 44.3282 17.9966C44.492 17.9764 44.5841 17.9156 44.6762 17.8142C44.6455 17.6926 44.5739 17.571 44.84 17.6014C44.9526 17.6217 44.9628 17.5406 44.9526 17.4697C44.8809 17.2062 44.9526 17.1353 45.3006 17.0846C45.4234 17.0644 45.6076 17.0542 45.6179 16.8617C45.6179 16.7097 45.8123 16.6185 45.9044 16.4868C45.9863 16.3652 45.9659 16.3044 45.8533 16.2436C45.8021 16.2132 45.7816 16.1321 45.8123 16.122C45.9966 16.0409 45.8635 15.8991 45.9249 15.8079C46.058 15.6255 45.7304 15.4532 45.9351 15.3012C46.1603 15.1391 45.8123 14.9871 46.0068 14.8452C46.058 14.8047 46.0068 14.7135 45.9454 14.6831C45.8123 14.6223 45.8021 14.5108 45.7919 14.3993C45.4746 14.2777 45.3927 14.1359 45.5257 13.8319C45.5974 13.6596 45.3415 13.7305 45.3313 13.5887C45.3313 13.4367 44.8707 13.3049 44.6865 13.3657C44.6148 13.386 44.5227 13.3961 44.5125 13.5076C44.5022 13.6799 44.3078 13.7204 44.1645 13.7305C43.8267 13.7609 43.9598 13.8319 44.0519 13.9839C44.1133 14.0953 44.3078 14.1156 44.2771 14.2777C44.1849 14.3183 44.0826 14.2676 43.9802 14.3183C43.7551 14.4399 43.5606 14.5108 43.5913 14.1764C43.5913 14.1561 43.6015 13.8521 43.3661 14.1055C43.3252 14.146 43.1103 14.0041 43.1205 13.9737C43.1819 13.6799 42.8441 13.7609 42.7725 13.7711C42.6087 13.7913 42.4552 13.6495 42.3017 13.7812C42.2505 13.7103 42.0458 13.7812 42.097 13.6089C42.1175 13.5279 42.0663 13.4772 41.9435 13.4671C41.9742 13.5481 42.0049 13.6292 42.0356 13.7305C41.8923 13.6596 41.708 13.69 41.8411 13.4671C41.9332 13.3151 41.6671 13.1023 41.3805 13.0719C41.2475 13.0617 41.1656 13.0516 41.1861 12.9097C41.1861 12.8388 41.1656 12.7476 40.9916 12.8489C40.7869 12.9705 40.6027 12.8185 40.4491 12.7172C40.3161 12.6362 40.3468 12.5146 40.4696 12.4132C40.5412 12.3524 40.572 12.2916 40.4696 12.2308C40.357 12.1498 40.5822 12.1802 40.531 12.1194C40.1728 11.7951 39.8657 11.4303 39.4666 11.1364C39.4666 11.1364 39.4051 11.0554 39.3744 11.025C39.3437 10.9946 39.2312 11.0554 39.2619 10.9743C39.2823 10.9236 39.354 10.9034 39.4256 10.9236C39.4359 10.9743 39.4768 10.9844 39.5382 10.9642C39.5177 10.9439 39.5075 10.9135 39.487 10.8932C39.4666 10.7818 39.3744 10.7412 39.2414 10.7412C39.0367 10.9642 38.9139 10.9642 38.6785 10.802C38.4942 10.6804 38.2588 10.6095 38.0541 10.5183C37.5117 10.2751 36.8157 10.3967 36.3346 10.0522C35.9969 9.91031 35.7307 9.68738 35.4851 9.45432C35.2702 9.25165 34.9938 9.19085 34.6868 9.15032C34.4309 9.11992 34.2057 9.28205 34.0522 9.39352C33.7554 9.59618 33.4893 9.57591 33.2027 9.53538C32.8649 9.48472 32.5169 9.49485 32.1996 9.38338C32.1075 9.35298 31.954 9.33272 31.9438 9.26178C31.9335 8.99832 31.6572 8.99832 31.4934 9.00845C30.9407 9.03885 30.5518 8.66392 29.9991 8.70446C29.9274 8.70446 29.7842 8.62339 29.7944 8.57272C29.7944 8.137 29.3543 8.26873 29.0984 8.22819C28.7811 8.17753 28.5048 8.13699 28.2796 7.9242C28.0544 7.7114 27.6757 7.70127 27.3789 7.56953C26.9286 7.36687 26.6522 7.08314 26.6317 6.62714C26.6317 6.59674 26.6113 6.58661 26.6624 6.55621C27.0207 6.30288 27.0411 6.14075 26.8364 5.76582C26.7341 5.57329 26.7443 5.35036 26.5601 5.17809C26.427 5.05649 26.294 4.90449 26.1507 4.81329C25.8539 4.61063 25.9665 4.2053 25.7003 4.0837C25.4138 3.9621 25.4854 3.65811 25.2193 3.56691C25.0248 3.49597 24.8508 3.39464 24.6461 3.35411C24.38 3.29331 24.421 3.20211 24.5847 3.06024C24.7178 2.94878 24.6666 2.77651 24.4721 2.74611C24.3186 2.72585 24.2367 2.69545 24.2572 2.54345C24.2777 2.44212 24.1651 2.47252 24.1139 2.45225C23.9399 2.36105 23.7045 2.31039 23.7864 2.05705C23.8171 1.95572 23.725 1.92532 23.6226 1.90506C23.3463 1.85439 23.1927 1.72266 23.1927 1.44906C23.1927 1.32746 23.029 1.20586 22.9266 1.0944C22.9062 1.1856 22.9266 1.3072 22.7424 1.29706C22.681 1.29706 22.6298 1.23626 22.681 1.1552C22.7526 1.0336 22.8345 1.02346 22.9266 1.0944C22.7015 0.739734 22.5786 0.364805 22.5275 -0.0405245H21.5347C21.5347 -0.0405245 21.5347 8.3819e-06 21.5347 0.0202748C21.5244 0.334405 21.6165 0.608002 21.8929 0.790401C21.9952 0.861333 21.9952 0.962665 22.0669 1.0336C22.3228 1.29706 22.5684 1.59093 22.507 1.98612C22.4865 2.18879 22.6912 2.32052 22.8243 2.41172C22.988 2.51305 23.1006 2.62452 23.1109 2.76638C23.1313 3.08051 23.2132 3.36424 23.4793 3.57704C23.551 3.62771 23.4486 3.67837 23.4282 3.7189C23.2746 3.94184 23.3258 4.0229 23.6226 4.03304C23.6943 4.03304 23.7659 4.10397 23.8273 4.1445C23.9604 4.2357 24.0013 4.3877 24.1241 4.49916C24.1958 4.55996 24.1753 4.7221 24.0832 4.81329C24.0218 4.87409 23.899 4.94503 23.8069 4.93489C23.6943 4.93489 23.6636 4.83356 23.6431 4.73223C23.5919 4.52956 23.4384 4.33703 23.1723 4.28637C22.7731 4.21543 22.6093 3.8709 22.2306 3.76957C22.1181 3.73917 22.2511 3.63784 22.2818 3.61757C22.7936 3.16158 22.6298 2.94878 22.1078 2.62452C22.0464 2.58398 21.9543 2.59412 21.9236 2.50292C21.9031 2.45225 21.9338 2.25972 21.7394 2.40158C21.5654 2.09759 21.0843 2.04692 20.9308 1.72266C20.9308 1.72266 20.9308 1.71252 20.9308 1.68212C21.1355 1.71252 21.3607 1.82399 21.4937 1.55039C21.5858 1.36799 21.6063 1.22613 21.4016 1.1248C21.2174 1.0336 21.0536 0.911999 20.9615 0.739734C20.9513 0.719468 20.9513 0.668802 20.9308 0.668802C20.593 0.618136 20.7568 0.304005 20.634 0.202673C20.5419 0.121607 20.4907 0.0304081 20.4497 -0.060791H5.53719L0 54H45.6383C45.5974 53.9189 45.536 53.848 45.5667 53.7568ZM45.014 46.5622C44.9526 46.542 44.8912 46.5521 44.9321 46.4001C44.9321 46.4001 44.9833 46.3393 45.0856 46.3393C45.1675 46.3393 45.2187 46.39 45.2699 46.4305C45.1573 46.4305 45.1573 46.5926 45.014 46.5622ZM45.0037 45.5692C45.1675 45.3665 45.0754 45.1436 45.1266 44.9308C45.1675 44.7788 45.2699 44.7585 45.3927 44.7382C45.5462 44.6977 45.5667 44.8193 45.5872 44.8902C45.5974 44.951 45.7611 45.103 45.4848 45.0828C45.536 45.174 45.2596 45.2246 45.4029 45.2956C45.6997 45.4476 45.3517 45.5996 45.362 45.7516C45.362 45.8326 45.2392 45.7718 45.1777 45.7921C44.9833 45.7921 44.8605 45.7617 45.0037 45.5793V45.5692ZM43.6732 50.8587C43.6732 50.8587 43.6425 50.7168 43.7653 50.7168C43.8369 50.7168 43.9598 50.7574 43.9495 50.7776C43.9495 50.8486 43.9905 50.9296 43.9086 50.9904C43.8062 51.0816 43.6629 51.1424 43.6732 51.3451C43.5913 51.1424 43.5299 51.0107 43.663 50.8587H43.6732ZM43.8881 52.4699C43.8062 52.4496 43.8574 52.3787 43.8677 52.328C43.8677 52.2976 44.0417 52.328 43.9086 52.247C43.8677 52.2166 43.6834 52.4192 43.7653 52.1963C43.8062 52.095 43.8677 51.943 43.9291 51.9328C44.144 51.9126 44.0314 52.1254 44.1338 52.1963C44.0826 52.2571 44.0416 52.3078 44.0416 52.3787C44.0416 52.48 43.9598 52.4902 43.8881 52.4598V52.4699ZM44.4613 53.1286C44.4101 53.1691 44.3385 53.2603 44.2975 53.1488C44.2464 53.0171 43.9188 53.1286 44.0007 52.8955C44.0007 52.8854 44.0314 52.8752 44.0724 52.8448C44.144 52.9968 44.3282 53.0171 44.4818 53.0677C44.4818 53.0677 44.4818 53.1083 44.4613 53.1184V53.1286Z" fill="#4DA1E7"/>
<path d="M28.0749 8.3819e-06C28.1568 8.3819e-06 28.2284 8.3819e-06 28.2898 0.0608078C28.4331 0.222939 28.5969 0.364805 28.6788 0.557336C28.8118 0.891733 29.1598 1.02346 29.4873 1.1856C29.6613 1.26666 29.7432 1.14506 29.7944 1.04373C29.9479 0.770134 30.1424 0.648535 30.4801 0.780267C30.5825 0.8208 30.7462 0.760001 30.8691 0.790401C31.084 0.841067 31.2887 0.922133 31.3706 1.1248C31.5241 1.49973 31.7493 1.83412 32.0461 2.13812C32.2099 2.31039 32.2508 2.56372 32.3225 2.78665C32.3429 2.86771 32.3736 2.88798 32.4555 2.88798C32.6602 2.88798 32.8137 2.97918 32.957 3.10078C33.0799 3.21224 33.305 3.17171 33.479 3.21224C33.5814 3.23251 33.653 3.23251 33.6325 3.35411C33.6121 3.44531 33.6325 3.48584 33.479 3.46557C33.3767 3.44531 33.3562 3.56691 33.3357 3.65811C33.2846 3.98237 33.3562 4.28637 33.3153 4.61063C33.2743 4.87409 33.0594 5.12742 33.1617 5.39089C33.3357 5.82662 33.1924 6.33328 33.52 6.72848C33.6121 6.83994 33.52 6.97167 33.5711 7.09327C33.6837 7.377 33.868 7.54927 34.2467 7.54927C34.3592 7.54927 34.5128 7.57967 34.5537 7.64047C34.7686 7.97486 35.0962 7.78233 35.3828 7.7114C35.4544 7.69113 35.5567 7.66073 35.6182 7.66073C35.9764 7.69113 36.3141 7.56953 36.6621 7.50873C36.7645 7.48847 36.8464 7.44793 36.785 7.59993C36.7543 7.67087 36.8771 7.67087 36.918 7.6506C36.9999 7.59993 37.1637 7.61007 37.1637 7.48847C37.1637 7.38714 37.0101 7.48847 36.959 7.41754C37.2967 7.35674 37.5014 7.14394 37.5731 6.85007C37.6345 6.58661 37.7471 6.32315 37.8187 6.05968C37.9006 5.74555 38.2486 5.69489 38.5454 5.61382C38.7808 5.55302 39.0264 5.54289 39.2619 5.47195C39.5791 5.38076 39.8862 5.54289 40.224 5.41116C40.3058 5.38076 40.4798 5.59355 40.3877 5.77595C40.3468 5.84688 40.3058 5.94822 40.2342 5.98875C39.9885 6.14075 39.9067 6.35355 39.8248 6.57648C39.7838 6.59674 39.7327 6.61701 39.6917 6.64741C39.7531 6.68794 39.8248 6.69808 39.876 6.61701C39.9681 6.71834 39.9374 6.79941 39.8146 6.88047C39.7634 6.91087 39.7736 6.91087 39.8146 6.96154C39.835 6.98181 39.835 7.03247 39.8146 7.06287C39.7224 7.29594 39.6303 7.51887 39.5382 7.75193C39.4666 7.70127 39.5382 7.56953 39.4154 7.56953C39.3847 7.56953 39.3335 7.66073 39.2823 7.7114C39.2312 8.02553 39.2004 8.34979 39.1186 8.66392C39.0879 8.78552 38.9241 8.89699 38.8013 8.97805C38.7092 9.03885 38.6375 9.06925 38.6785 9.17058C38.7296 9.29218 38.7808 9.27192 38.8934 9.19085C38.965 9.14018 38.9548 9.30232 39.0572 9.26178C39.1288 9.22125 39.18 9.38338 39.2926 9.24152C39.4154 9.07939 39.6201 9.22125 39.7224 9.24152C39.9783 9.32258 40.183 9.35298 40.4491 9.21112C40.5208 9.17058 40.7255 9.08952 40.8483 9.22125C40.8995 9.28205 41.0121 9.26178 41.0939 9.24152C41.3703 9.17058 41.6262 9.22125 41.8104 9.36312C42.0049 9.51511 42.23 9.62658 42.4245 9.76845C42.4757 9.80898 42.4757 9.83938 42.404 9.85964C42.404 10.0724 42.4347 10.2751 42.2403 10.4879C42.1277 10.6095 42.0458 10.8122 42.1482 11.0047C42.1891 11.0959 42.1482 11.2276 42.0867 11.3492C42.0356 11.4506 41.8923 11.5722 42.0151 11.7039C42.0356 11.7242 42.0049 11.8154 41.9742 11.8255C41.6159 11.9978 41.8616 12.1295 41.9537 12.2714C41.9844 12.6969 42.4757 12.8489 42.6701 13.1833C42.6701 13.1935 42.7213 13.2036 42.752 13.2036C42.9158 13.1935 42.9363 13.1935 42.8953 13.2948C42.8441 13.4367 42.9363 13.4164 43.0386 13.4367C43.6015 13.5684 44.0621 13.2745 44.5636 13.0921C44.9526 12.9503 45.3415 13.082 45.669 13.234C45.8635 13.3252 46.058 13.4671 46.1398 13.6697C46.1808 13.69 46.2115 13.7103 46.2115 13.7508C46.3548 13.7981 46.4401 13.7576 46.4674 13.6292C46.4674 13.6292 46.4776 13.5785 46.4878 13.5785C46.8358 13.538 46.9791 13.2543 47.2452 13.1124C47.2759 13.0921 47.3578 13.1124 47.3476 13.0617C47.3066 12.8591 47.5318 12.7172 47.5421 12.5348C47.5523 12.2714 47.8082 12.2207 48.0231 12.17C48.1971 12.1396 48.4018 12.2308 48.4939 11.9876C48.5246 11.9167 48.627 11.9471 48.7191 11.9775C48.9238 12.0383 49.1694 12.0282 49.323 11.8762C49.5277 11.6634 49.9575 11.714 50.0701 11.3898C50.0804 11.3492 50.4181 11.2682 50.5307 11.3898C50.6535 11.5215 50.5307 11.633 50.3567 11.714C50.3055 11.7343 50.2646 11.7647 50.2134 11.785C49.9473 11.9471 50.1418 12.1396 50.1725 12.2815C50.2134 12.4943 50.1111 12.6058 49.9575 12.7172C49.8245 12.8084 49.7835 12.8591 49.8859 13.0009C49.9575 13.1023 50.1213 13.1529 50.1008 13.3151C50.1008 13.3759 50.1929 13.3353 50.2544 13.3252C50.4488 13.3049 50.4591 13.1428 50.5409 13.0516C50.6023 12.9807 50.5921 12.8692 50.4693 12.778C50.3362 12.6868 50.2134 12.545 50.4079 12.3626C50.5 12.2714 50.3465 12.2511 50.3362 12.1599C50.6638 12.1903 50.8992 11.9572 51.2165 11.937C51.3905 11.937 51.37 11.866 51.2881 11.7647C51.2369 11.7039 51.196 11.5418 51.3597 11.5012C51.5235 11.4506 51.544 11.6026 51.5337 11.6836C51.5235 11.8458 51.6156 11.8762 51.7794 11.8863C52.1581 11.9066 52.5675 11.9167 52.5163 12.3828C52.5163 12.4436 52.588 12.4943 52.6698 12.4842C52.9564 12.474 53.243 12.4639 53.5194 12.3423C53.6626 12.2815 53.8673 12.241 53.9799 12.4234C54.0209 12.4943 54.1335 12.5348 54.2153 12.5855C54.2358 12.5956 54.3075 12.5855 54.2563 12.6362C54.2256 12.6665 54.1028 12.5956 54.1539 12.6969C54.1846 12.778 54.287 12.6969 54.3382 12.7071C54.7783 12.8084 55.1263 12.5146 55.5254 12.4436C55.505 12.3524 55.3412 12.4639 55.3207 12.3119H56.682C56.5387 12.4538 56.4159 12.3828 56.3238 12.4335C56.3545 12.4538 56.4057 12.4842 56.4057 12.5146C56.4261 12.8489 56.7639 12.8084 57.0095 12.8388C57.3268 12.8692 57.4599 13.0921 57.685 13.2137C57.7362 13.2441 57.685 13.2847 57.6236 13.3049C57.5725 13.3151 57.5213 13.3455 57.5315 13.3961C57.552 13.4873 57.5315 13.538 57.4496 13.5583C57.6953 13.6596 58.0637 13.4063 58.248 13.7001C58.596 13.8116 58.903 14.0143 59.0258 14.2879C59.118 14.5007 59.2715 14.5817 59.425 14.7135C59.5888 14.8655 59.8958 14.906 59.9265 15.1695C60.0903 15.0783 60.2234 15.1695 60.3769 15.1695C60.7044 15.1897 61.0319 15.1492 61.3697 15.1188C61.6767 15.0884 61.9531 15.21 62.2704 15.2404C61.9531 15.5545 61.6972 15.8687 61.8405 16.2638C61.8405 16.2841 61.8303 16.3044 61.8405 16.3145C62.2192 16.6185 61.7893 16.9326 61.7484 17.2366C61.7484 17.2873 61.7381 17.3481 61.7279 17.4393C62.0145 17.2468 62.2601 17.2974 62.5262 17.3785C62.6593 17.419 62.8435 17.3177 62.8845 17.186C63.0073 16.8313 63.3041 16.5577 63.5805 16.2841C63.6419 16.2233 63.7238 16.1118 63.8466 16.1625C63.9592 16.203 63.9796 16.3044 63.9592 16.4057C63.8466 16.8313 64.1741 17.1454 64.2355 17.5305C64.256 17.642 64.3686 17.5913 64.4402 17.5913C64.5426 17.5913 64.6654 17.5913 64.6551 17.6926C64.6551 17.794 64.6551 17.9054 64.5323 17.9966C64.3583 18.1284 64.1332 18.2398 64.041 18.4324C63.9592 18.5742 63.7852 18.5945 63.6726 18.6249C63.4781 18.6756 63.6112 18.8276 63.4883 18.8782C63.4474 18.8985 63.56 18.9289 63.6009 18.9492C63.6828 18.9897 63.734 18.9188 63.7749 18.858C63.8159 18.7972 63.7442 18.6553 63.9182 18.6958C64.1025 18.7364 63.9182 18.8377 63.9182 18.9086C63.9182 18.939 63.9489 18.9694 63.9899 19.0404C64.082 18.7161 64.2662 18.706 64.5528 18.7769C64.7166 18.8174 64.9417 18.858 65.0646 18.6452C65.1976 18.7262 65.4126 18.6148 65.5149 18.7769C65.5865 18.8884 65.5456 19.0201 65.474 19.0606C65.3307 19.1417 65.2795 19.2532 65.2283 19.3646C65.1771 19.4964 65.0338 19.5369 64.9315 19.5571C64.6961 19.5875 64.4504 19.6787 64.2355 19.6686C63.9387 19.6483 64.1332 19.7801 64.0615 19.8409C64.3481 19.8105 64.6142 19.6382 64.8189 19.8814C64.8598 19.9321 64.9315 19.8611 64.9724 19.8105C65.1055 19.6686 65.3102 19.5977 65.4433 19.4761C65.607 19.3241 65.7401 19.162 65.9448 19.0404C66.0778 18.9593 66.3439 18.858 66.5179 18.9998C66.7431 19.1924 67.0604 19.162 67.3163 19.2734C67.5312 19.3748 67.7461 19.4659 67.9918 19.5065C68.1863 19.547 68.2272 19.8915 68.0839 20.0537C67.9406 20.2057 68.043 20.3881 67.9304 20.5502C68.0225 20.5705 68.0634 20.5097 68.1044 20.4691C68.2681 20.3273 68.2886 20.1043 68.6264 20.0435C68.9846 19.9827 69.2405 20.0841 69.5168 20.155C69.742 20.2158 70.049 20.0841 70.1923 20.3273C70.3356 20.1753 70.5199 20.2361 70.6836 20.2259C71.1749 20.1955 71.5127 20.3881 71.8811 20.6211C72.1165 20.7731 72.3519 20.9555 72.5464 21.1278C72.7409 21.3102 73.0275 21.3406 73.2117 21.523C73.2936 21.5939 73.4471 21.6243 73.5904 21.6142C74.1738 21.5737 74.2659 21.6041 74.3785 22.0094C74.5525 22.6376 74.5832 23.2659 74.1533 23.8942C73.9998 24.1171 73.7337 24.2286 73.5597 24.4312C73.3448 24.6643 73.0275 24.8163 72.7818 25.019C72.5771 25.1912 72.4134 25.404 72.2803 25.6371C72.178 25.8296 72.004 26.012 71.8402 26.1843C71.7993 26.2248 71.5945 26.3869 71.6048 26.1336C71.6048 26.0931 71.5741 26.0424 71.5024 26.0627C71.4717 26.0627 71.4308 26.1032 71.4308 26.1133C71.4922 26.3464 71.2568 26.5693 71.2875 26.7923C71.3182 26.9747 71.1442 27.076 71.093 27.228C71.0214 27.4611 71.1851 27.6435 71.2056 27.8563C71.2056 27.9373 71.2056 27.9981 71.1544 28.0589C70.96 28.2515 70.919 28.4744 70.8883 28.6973C70.8576 28.9304 70.8883 29.1533 70.5915 29.3256C70.4687 29.3965 70.3459 29.5789 70.3868 29.7512C70.4687 30.0957 70.09 30.3085 69.9876 30.6024C69.8955 30.8557 69.5578 30.9165 69.4657 31.1496C69.4657 31.1698 69.4349 31.18 69.4145 31.1901C69.1995 31.3522 69.568 31.6866 69.1586 31.7778C68.8618 31.8386 68.7287 32.0109 68.565 32.1933C68.4933 32.2744 68.3807 32.2237 68.2886 32.2338C68.1453 32.244 67.9918 32.1832 67.9201 32.3453C67.7769 32.2946 67.9406 32.1426 67.7871 32.1224C67.6233 32.173 67.8894 32.3149 67.7154 32.325C67.6029 32.3352 67.4084 32.4669 67.3674 32.244C67.3674 32.2136 67.2344 32.1832 67.1935 32.2845C67.1423 32.3757 67.0399 32.3554 66.999 32.325C66.825 32.2237 66.7738 32.325 66.7533 32.4365C66.7329 32.5176 66.6203 32.5176 66.6203 32.5986C66.3542 32.5682 66.129 32.7405 65.8834 32.8013C65.6172 32.8722 65.3 32.933 65.0646 33.1762C64.9213 33.3282 64.6347 33.389 64.4402 33.5511C64.3276 33.6525 64.1332 33.6727 64.1332 33.8551C64.1332 33.8957 64.082 33.8957 64.0717 33.8855C64.041 33.845 64.0308 33.8045 63.9899 33.7031C63.9694 33.9362 63.8261 34.1287 63.8261 34.2706C63.8261 34.453 63.5702 34.605 63.693 34.7367C63.7954 34.8583 63.6623 35.0509 63.867 35.1319C63.8875 35.1319 63.867 35.2637 63.8159 35.3042C63.5498 35.5474 63.5191 35.9325 63.0585 36.0743C62.8538 36.1351 62.7617 36.3884 62.6491 36.5708C62.4955 36.8039 62.3113 37.0268 62.1783 37.3308C62.1168 37.1687 62.209 37.0876 62.2499 37.0167C62.2908 36.9458 62.2499 36.8951 62.2294 36.8748C62.1475 36.8039 62.168 36.9255 62.1168 36.9356C61.8507 37.037 61.8507 36.8444 61.7586 36.7228C61.5846 36.8647 61.7381 37.0572 61.6153 37.2092C61.513 37.341 61.5027 37.493 61.2673 37.5639C61.0933 37.6146 60.95 37.8172 60.9603 37.9692C60.9705 38.2935 60.6737 38.5063 60.5304 38.7596C60.4383 38.9218 60.2643 39.1346 60.0186 39.246C59.8139 39.3372 59.7525 39.5298 59.5478 39.6412C59.251 39.8033 58.8723 39.9655 58.5346 39.9148C58.4629 39.9148 58.4015 39.854 58.2991 39.8945C57.9307 40.0263 57.6543 39.8945 57.4087 39.6919C57.3473 39.6412 57.2859 39.621 57.2142 39.6311C56.856 39.702 56.7127 39.4994 56.5694 39.3068C56.3442 39.6615 56.3545 39.6513 56.7434 39.8135C56.9276 39.8945 57.0709 40.0161 57.2245 40.1276C57.3473 40.2087 57.337 40.2999 57.204 40.4012C57.0812 40.5025 57.1733 40.8471 57.3268 40.8977C57.4087 40.918 57.552 40.8369 57.552 40.9687C57.552 41.1004 57.552 41.2423 57.4394 41.3639C57.2245 41.5868 56.9583 41.7692 56.8355 42.0631C56.7946 42.1543 56.5797 42.2353 56.4364 42.2759C55.7813 42.438 55.1467 42.6407 54.461 42.6305C54.3382 42.6305 54.113 42.5191 53.9902 42.7217C53.9185 42.6508 53.8366 42.6103 53.7138 42.6001C53.6217 42.6001 53.5501 42.5393 53.4477 42.5799C53.5091 42.6812 53.3965 42.8231 53.4989 42.9041C53.6831 43.0561 53.7548 43.1676 53.4375 43.3196C53.3761 43.35 53.1407 43.583 53.3556 43.7553C53.4375 43.8262 53.3965 43.958 53.2532 43.9985C52.8745 44.1201 52.4856 44.2924 52.1069 44.0593C52.0353 44.0086 51.9022 44.0289 51.8101 43.9985C51.7384 43.9782 51.503 44.0998 51.6361 43.8769L51.5747 43.8465C51.5235 43.8972 51.4314 43.8769 51.3905 43.9478C51.329 44.0694 51.3086 44.2518 51.37 44.2924C51.503 44.3836 51.4826 44.4849 51.4416 44.5761C51.3086 44.8598 51.5747 44.9308 51.7384 45.0422C51.7999 45.0828 52.0353 45.1436 52.0864 44.9206C52.0967 44.8801 52.1274 44.799 52.2502 44.7686C52.2297 44.9105 52.4549 44.9612 52.373 45.1233C52.3423 45.1942 52.4242 45.326 52.2297 45.3158C52.1069 45.3158 51.9739 45.4476 51.892 45.2348C51.8101 45.0321 51.5644 45.174 51.3597 45.2449C51.4826 45.3766 51.718 45.3665 51.7794 45.5185C51.2779 45.5894 51.1141 45.7718 51.0732 46.1772C51.0629 46.3089 51.0936 46.5115 50.8685 46.623C50.7763 46.6635 50.6842 46.7446 50.8173 46.8358C50.8685 46.8662 50.8173 46.9371 50.7456 46.9169C50.4898 46.8459 50.3055 46.8865 50.0599 47.0689C49.9371 47.1601 49.7119 47.2209 49.5584 47.3627C49.2308 47.6667 49.2308 47.8289 49.5277 48.0923C49.7324 48.2747 49.9473 48.4065 50.2646 48.4166C50.5205 48.4267 50.6433 48.6801 50.4693 48.8422C50.2544 49.0347 50.152 49.2779 49.804 49.4198C49.3741 49.5921 48.934 49.9163 48.975 50.423C48.975 50.5344 48.8624 50.6155 48.7805 50.6358C48.5758 50.6763 48.412 50.7776 48.2278 50.8384C48.0538 50.8992 47.9617 50.9904 47.9412 51.1019C47.8696 51.4768 47.8491 51.8518 48.1459 52.1456C48.1869 52.1862 48.2483 52.2267 48.2585 52.2672C48.2687 52.3382 48.2687 52.4192 48.2278 52.48C48.1766 52.5408 48.0947 52.5003 48.0333 52.4598C47.9719 52.4192 47.8491 52.4902 47.8082 52.399C47.6956 52.3787 47.5932 52.399 47.5318 52.5003C47.5318 52.5003 47.583 52.5003 47.5932 52.5003C47.7161 52.6624 47.8593 52.784 48.105 52.5814C48.1255 52.6118 48.1357 52.6422 48.1562 52.6726C48.3609 52.7131 48.3916 52.8246 48.2687 52.9664C48.1562 53.0982 48.1459 53.1691 48.3609 53.1589C48.4223 53.1589 48.4939 53.1387 48.5042 53.2197C48.5553 53.5947 48.8624 53.7568 49.1797 53.9088H95.4628L101 8.3819e-06H28.0749ZM47.4704 8.07619C47.409 8.20793 47.2555 8.08633 47.1531 8.09646C47.0201 8.09646 46.887 8.12686 46.754 8.16739C46.5185 8.22819 46.4162 8.03566 46.2729 7.93433C46.2115 7.8938 46.1194 7.90393 46.0784 7.81273C46.4469 7.69113 46.7847 7.78233 47.1224 7.85326C47.1531 7.85326 47.1838 7.85326 47.2043 7.87353C47.2964 7.93433 47.5625 7.87353 47.4602 8.07619H47.4704ZM47.8389 6.82981C47.4704 6.73861 47.0508 6.92101 46.6516 6.86021C46.6925 6.76901 46.713 6.65754 46.8461 6.65754C46.9791 6.65754 46.9791 6.58661 46.9894 6.51568C46.9894 6.41434 46.9177 6.37381 46.8051 6.38395C46.58 6.38395 46.3445 6.41435 46.2013 6.23195C46.191 6.21168 46.1296 6.20155 46.1296 6.19141C46.191 5.79622 45.8226 5.93808 45.5872 5.87728C45.3108 5.80635 45.0037 5.75568 44.8093 5.55302C44.7376 5.48209 44.6558 5.51249 44.5841 5.50235C44.2771 5.47195 43.9598 5.47195 43.6834 5.34022C43.7448 5.34022 43.8165 5.34022 43.8779 5.34022C43.9393 5.34022 43.9802 5.31996 43.9905 5.25916C44.0007 5.17809 43.9495 5.17809 43.8779 5.16796C43.5401 5.12742 43.2126 5.16796 42.9363 5.37062C42.8441 5.43142 42.7623 5.44155 42.6599 5.44155C42.5371 5.44155 42.445 5.42129 42.3631 5.57329C42.2812 5.72529 42.0663 5.69489 41.8923 5.64422C41.9844 5.56315 42.097 5.64422 42.1891 5.58342C42.1379 5.34022 42.2607 5.20849 42.5576 5.10716C42.8339 5.00583 43.1512 5.07676 43.3968 4.94503C43.6118 4.83356 43.796 4.83356 43.9905 4.83356C44.0724 4.83356 44.1849 4.80316 44.1645 4.92476C44.1645 4.94503 44.1849 4.99569 44.2054 4.96529C44.3487 4.80316 44.4715 4.98556 44.625 4.94503C44.799 4.90449 44.9935 4.99569 45.188 4.99569C45.2801 4.99569 45.4132 5.04636 45.4336 5.12742C45.495 5.31996 45.6588 5.35036 45.8737 5.35036C46.1501 5.35036 46.365 5.52262 46.6618 5.49222C46.6925 5.49222 46.7335 5.49222 46.754 5.51249C47.1634 5.97862 47.2555 5.98875 47.9515 6.10021C47.9924 6.10021 48.064 6.12048 48.064 6.13061C48.0333 6.43461 48.3097 6.37381 48.5246 6.38395C48.76 6.38395 48.7703 6.65754 49.0159 6.64741C49.0466 6.64741 49.0671 6.68794 49.0159 6.73861C48.975 6.77914 48.975 6.85007 48.8829 6.82981C48.5451 6.77914 48.2073 6.93114 47.8491 6.83994L47.8389 6.82981ZM52.8541 7.7722C52.7927 7.8026 52.762 7.8634 52.6084 7.85326C52.3218 7.82286 52.0148 7.6202 51.6975 7.85326C51.6873 7.85326 51.6566 7.8634 51.6361 7.85326C51.2779 7.7418 51.0322 7.88366 50.8173 8.13699C50.7559 8.20793 50.6945 8.14713 50.6842 8.1066C50.5819 7.833 50.326 7.85326 50.0394 7.87353C49.6607 7.8938 49.282 7.87353 48.9033 7.85326C48.76 7.85326 48.7396 7.7418 48.7907 7.6506C48.8419 7.53913 48.9238 7.63033 48.9954 7.63033C49.2718 7.63033 49.4663 7.79246 49.7528 7.78233C49.8961 7.78233 49.9882 7.78233 50.1008 7.681C50.1827 7.61007 50.3055 7.57967 50.1213 7.50873C49.9985 7.45807 49.8961 7.4074 49.9678 7.225C50.0189 7.11354 49.845 7.00207 49.6914 7.00207C49.6095 7.00207 49.6095 6.93114 49.5379 6.95141C49.7938 6.86021 50.0292 6.82981 50.2851 6.95141C50.3874 6.99194 50.5819 7.09327 50.7559 6.91087C50.8275 6.83994 51.0629 6.88047 51.2267 6.88047C51.4621 6.88047 51.6361 7.05274 51.9022 6.99194C51.9124 6.99194 51.9534 7.02234 51.9534 7.04261C51.9022 7.26554 52.0557 7.23514 52.2297 7.21487C52.2502 7.21487 52.547 7.09327 52.3526 7.32634C52.3014 7.38714 52.414 7.377 52.4549 7.36687C52.6698 7.33647 52.762 7.4682 52.8745 7.5594C52.9564 7.6202 52.9667 7.7114 52.8643 7.76206L52.8541 7.7722ZM57.511 12.5754C57.5315 12.7577 57.3882 12.778 57.2449 12.7881C57.1733 12.7881 57.0607 12.8489 57.0402 12.7375C57.0198 12.6564 57.1221 12.6564 57.1733 12.626C57.337 12.5044 57.3166 12.3828 57.0402 12.3119H57.5929C57.5213 12.4031 57.511 12.4943 57.5213 12.5855L57.511 12.5754Z" fill="#F35F37"/>
</g>
<defs>
<clipPath id="clip0_1_9626">
<rect width="101" height="54" fill="white"/>
</clipPath>
</defs>
</svg>
