<svg width="100" height="59" viewBox="0 0 100 59" fill="none" xmlns="http://www.w3.org/2000/svg">
<path opacity="0.1" d="M89.9809 55.1566H5L10.0191 2.90295H95L89.9809 55.1566Z" fill="white"/>
<path d="M89.9809 55.1566H5L10.0191 2.90295H95L89.9809 55.1566Z" fill="#002664"/>
<path d="M73.5485 37.6929H91.631L93.2811 20.2979H74.7861L94.45 8.81587L95 2.90295H84.8243L59.5913 17.4102L61.0351 2.90295H43.984L42.6089 17.4102L20.1948 2.90295H10.0191L9.46906 8.81587L26.864 20.2979H8.36898L6.65011 37.6929H24.8014L5.61879 48.8999L5 55.1566H15.2445L40.4087 40.4431L38.9649 55.1566H55.9473L57.3912 40.3743L79.7365 55.1566H89.9809L90.5309 49.1749L73.5485 37.6929Z" fill="white"/>
<path d="M93.0061 23.6669H55.6035L57.5974 2.90295H47.4217L45.4278 23.6669H8.02519L6.99387 34.3239H44.3965L42.4026 55.1566H52.5783L54.5722 34.3239H91.9748L93.0061 23.6669Z" fill="#CC0000"/>
<path d="M59.3163 20.2979H65.298L95 2.90295H89.0184L59.3163 20.2979Z" fill="#CC0000"/>
<path d="M5 55.1566H10.9129L40.6837 37.6929H34.7021L5 55.1566Z" fill="#CC0000"/>
<path d="M63.5791 37.6929H69.5608L90.2559 51.7188L89.9809 55.1566L63.5791 37.6929Z" fill="#CC0000"/>
<path d="M9.67535 6.27194L10.0191 2.90295L37.246 20.2979H31.2644L9.67535 6.27194Z" fill="#CC0000"/>
</svg>
