<svg width="100" height="59" viewBox="0 0 100 59" fill="none" xmlns="http://www.w3.org/2000/svg">
<path d="M5.41251 51.1115H90.3934L90.7372 47.2612H5.75628L5.41251 51.1115Z" fill="white"/>
<path d="M6.16881 43.0672H91.1497L91.4935 39.2169H6.58134L6.16881 43.0672Z" fill="white"/>
<path d="M7.33777 31.1726L6.994 34.9541H91.9061L92.3187 31.1726H48.3156H7.33777Z" fill="white"/>
<path d="M48.5219 26.9098H92.7312L93.075 23.0596H48.8656L48.5219 26.9098Z" fill="white"/>
<path d="M49.2782 18.7968H93.4875L93.8313 15.0153H49.6907L49.2782 18.7968Z" fill="white"/>
<path d="M50.1032 10.7525H94.2438L94.6563 6.90222H50.447L50.1032 10.7525Z" fill="white"/>
<path d="M6.5814 39.2169H91.4935L91.9061 34.9541H6.99393L6.5814 39.2169Z" fill="#CC0000"/>
<path d="M5.75636 47.2613H90.7373L91.1498 43.0673H6.16889L5.75636 47.2613Z" fill="#CC0000"/>
<path d="M5.00006 55.3744H89.981L90.3935 51.1116H5.41258L5.00006 55.3744Z" fill="#B12332"/>
<path d="M5.00006 55.3744H89.981L90.3935 51.1116H5.41258L5.00006 55.3744Z" fill="#CC0000"/>
<path d="M50.7907 3.12073L50.4469 6.90224H94.6562L95 3.12073H50.7907Z" fill="#CC0000"/>
<path d="M49.6906 15.0152H93.8312L94.2437 10.7524H50.1031L49.6906 15.0152Z" fill="#CC0000"/>
<path d="M48.8656 23.0595H93.0749L93.4874 18.7968H49.2781L48.8656 23.0595Z" fill="#CC0000"/>
<path d="M48.1093 31.1726H92.3186L92.7311 26.9098H48.5218L48.1093 31.1726Z" fill="#CC0000"/>
<path d="M48.5218 27.0474L48.9343 22.8533L49.2781 18.9343L49.6219 15.0153L50.0344 10.8212L50.3782 6.90221L50.7907 2.91443H10.0191L7.3377 31.1726H48.1093L48.5218 27.0474Z" fill="#002664"/>
<path d="M10.5691 22.9221L10.1566 23.8847H9.05653L9.88159 24.5722L9.46906 25.6036L10.3629 24.9848L11.1192 25.6036L10.9129 24.5722L11.8067 23.8847H10.7754L10.5691 22.9221Z" fill="white"/>
<path d="M10.0879 27.5974L9.67541 28.56H8.64408L9.40039 29.2475L8.98786 30.2101L9.88167 29.5913L10.7067 30.2101L10.4317 29.2475L11.3943 28.56H10.2942L10.0879 27.5974Z" fill="white"/>
<path d="M15.657 22.9221L15.2445 23.8847H14.2132L14.9695 24.5722L14.5569 25.6036L15.4508 24.9848L16.2758 25.6036L16.0008 24.5722L16.8946 23.8847H15.8633L15.657 22.9221Z" fill="white"/>
<path d="M15.2444 27.5974L14.7631 28.56H13.7318L14.5569 29.2475L14.1444 30.2101L15.0382 29.5913L15.7945 30.2101L15.5882 29.2475L16.482 28.56H15.4507L15.2444 27.5974Z" fill="white"/>
<path d="M20.7449 22.9221L20.3324 23.8847H19.3011L20.1261 24.5722L19.6448 25.6036L20.6074 24.9848L21.3637 25.6036L21.1574 24.5722L22.0512 23.8847H21.0199L20.7449 22.9221Z" fill="white"/>
<path d="M20.3323 27.5974L19.9198 28.56H18.8885L19.6448 29.2475L19.2322 30.2101L20.126 29.5913L20.8823 30.2101L20.6761 29.2475L21.5699 28.56H20.5386L20.3323 27.5974Z" fill="white"/>
<path d="M25.9015 22.9221L25.489 23.8847H24.4577L25.214 24.5722L24.8015 25.6036L25.6953 24.9848L26.4516 25.6036L26.2453 24.5722L27.1391 23.8847H26.1078L25.9015 22.9221Z" fill="white"/>
<path d="M25.4202 27.5974L25.0077 28.56H23.9763L24.7327 29.2475L24.3201 30.2101L25.2139 29.5913L26.039 30.2101L25.8327 29.2475L26.7265 28.56H25.6952L25.4202 27.5974Z" fill="white"/>
<path d="M30.9893 22.9221L30.5768 23.8847H29.5454L30.3017 24.5722L29.8892 25.6036L30.783 24.9848L31.6081 25.6036L31.3331 24.5722L32.2956 23.8847H31.1955L30.9893 22.9221Z" fill="white"/>
<path d="M30.5768 27.5974L30.1643 28.56H29.0642L29.8893 29.2475L29.4768 30.2101L30.3706 29.5913L31.1269 30.2101L30.9206 29.2475L31.8144 28.56H30.7831L30.5768 27.5974Z" fill="white"/>
<path d="M36.1459 22.9221L35.7334 23.8847H34.6333L35.4584 24.5722L35.0459 25.6036L35.9397 24.9848L36.696 25.6036L36.4897 24.5722L37.3835 23.8847H36.3522L36.1459 22.9221Z" fill="white"/>
<path d="M35.6647 27.5974L35.2522 28.56H34.2209L34.9772 29.2475L34.5646 30.2101L35.4585 29.5913L36.2835 30.2101L36.0085 29.2475L36.9023 28.56H35.871L35.6647 27.5974Z" fill="white"/>
<path d="M41.2338 22.9221L40.8213 23.8847H39.79L40.5463 24.5722L40.1337 25.6036L41.0275 24.9848L41.7838 25.6036L41.5776 24.5722L42.4714 23.8847H41.4401L41.2338 22.9221Z" fill="white"/>
<path d="M40.7526 27.5974L40.3401 28.56H39.3088L40.1338 29.2475L39.6525 30.2101L40.6151 29.5913L41.3714 30.2101L41.1651 29.2475L42.059 28.56H41.0276L40.7526 27.5974Z" fill="white"/>
<path d="M46.3217 22.9221L45.9092 23.8847H44.8778L45.6341 24.5722L45.2216 25.6036L46.1154 24.9848L46.9405 25.6036L46.7342 24.5722L47.628 23.8847H46.5967L46.3217 22.9221Z" fill="white"/>
<path d="M10.9817 18.2467L10.5692 19.278H9.53787L10.2942 19.8968L9.88164 20.9281L10.7755 20.3093L11.6005 20.9281L11.3255 19.8968L12.2881 19.278H11.2567L10.9817 18.2467Z" fill="white"/>
<path d="M16.1384 18.2467L15.7258 19.278H14.6258L15.4508 19.8968L15.0383 20.9281L15.9321 20.3093L16.6884 20.9281L16.4821 19.8968L17.376 19.278H16.3446L16.1384 18.2467Z" fill="white"/>
<path d="M21.2262 18.2467L20.8137 19.278H19.7824L20.5387 19.8968L20.1262 20.9281L21.02 20.3093L21.7763 20.9281L21.57 19.8968L22.4638 19.278H21.4325L21.2262 18.2467Z" fill="white"/>
<path d="M26.314 18.2467L25.9015 19.278H24.8701L25.6264 19.8968L25.2139 20.9281L26.1077 20.3093L26.9328 20.9281L26.7265 19.8968L27.6203 19.278H26.589L26.314 18.2467Z" fill="white"/>
<path d="M31.4706 18.2467L31.0581 19.278H30.0268L30.7831 19.8968L30.3705 20.9281L31.2644 20.3093L32.0207 20.9281L31.8144 19.8968L32.7082 19.278H31.6769L31.4706 18.2467Z" fill="white"/>
<path d="M36.5585 18.2467L36.146 19.278H35.1147L35.871 19.8968L35.4584 20.9281L36.3522 20.3093L37.1773 20.9281L36.9023 19.8968L37.8648 19.278H36.7648L36.5585 18.2467Z" fill="white"/>
<path d="M41.6463 18.2467L41.2337 19.278H40.2024L41.0275 19.8968L40.6149 20.9281L41.5087 20.3093L42.265 20.9281L42.0588 19.8968L42.9526 19.278H41.9213L41.6463 18.2467Z" fill="white"/>
<path d="M46.8029 18.2467L46.3904 19.278H45.359L46.1153 19.8968L45.7028 20.9281L46.5966 20.3093L47.3529 20.9281L47.1467 19.8968L48.0405 19.278H47.0092L46.8029 18.2467Z" fill="white"/>
<path d="M11.4631 13.5714L11.0505 14.6027H10.0192L10.7755 15.2215L10.363 16.2528L11.2568 15.6341L12.0131 16.2528L11.8068 15.2215L12.7006 14.6027H11.6693L11.4631 13.5714Z" fill="white"/>
<path d="M16.5508 13.5714L16.1383 14.6027H15.1069L15.8633 15.2215L15.4507 16.2528L16.3445 15.6341L17.1696 16.2528L16.8946 15.2215L17.8571 14.6027H16.7571L16.5508 13.5714Z" fill="white"/>
<path d="M21.7074 13.5714L21.2262 14.6027H20.1948L21.0199 15.2215L20.6074 16.2528L21.5012 15.6341L22.2575 16.2528L22.0512 15.2215L22.945 14.6027H21.9137L21.7074 13.5714Z" fill="white"/>
<path d="M26.7953 13.5714L26.3828 14.6027H25.3515L26.1078 15.2215L25.6952 16.2528L26.5891 15.6341L27.3454 16.2528L27.1391 15.2215L28.0329 14.6027H27.0016L26.7953 13.5714Z" fill="white"/>
<path d="M31.8832 13.5714L31.4707 14.6027H30.4394L31.1957 15.2215L30.7831 16.2528L31.6769 15.6341L32.502 16.2528L32.2957 15.2215L33.1895 14.6027H32.1582L31.8832 13.5714Z" fill="white"/>
<path d="M37.0399 13.5714L36.6273 14.6027H35.5273L36.3523 15.2215L35.9398 16.2528L36.8336 15.6341L37.5899 16.2528L37.3836 15.2215L38.2774 14.6027H37.2461L37.0399 13.5714Z" fill="white"/>
<path d="M42.1276 13.5714L41.7151 14.6027H40.6837L41.44 15.2215L41.0275 16.2528L41.9213 15.6341L42.6776 16.2528L42.4714 15.2215L43.3652 14.6027H42.3339L42.1276 13.5714Z" fill="white"/>
<path d="M47.2155 13.5714L46.8029 14.6027H45.7716L46.5967 15.2215L46.1154 16.2528L47.078 15.6341L47.8343 16.2528L47.628 15.2215L48.5218 14.6027H47.4905L47.2155 13.5714Z" fill="white"/>
<path d="M11.8755 8.89612L11.463 9.92744H10.4317L11.188 10.5462L10.7754 11.5776L11.6692 10.9588L12.4943 11.5776L12.288 10.5462L13.1818 9.92744H12.1505L11.8755 8.89612Z" fill="white"/>
<path d="M17.0321 8.89612L16.6196 9.92744H15.5195L16.3446 10.5462L15.9321 11.5776L16.8259 10.9588L17.5822 11.5776L17.3759 10.5462L18.2697 9.92744H17.2384L17.0321 8.89612Z" fill="white"/>
<path d="M22.12 8.89612L21.7075 9.92744H20.6762L21.4325 10.5462L21.0199 11.5776L21.9138 10.9588L22.7388 11.5776L22.4638 10.5462L23.3576 9.92744H22.3263L22.12 8.89612Z" fill="white"/>
<path d="M27.2078 8.89612L26.7952 9.92744H25.7639L26.589 10.5462L26.1077 11.5776L27.0703 10.9588L27.8266 11.5776L27.6203 10.5462L28.5141 9.92744H27.4828L27.2078 8.89612Z" fill="white"/>
<path d="M32.3644 8.89612L31.9519 9.92744H30.9206L31.6769 10.5462L31.2643 11.5776L32.1581 10.9588L32.9144 11.5776L32.7082 10.5462L33.602 9.92744H32.5707L32.3644 8.89612Z" fill="white"/>
<path d="M37.4523 8.89612L37.0398 9.92744H36.0084L36.7648 10.5462L36.3522 11.5776L37.246 10.9588L38.0711 11.5776L37.7961 10.5462L38.7586 9.92744H37.6586L37.4523 8.89612Z" fill="white"/>
<path d="M42.6089 8.89612L42.1964 9.92744H41.0963L41.9214 10.5462L41.5089 11.5776L42.4027 10.9588L43.159 11.5776L42.9527 10.5462L43.8465 9.92744H42.8152L42.6089 8.89612Z" fill="white"/>
<path d="M47.6968 8.89612L47.2843 9.92744H46.253L47.0093 10.5462L46.5967 11.5776L47.4906 10.9588L48.2469 11.5776L48.0406 10.5462L48.9344 9.92744H47.9031L47.6968 8.89612Z" fill="white"/>
<path d="M12.3568 4.22083L11.9443 5.25215H10.913L11.6693 5.87094L11.2568 6.90226L12.1506 6.28347L12.9069 6.90226L12.7006 5.87094L13.5944 5.25215H12.5631L12.3568 4.22083Z" fill="white"/>
<path d="M17.4447 4.22083L17.0322 5.25215H16.0009L16.7572 5.87094L16.3447 6.90226L17.2385 6.28347L18.0635 6.90226L17.7885 5.87094L18.7511 5.25215H17.7197L17.4447 4.22083Z" fill="white"/>
<path d="M22.6014 4.22083L22.1888 5.25215H21.0888L21.9138 5.87094L21.5013 6.90226L22.3951 6.28347L23.1514 6.90226L22.9451 5.87094L23.839 5.25215H22.8076L22.6014 4.22083Z" fill="white"/>
<path d="M27.6891 4.22083L27.2766 5.25215H26.2453L27.0016 5.87094L26.589 6.90226L27.4828 6.28347L28.2391 6.90226L28.0329 5.87094L28.9267 5.25215H27.8954L27.6891 4.22083Z" fill="white"/>
<path d="M32.777 4.22083L32.3645 5.25215H31.3331L32.0894 5.87094L31.6769 6.90226L32.5707 6.28347L33.3958 6.90226L33.1895 5.87094L34.0833 5.25215H33.052L32.777 4.22083Z" fill="white"/>
<path d="M37.9336 4.22083L37.5211 5.25215H36.4898L37.2461 5.87094L36.8336 6.90226L37.7274 6.28347L38.4837 6.90226L38.2774 5.87094L39.1712 5.25215H38.1399L37.9336 4.22083Z" fill="white"/>
<path d="M43.0214 4.22083L42.6088 5.25215H41.5775L42.3338 5.87094L41.9213 6.90226L42.8151 6.28347L43.6402 6.90226L43.3651 5.87094L44.3277 5.25215H43.2276L43.0214 4.22083Z" fill="white"/>
<path d="M48.1093 4.22083L47.6967 5.25215H46.6654L47.4905 5.87094L47.0779 6.90226L47.9718 6.28347L48.7281 6.90226L48.5218 5.87094L49.4156 5.25215H48.3843L48.1093 4.22083Z" fill="white"/>
<path d="M45.9091 27.5974L45.4966 28.56H44.4652L45.2215 29.2475L44.809 30.2101L45.7028 29.5913L46.4591 30.2101L46.2529 29.2475L47.1467 28.56H46.1154L45.9091 27.5974Z" fill="white"/>
</svg>
