<svg width="100" height="59" viewBox="0 0 100 59" fill="none" xmlns="http://www.w3.org/2000/svg">
<path d="M10.0191 2.90295H95L89.9809 55.1566H5L10.0191 2.90295Z" fill="#FF3300"/>
<path d="M26.1764 8.26586H23.8388L25.6264 9.64095L24.6638 11.8411L26.7265 10.466L28.5141 11.8411L28.0328 9.64095L30.0955 8.26586H27.6891L27.2078 5.99695L26.1764 8.26586ZM27.0015 7.37204L27.2765 8.67838H28.6516L27.4828 9.43469L27.7578 10.741L26.7265 9.91597L25.5577 10.741L26.1077 9.43469L25.0764 8.67838H26.4515L27.0015 7.37204Z" fill="#FFCC00"/>
<path d="M23.3575 14.9351L20.126 17.754L21.5699 19.3354L23.0825 17.9603C25.4889 20.6417 27.3453 22.7731 29.683 25.3858C30.3018 26.1421 31.6768 25.1108 30.9205 24.2857C28.4454 21.673 26.7953 19.7479 24.1826 16.9977L26.0389 15.2788L23.3575 14.9351Z" fill="#FFCC00"/>
<path d="M23.9503 26.166C29.7257 32.079 41.0702 21.422 28.6256 13.7214C37.3575 24.5847 27.6631 27.9537 24.5691 24.5847L24.4316 24.4472C24.2941 24.5847 24.1566 24.791 23.9503 24.9285C23.744 24.6534 23.3315 24.5847 23.1252 25.066C22.644 24.9972 22.3002 25.341 22.0939 25.8223C21.0626 26.4411 19.9625 26.9911 19.275 28.0224C18.8625 29.0538 19.4813 29.535 20.2376 29.4663C21.5439 28.9162 22.0252 27.8162 22.7815 26.8536C23.2627 26.7161 23.6753 26.5098 23.8128 26.0973" fill="#FFCC00"/>
</svg>
