<svg width="1000" height="454" viewBox="0 0 1000 454" fill="none" xmlns="http://www.w3.org/2000/svg"><script xmlns="" type="text/javascript" src="moz-extension://8b0824eb-cf8d-41e6-8bb8-4c50a58b5409/dist/inject.js"/>
<g filter="url(#filter0_d_69_187)">
<path fill-rule="evenodd" clip-rule="evenodd" d="M364.08 185.22H335.16C324.25 185.22 299.47 199.61 299.47 223.3V334.77C299.47 345.02 304.36 354.84 313.24 362.45C321.24 369.3 330.24 372.45 335.14 372.45H364.09C374.98 372.45 399.76 358.23 399.76 334.8V278.65H349.45V308.75H359.22V337C359.225 337.986 358.84 338.934 358.148 339.636C357.457 340.339 356.516 340.739 355.53 340.75H343.76C343.266 340.753 342.777 340.657 342.32 340.47C341.863 340.283 341.448 340.007 341.099 339.658C340.749 339.309 340.472 338.895 340.283 338.439C340.095 337.983 339.998 337.494 340 337V220.59C340.01 219.593 340.415 218.64 341.124 217.939C341.834 217.239 342.792 216.847 343.79 216.85H355.45C356.445 216.85 357.401 217.243 358.109 217.943C358.816 218.643 359.219 219.594 359.23 220.59V254.59H399.77V223.27C399.75 199.57 375 185.22 364.08 185.22Z" fill="white"/>
</g>
<g filter="url(#filter1_d_69_187)">
<path fill-rule="evenodd" clip-rule="evenodd" d="M121.41 201.35L81.0601 184.65V370.9H161.47V336.66H121.41V201.35Z" fill="white"/>
</g>
<g filter="url(#filter2_d_69_187)">
<path fill-rule="evenodd" clip-rule="evenodd" d="M430.77 370.9H517.29V336.7H471.13V293.87H509.21V263.73H471.13V220.89H517.29V186.71H430.77V370.9Z" fill="white"/>
</g>
<g filter="url(#filter3_d_69_187)">
<path fill-rule="evenodd" clip-rule="evenodd" d="M186.28 370.9H272.8V336.7H226.65V293.87H264.71V263.73H226.65V220.89H272.8V186.71H186.28V370.9Z" fill="white"/>
</g>
<g filter="url(#filter4_d_69_187)">
<path fill-rule="evenodd" clip-rule="evenodd" d="M905 273.94L864.4 257.79C859.74 255.96 859.74 255.05 859.74 251.19V220.56C859.748 219.563 860.15 218.609 860.858 217.906C861.566 217.204 862.523 216.81 863.52 216.81H875.18C876.172 216.818 877.121 217.215 877.823 217.917C878.525 218.619 878.922 219.568 878.93 220.56V254.56H919.47V223.27C919.47 199.54 894.69 185.18 883.78 185.18H854.88C843.99 185.18 819.2 199.57 819.2 223.27V261.2C819.2 272.5 823.93 279.87 833.67 283.74L874.82 300C879 301.83 879 301.83 879 306.31V337.09C878.995 338.086 878.595 339.04 877.889 339.743C877.182 340.445 876.226 340.84 875.23 340.84H863.52C862.523 340.84 861.566 340.446 860.858 339.743C860.15 339.041 859.748 338.087 859.74 337.09V303.09H819.17V334.38C819.17 358.1 843.96 372.47 854.85 372.47H883.8C894.8 372.47 919.48 358.08 919.48 334.38V296.53C919.53 285.51 914.51 277.72 905 273.94Z" fill="white"/>
</g>
<g filter="url(#filter5_d_69_187)">
<path fill-rule="evenodd" clip-rule="evenodd" d="M752.83 186.67H688.4V370.86H752.83C763.56 370.86 788.7 358.61 788.7 334.86V222.53C788.7 198.9 763.56 186.67 752.83 186.67ZM748.4 336.89C748.4 337.893 748.002 338.854 747.293 339.563C746.584 340.272 745.623 340.67 744.62 340.67H728.71V216.81H744.61C745.611 216.813 746.571 217.21 747.28 217.916C747.99 218.622 748.392 219.579 748.4 220.58V336.89Z" fill="white"/>
</g>
<g filter="url(#filter6_d_69_187)">
<path fill-rule="evenodd" clip-rule="evenodd" d="M614.13 270.29L587.03 186.67L587 186.56H546.67V370.75H587.04V287.11L614.14 370.64L614.18 370.75H654.45V186.56H614.13V270.29Z" fill="white"/>
</g>
<g filter="url(#filter7_d_69_187)">
<path fill-rule="evenodd" clip-rule="evenodd" d="M888 163H899.81C904.21 163 914.3 157.12 914.3 147.49V132C914.3 127.6 912.3 124.43 908.44 122.88L891.87 116.3C889.92 115.53 889.92 115.12 889.92 113.56V101.06C889.927 100.637 890.1 100.234 890.401 99.9374C890.702 99.6403 891.107 99.4726 891.53 99.4701H896.29C896.712 99.47 897.118 99.6372 897.417 99.9351C897.717 100.233 897.887 100.637 897.89 101.06V114.85H914.32V102.19C914.32 92.6001 904.23 86.6801 899.83 86.6801H888.06C883.66 86.6801 873.57 92.5601 873.57 102.19V117.65C873.57 122.12 875.4 125.2 879.44 126.77L896.21 133.44C897.96 134.2 897.95 134.2 897.95 136.1V148.63C897.95 149.052 897.782 149.456 897.484 149.754C897.186 150.053 896.781 150.22 896.36 150.22H891.58C891.157 150.22 890.751 150.053 890.452 149.755C890.152 149.457 889.982 149.053 889.98 148.63V134.83H873.56V147.53C873.56 157.13 883.65 163 888 163Z" fill="white"/>
</g>
<g filter="url(#filter8_d_69_187)">
<path fill-rule="evenodd" clip-rule="evenodd" d="M843 130.92H852.94C857.35 130.92 867.53 126.16 867.53 116.39V102C867.53 92.45 857.36 87.4 852.94 87.4H826.66V162.4H843V130.92ZM843 99.56H849.53C849.746 99.5574 849.96 99.5976 850.16 99.6783C850.36 99.759 850.542 99.8787 850.696 100.03C850.849 100.182 850.971 100.363 851.054 100.562C851.137 100.761 851.18 100.974 851.18 101.19V117.12C851.18 117.552 851.008 117.967 850.703 118.273C850.397 118.578 849.982 118.75 849.55 118.75H843V99.56Z" fill="white"/>
</g>
<g filter="url(#filter9_d_69_187)">
<path fill-rule="evenodd" clip-rule="evenodd" d="M705.08 162.33L699.23 126.83C700.812 125.571 702.096 123.977 702.989 122.164C703.883 120.35 704.365 118.362 704.4 116.34V101.94C704.4 92.38 694.23 87.34 689.8 87.34H663.59V162.34H679.91V130.92H684.48L689.61 162.33H705.08ZM688.08 101.16V117.16C688.077 117.583 687.907 117.987 687.608 118.285C687.308 118.583 686.902 118.75 686.48 118.75H679.9V99.56H686.45C686.878 99.5573 687.289 99.7241 687.595 100.024C687.9 100.324 688.075 100.732 688.08 101.16Z" fill="white"/>
</g>
<g filter="url(#filter10_d_69_187)">
<path fill-rule="evenodd" clip-rule="evenodd" d="M724.92 163H736.73C741.13 163 751.22 157.12 751.22 147.49V132.06C751.22 127.67 749.22 124.49 745.36 122.94L728.79 116.36C726.85 115.6 726.85 115.19 726.85 113.63V101.13C726.853 100.707 727.023 100.303 727.323 100.005C727.622 99.7072 728.028 99.54 728.45 99.54H733.25C733.461 99.5387 733.669 99.5787 733.863 99.6579C734.058 99.7371 734.235 99.8539 734.385 100.002C734.534 100.149 734.653 100.325 734.735 100.518C734.816 100.712 734.859 100.92 734.86 101.13V114.91H751.28V102.19C751.28 92.6 741.19 86.73 736.79 86.73H724.93C720.53 86.73 710.44 92.6 710.44 102.19V117.7C710.5 122.11 712.36 125.22 716.35 126.77L733.12 133.43C734.87 134.19 734.87 134.19 734.87 136.09V148.62C734.868 148.83 734.824 149.038 734.741 149.231C734.658 149.424 734.538 149.599 734.388 149.746C734.237 149.892 734.059 150.008 733.864 150.086C733.669 150.164 733.461 150.203 733.25 150.2H728.51C728.3 150.207 728.091 150.172 727.894 150.098C727.698 150.023 727.517 149.911 727.364 149.767C727.211 149.623 727.088 149.45 727.001 149.259C726.915 149.067 726.867 148.86 726.86 148.65V134.82H710.44V147.52C710.44 157.12 720.53 163 724.92 163Z" fill="white"/>
</g>
<g filter="url(#filter11_d_69_187)">
<path d="M820.57 87.34H804.23V162.33H820.57V87.34Z" fill="white"/>
</g>
<g filter="url(#filter12_d_69_187)">
<path fill-rule="evenodd" clip-rule="evenodd" d="M781.84 118.75H773.71V87.34H757.37V162.33H773.71V130.92H781.84V162.33H798.15V87.34H781.84V118.75Z" fill="white"/>
</g>
<g filter="url(#filter13_d_69_187)">
<path fill-rule="evenodd" clip-rule="evenodd" d="M382.18 148.5H365.84V87.34H349.52V162.33H382.18V148.5Z" fill="white"/>
</g>
<g filter="url(#filter14_d_69_187)">
<path fill-rule="evenodd" clip-rule="evenodd" d="M282 86.6801H270.23C265.83 86.6801 255.74 92.5601 255.74 102.19V147.67C255.74 157.26 265.83 162.97 270.23 162.97H282C286.39 162.97 296.49 157.26 296.49 147.67V102.19C296.53 92.6001 286.43 86.6801 282 86.6801ZM280.07 148.53C280.074 148.736 280.038 148.941 279.962 149.133C279.887 149.325 279.775 149.501 279.632 149.649C279.489 149.798 279.318 149.917 279.129 149.999C278.94 150.082 278.736 150.126 278.53 150.13H273.7C273.278 150.127 272.873 149.958 272.575 149.658C272.277 149.358 272.11 148.953 272.11 148.53V101.09C272.113 100.667 272.283 100.263 272.582 99.9651C272.882 99.6672 273.288 99.5 273.71 99.5001H278.48C278.902 99.5026 279.306 99.6707 279.605 99.968C279.904 100.265 280.075 100.668 280.08 101.09L280.07 148.53Z" fill="white"/>
</g>
<g filter="url(#filter15_d_69_187)">
<path fill-rule="evenodd" clip-rule="evenodd" d="M318.93 130.92H323.5L328.62 162.33H344.13L338.26 126.83C339.842 125.571 341.126 123.977 342.02 122.164C342.914 120.35 343.395 118.362 343.43 116.34V101.94C343.43 92.38 333.26 87.34 328.83 87.34H302.61V162.34H318.93V130.92ZM318.93 99.56H325.48C325.693 99.5573 325.903 99.5967 326.1 99.6758C326.297 99.7549 326.477 99.8722 326.628 100.021C326.78 100.17 326.9 100.347 326.983 100.542C327.066 100.738 327.109 100.948 327.11 101.16V117.16C327.108 117.583 326.938 117.987 326.638 118.285C326.338 118.583 325.933 118.75 325.51 118.75H318.93V99.56Z" fill="white"/>
</g>
<g filter="url(#filter16_d_69_187)">
<path fill-rule="evenodd" clip-rule="evenodd" d="M214.72 162.33L218.83 126.17L222.94 162.33H243.41L251.49 87.34H236.02L230.54 138.27L224.86 87.34H212.84L207.16 138.27L201.68 87.34H186.17L194.26 162.33H214.72Z" fill="white"/>
</g>
<g filter="url(#filter17_d_69_187)">
<path fill-rule="evenodd" clip-rule="evenodd" d="M414.48 87.34H388.26V162.34H414.48C418.88 162.34 429.07 157.34 429.07 147.74V101.94C429.05 92.3 418.88 87.34 414.48 87.34ZM412.71 148.56C412.71 148.771 412.668 148.981 412.587 149.176C412.506 149.371 412.388 149.549 412.238 149.698C412.089 149.848 411.911 149.966 411.716 150.047C411.521 150.128 411.311 150.17 411.1 150.17H404.55V99.51H411.1C411.523 99.5099 411.93 99.6768 412.231 99.9744C412.533 100.272 412.704 100.676 412.71 101.1V148.56Z" fill="white"/>
</g>
<g filter="url(#filter18_d_69_187)">
<path fill-rule="evenodd" clip-rule="evenodd" d="M465.31 163H477.11C481.51 163 491.6 157.29 491.6 147.7V102.19C491.6 92.6001 481.51 86.6801 477.11 86.6801H465.31C460.91 86.6801 450.82 92.5601 450.82 102.19V147.67C450.82 157.25 460.91 163 465.31 163ZM467.22 101.18C467.222 100.97 467.264 100.762 467.346 100.569C467.428 100.375 467.546 100.199 467.696 100.052C467.845 99.904 468.023 99.7872 468.217 99.708C468.412 99.6288 468.62 99.5887 468.83 99.59H473.58C473.791 99.5861 474.001 99.6239 474.197 99.7012C474.393 99.7786 474.573 99.8941 474.724 100.041C474.876 100.188 474.997 100.363 475.08 100.557C475.163 100.751 475.208 100.959 475.21 101.17V148.61C475.21 149.033 475.043 149.438 474.745 149.738C474.447 150.038 474.043 150.207 473.62 150.21H468.83C468.415 150.215 468.014 150.057 467.714 149.769C467.415 149.48 467.241 149.086 467.23 148.67V101.14L467.22 101.18Z" fill="white"/>
</g>
<g filter="url(#filter19_d_69_187)">
<path fill-rule="evenodd" clip-rule="evenodd" d="M624.68 87.34L616.62 162.34H632.09L634 144.74H643.37L645.27 162.33H660.73L652.64 87.33L624.68 87.34ZM635.44 130.92L638.63 101.15L641.83 130.92H635.44Z" fill="white"/>
</g>
<g filter="url(#filter20_d_69_187)">
<path fill-rule="evenodd" clip-rule="evenodd" d="M497.71 162.33H514.04V130.92H528.45V118.75H514.03V101.15H532.85V87.34H497.71V162.33Z" fill="white"/>
</g>
<g filter="url(#filter21_d_69_187)">
<path fill-rule="evenodd" clip-rule="evenodd" d="M580.76 162.33L584.85 126.13L588.95 162.29H609.41L617.53 87.3H602.02L596.55 138.23L590.87 87.3H578.85L573.16 138.27L567.68 87.34H552.17L560.26 162.33H580.76Z" fill="white"/>
</g>
<g filter="url(#filter22_d_69_187)">
<path fill-rule="evenodd" clip-rule="evenodd" d="M81.0601 162.31L121.43 179L161.8 162.34V80.52H81.0601V162.31ZM87.9001 87.31H155V157.77L121.46 171.59L87.9001 157.77V87.31Z" fill="white"/>
</g>
<g filter="url(#filter23_d_69_187)">
<path fill-rule="evenodd" clip-rule="evenodd" d="M148.21 153.19V124.61L134.93 130.09V144.3L128.1 147.11V124.13H131.51L141.4 120.05V110.83H128.1V107.43L134.58 103.36V94.15H108.35V103.35L114.83 107.43V110.83H101.53V120.06L111.41 124.13H114.83V147.11L108 144.3V130.09L94.7202 124.61V153.2L121.46 164.23L148.21 153.19Z" fill="white"/>
</g>
<defs>
<filter id="filter0_d_69_187" x="289.47" y="175.22" width="120.3" height="207.23" filterUnits="userSpaceOnUse" color-interpolation-filters="sRGB">
<feFlood flood-opacity="0" result="BackgroundImageFix"/>
<feColorMatrix in="SourceAlpha" type="matrix" values="0 0 0 0 0 0 0 0 0 0 0 0 0 0 0 0 0 0 127 0" result="hardAlpha"/>
<feOffset/>
<feGaussianBlur stdDeviation="5"/>
<feComposite in2="hardAlpha" operator="out"/>
<feColorMatrix type="matrix" values="0 0 0 0 0.0666667 0 0 0 0 0.145098 0 0 0 0 0.207843 0 0 0 0.5 0"/>
<feBlend mode="normal" in2="BackgroundImageFix" result="effect1_dropShadow_69_187"/>
<feBlend mode="normal" in="SourceGraphic" in2="effect1_dropShadow_69_187" result="shape"/>
</filter>
<filter id="filter1_d_69_187" x="71.0601" y="174.65" width="100.41" height="206.25" filterUnits="userSpaceOnUse" color-interpolation-filters="sRGB">
<feFlood flood-opacity="0" result="BackgroundImageFix"/>
<feColorMatrix in="SourceAlpha" type="matrix" values="0 0 0 0 0 0 0 0 0 0 0 0 0 0 0 0 0 0 127 0" result="hardAlpha"/>
<feOffset/>
<feGaussianBlur stdDeviation="5"/>
<feComposite in2="hardAlpha" operator="out"/>
<feColorMatrix type="matrix" values="0 0 0 0 0.0666667 0 0 0 0 0.145098 0 0 0 0 0.207843 0 0 0 0.5 0"/>
<feBlend mode="normal" in2="BackgroundImageFix" result="effect1_dropShadow_69_187"/>
<feBlend mode="normal" in="SourceGraphic" in2="effect1_dropShadow_69_187" result="shape"/>
</filter>
<filter id="filter2_d_69_187" x="420.77" y="176.71" width="106.52" height="204.19" filterUnits="userSpaceOnUse" color-interpolation-filters="sRGB">
<feFlood flood-opacity="0" result="BackgroundImageFix"/>
<feColorMatrix in="SourceAlpha" type="matrix" values="0 0 0 0 0 0 0 0 0 0 0 0 0 0 0 0 0 0 127 0" result="hardAlpha"/>
<feOffset/>
<feGaussianBlur stdDeviation="5"/>
<feComposite in2="hardAlpha" operator="out"/>
<feColorMatrix type="matrix" values="0 0 0 0 0.0666667 0 0 0 0 0.145098 0 0 0 0 0.207843 0 0 0 0.5 0"/>
<feBlend mode="normal" in2="BackgroundImageFix" result="effect1_dropShadow_69_187"/>
<feBlend mode="normal" in="SourceGraphic" in2="effect1_dropShadow_69_187" result="shape"/>
</filter>
<filter id="filter3_d_69_187" x="176.28" y="176.71" width="106.52" height="204.19" filterUnits="userSpaceOnUse" color-interpolation-filters="sRGB">
<feFlood flood-opacity="0" result="BackgroundImageFix"/>
<feColorMatrix in="SourceAlpha" type="matrix" values="0 0 0 0 0 0 0 0 0 0 0 0 0 0 0 0 0 0 127 0" result="hardAlpha"/>
<feOffset/>
<feGaussianBlur stdDeviation="5"/>
<feComposite in2="hardAlpha" operator="out"/>
<feColorMatrix type="matrix" values="0 0 0 0 0.0666667 0 0 0 0 0.145098 0 0 0 0 0.207843 0 0 0 0.5 0"/>
<feBlend mode="normal" in2="BackgroundImageFix" result="effect1_dropShadow_69_187"/>
<feBlend mode="normal" in="SourceGraphic" in2="effect1_dropShadow_69_187" result="shape"/>
</filter>
<filter id="filter4_d_69_187" x="809.17" y="175.18" width="120.311" height="207.29" filterUnits="userSpaceOnUse" color-interpolation-filters="sRGB">
<feFlood flood-opacity="0" result="BackgroundImageFix"/>
<feColorMatrix in="SourceAlpha" type="matrix" values="0 0 0 0 0 0 0 0 0 0 0 0 0 0 0 0 0 0 127 0" result="hardAlpha"/>
<feOffset/>
<feGaussianBlur stdDeviation="5"/>
<feComposite in2="hardAlpha" operator="out"/>
<feColorMatrix type="matrix" values="0 0 0 0 0.0666667 0 0 0 0 0.145098 0 0 0 0 0.207843 0 0 0 0.5 0"/>
<feBlend mode="normal" in2="BackgroundImageFix" result="effect1_dropShadow_69_187"/>
<feBlend mode="normal" in="SourceGraphic" in2="effect1_dropShadow_69_187" result="shape"/>
</filter>
<filter id="filter5_d_69_187" x="678.4" y="176.67" width="120.3" height="204.19" filterUnits="userSpaceOnUse" color-interpolation-filters="sRGB">
<feFlood flood-opacity="0" result="BackgroundImageFix"/>
<feColorMatrix in="SourceAlpha" type="matrix" values="0 0 0 0 0 0 0 0 0 0 0 0 0 0 0 0 0 0 127 0" result="hardAlpha"/>
<feOffset/>
<feGaussianBlur stdDeviation="5"/>
<feComposite in2="hardAlpha" operator="out"/>
<feColorMatrix type="matrix" values="0 0 0 0 0.0666667 0 0 0 0 0.145098 0 0 0 0 0.207843 0 0 0 0.5 0"/>
<feBlend mode="normal" in2="BackgroundImageFix" result="effect1_dropShadow_69_187"/>
<feBlend mode="normal" in="SourceGraphic" in2="effect1_dropShadow_69_187" result="shape"/>
</filter>
<filter id="filter6_d_69_187" x="536.67" y="176.56" width="127.78" height="204.19" filterUnits="userSpaceOnUse" color-interpolation-filters="sRGB">
<feFlood flood-opacity="0" result="BackgroundImageFix"/>
<feColorMatrix in="SourceAlpha" type="matrix" values="0 0 0 0 0 0 0 0 0 0 0 0 0 0 0 0 0 0 127 0" result="hardAlpha"/>
<feOffset/>
<feGaussianBlur stdDeviation="5"/>
<feComposite in2="hardAlpha" operator="out"/>
<feColorMatrix type="matrix" values="0 0 0 0 0.0666667 0 0 0 0 0.145098 0 0 0 0 0.207843 0 0 0 0.5 0"/>
<feBlend mode="normal" in2="BackgroundImageFix" result="effect1_dropShadow_69_187"/>
<feBlend mode="normal" in="SourceGraphic" in2="effect1_dropShadow_69_187" result="shape"/>
</filter>
<filter id="filter7_d_69_187" x="863.56" y="76.6801" width="60.7598" height="96.3199" filterUnits="userSpaceOnUse" color-interpolation-filters="sRGB">
<feFlood flood-opacity="0" result="BackgroundImageFix"/>
<feColorMatrix in="SourceAlpha" type="matrix" values="0 0 0 0 0 0 0 0 0 0 0 0 0 0 0 0 0 0 127 0" result="hardAlpha"/>
<feOffset/>
<feGaussianBlur stdDeviation="5"/>
<feComposite in2="hardAlpha" operator="out"/>
<feColorMatrix type="matrix" values="0 0 0 0 0.0666667 0 0 0 0 0.145098 0 0 0 0 0.207843 0 0 0 0.5 0"/>
<feBlend mode="normal" in2="BackgroundImageFix" result="effect1_dropShadow_69_187"/>
<feBlend mode="normal" in="SourceGraphic" in2="effect1_dropShadow_69_187" result="shape"/>
</filter>
<filter id="filter8_d_69_187" x="816.66" y="77.4" width="60.8701" height="95" filterUnits="userSpaceOnUse" color-interpolation-filters="sRGB">
<feFlood flood-opacity="0" result="BackgroundImageFix"/>
<feColorMatrix in="SourceAlpha" type="matrix" values="0 0 0 0 0 0 0 0 0 0 0 0 0 0 0 0 0 0 127 0" result="hardAlpha"/>
<feOffset/>
<feGaussianBlur stdDeviation="5"/>
<feComposite in2="hardAlpha" operator="out"/>
<feColorMatrix type="matrix" values="0 0 0 0 0.0666667 0 0 0 0 0.145098 0 0 0 0 0.207843 0 0 0 0.5 0"/>
<feBlend mode="normal" in2="BackgroundImageFix" result="effect1_dropShadow_69_187"/>
<feBlend mode="normal" in="SourceGraphic" in2="effect1_dropShadow_69_187" result="shape"/>
</filter>
<filter id="filter9_d_69_187" x="653.59" y="77.34" width="61.4902" height="95" filterUnits="userSpaceOnUse" color-interpolation-filters="sRGB">
<feFlood flood-opacity="0" result="BackgroundImageFix"/>
<feColorMatrix in="SourceAlpha" type="matrix" values="0 0 0 0 0 0 0 0 0 0 0 0 0 0 0 0 0 0 127 0" result="hardAlpha"/>
<feOffset/>
<feGaussianBlur stdDeviation="5"/>
<feComposite in2="hardAlpha" operator="out"/>
<feColorMatrix type="matrix" values="0 0 0 0 0.0666667 0 0 0 0 0.145098 0 0 0 0 0.207843 0 0 0 0.5 0"/>
<feBlend mode="normal" in2="BackgroundImageFix" result="effect1_dropShadow_69_187"/>
<feBlend mode="normal" in="SourceGraphic" in2="effect1_dropShadow_69_187" result="shape"/>
</filter>
<filter id="filter10_d_69_187" x="700.44" y="76.73" width="60.8398" height="96.27" filterUnits="userSpaceOnUse" color-interpolation-filters="sRGB">
<feFlood flood-opacity="0" result="BackgroundImageFix"/>
<feColorMatrix in="SourceAlpha" type="matrix" values="0 0 0 0 0 0 0 0 0 0 0 0 0 0 0 0 0 0 127 0" result="hardAlpha"/>
<feOffset/>
<feGaussianBlur stdDeviation="5"/>
<feComposite in2="hardAlpha" operator="out"/>
<feColorMatrix type="matrix" values="0 0 0 0 0.0666667 0 0 0 0 0.145098 0 0 0 0 0.207843 0 0 0 0.5 0"/>
<feBlend mode="normal" in2="BackgroundImageFix" result="effect1_dropShadow_69_187"/>
<feBlend mode="normal" in="SourceGraphic" in2="effect1_dropShadow_69_187" result="shape"/>
</filter>
<filter id="filter11_d_69_187" x="794.23" y="77.34" width="36.3398" height="94.99" filterUnits="userSpaceOnUse" color-interpolation-filters="sRGB">
<feFlood flood-opacity="0" result="BackgroundImageFix"/>
<feColorMatrix in="SourceAlpha" type="matrix" values="0 0 0 0 0 0 0 0 0 0 0 0 0 0 0 0 0 0 127 0" result="hardAlpha"/>
<feOffset/>
<feGaussianBlur stdDeviation="5"/>
<feComposite in2="hardAlpha" operator="out"/>
<feColorMatrix type="matrix" values="0 0 0 0 0.0666667 0 0 0 0 0.145098 0 0 0 0 0.207843 0 0 0 0.5 0"/>
<feBlend mode="normal" in2="BackgroundImageFix" result="effect1_dropShadow_69_187"/>
<feBlend mode="normal" in="SourceGraphic" in2="effect1_dropShadow_69_187" result="shape"/>
</filter>
<filter id="filter12_d_69_187" x="747.37" y="77.34" width="60.7803" height="94.99" filterUnits="userSpaceOnUse" color-interpolation-filters="sRGB">
<feFlood flood-opacity="0" result="BackgroundImageFix"/>
<feColorMatrix in="SourceAlpha" type="matrix" values="0 0 0 0 0 0 0 0 0 0 0 0 0 0 0 0 0 0 127 0" result="hardAlpha"/>
<feOffset/>
<feGaussianBlur stdDeviation="5"/>
<feComposite in2="hardAlpha" operator="out"/>
<feColorMatrix type="matrix" values="0 0 0 0 0.0666667 0 0 0 0 0.145098 0 0 0 0 0.207843 0 0 0 0.5 0"/>
<feBlend mode="normal" in2="BackgroundImageFix" result="effect1_dropShadow_69_187"/>
<feBlend mode="normal" in="SourceGraphic" in2="effect1_dropShadow_69_187" result="shape"/>
</filter>
<filter id="filter13_d_69_187" x="339.52" y="77.34" width="52.6602" height="94.99" filterUnits="userSpaceOnUse" color-interpolation-filters="sRGB">
<feFlood flood-opacity="0" result="BackgroundImageFix"/>
<feColorMatrix in="SourceAlpha" type="matrix" values="0 0 0 0 0 0 0 0 0 0 0 0 0 0 0 0 0 0 127 0" result="hardAlpha"/>
<feOffset/>
<feGaussianBlur stdDeviation="5"/>
<feComposite in2="hardAlpha" operator="out"/>
<feColorMatrix type="matrix" values="0 0 0 0 0.0666667 0 0 0 0 0.145098 0 0 0 0 0.207843 0 0 0 0.5 0"/>
<feBlend mode="normal" in2="BackgroundImageFix" result="effect1_dropShadow_69_187"/>
<feBlend mode="normal" in="SourceGraphic" in2="effect1_dropShadow_69_187" result="shape"/>
</filter>
<filter id="filter14_d_69_187" x="245.74" y="76.6801" width="60.75" height="96.29" filterUnits="userSpaceOnUse" color-interpolation-filters="sRGB">
<feFlood flood-opacity="0" result="BackgroundImageFix"/>
<feColorMatrix in="SourceAlpha" type="matrix" values="0 0 0 0 0 0 0 0 0 0 0 0 0 0 0 0 0 0 127 0" result="hardAlpha"/>
<feOffset/>
<feGaussianBlur stdDeviation="5"/>
<feComposite in2="hardAlpha" operator="out"/>
<feColorMatrix type="matrix" values="0 0 0 0 0.0666667 0 0 0 0 0.145098 0 0 0 0 0.207843 0 0 0 0.5 0"/>
<feBlend mode="normal" in2="BackgroundImageFix" result="effect1_dropShadow_69_187"/>
<feBlend mode="normal" in="SourceGraphic" in2="effect1_dropShadow_69_187" result="shape"/>
</filter>
<filter id="filter15_d_69_187" x="292.61" y="77.34" width="61.5205" height="95" filterUnits="userSpaceOnUse" color-interpolation-filters="sRGB">
<feFlood flood-opacity="0" result="BackgroundImageFix"/>
<feColorMatrix in="SourceAlpha" type="matrix" values="0 0 0 0 0 0 0 0 0 0 0 0 0 0 0 0 0 0 127 0" result="hardAlpha"/>
<feOffset/>
<feGaussianBlur stdDeviation="5"/>
<feComposite in2="hardAlpha" operator="out"/>
<feColorMatrix type="matrix" values="0 0 0 0 0.0666667 0 0 0 0 0.145098 0 0 0 0 0.207843 0 0 0 0.5 0"/>
<feBlend mode="normal" in2="BackgroundImageFix" result="effect1_dropShadow_69_187"/>
<feBlend mode="normal" in="SourceGraphic" in2="effect1_dropShadow_69_187" result="shape"/>
</filter>
<filter id="filter16_d_69_187" x="176.17" y="77.34" width="85.3203" height="94.99" filterUnits="userSpaceOnUse" color-interpolation-filters="sRGB">
<feFlood flood-opacity="0" result="BackgroundImageFix"/>
<feColorMatrix in="SourceAlpha" type="matrix" values="0 0 0 0 0 0 0 0 0 0 0 0 0 0 0 0 0 0 127 0" result="hardAlpha"/>
<feOffset/>
<feGaussianBlur stdDeviation="5"/>
<feComposite in2="hardAlpha" operator="out"/>
<feColorMatrix type="matrix" values="0 0 0 0 0.0666667 0 0 0 0 0.145098 0 0 0 0 0.207843 0 0 0 0.5 0"/>
<feBlend mode="normal" in2="BackgroundImageFix" result="effect1_dropShadow_69_187"/>
<feBlend mode="normal" in="SourceGraphic" in2="effect1_dropShadow_69_187" result="shape"/>
</filter>
<filter id="filter17_d_69_187" x="378.26" y="77.34" width="60.8096" height="95" filterUnits="userSpaceOnUse" color-interpolation-filters="sRGB">
<feFlood flood-opacity="0" result="BackgroundImageFix"/>
<feColorMatrix in="SourceAlpha" type="matrix" values="0 0 0 0 0 0 0 0 0 0 0 0 0 0 0 0 0 0 127 0" result="hardAlpha"/>
<feOffset/>
<feGaussianBlur stdDeviation="5"/>
<feComposite in2="hardAlpha" operator="out"/>
<feColorMatrix type="matrix" values="0 0 0 0 0.0666667 0 0 0 0 0.145098 0 0 0 0 0.207843 0 0 0 0.5 0"/>
<feBlend mode="normal" in2="BackgroundImageFix" result="effect1_dropShadow_69_187"/>
<feBlend mode="normal" in="SourceGraphic" in2="effect1_dropShadow_69_187" result="shape"/>
</filter>
<filter id="filter18_d_69_187" x="440.82" y="76.6801" width="60.7803" height="96.3199" filterUnits="userSpaceOnUse" color-interpolation-filters="sRGB">
<feFlood flood-opacity="0" result="BackgroundImageFix"/>
<feColorMatrix in="SourceAlpha" type="matrix" values="0 0 0 0 0 0 0 0 0 0 0 0 0 0 0 0 0 0 127 0" result="hardAlpha"/>
<feOffset/>
<feGaussianBlur stdDeviation="5"/>
<feComposite in2="hardAlpha" operator="out"/>
<feColorMatrix type="matrix" values="0 0 0 0 0.0666667 0 0 0 0 0.145098 0 0 0 0 0.207843 0 0 0 0.5 0"/>
<feBlend mode="normal" in2="BackgroundImageFix" result="effect1_dropShadow_69_187"/>
<feBlend mode="normal" in="SourceGraphic" in2="effect1_dropShadow_69_187" result="shape"/>
</filter>
<filter id="filter19_d_69_187" x="606.62" y="77.33" width="64.1104" height="95.01" filterUnits="userSpaceOnUse" color-interpolation-filters="sRGB">
<feFlood flood-opacity="0" result="BackgroundImageFix"/>
<feColorMatrix in="SourceAlpha" type="matrix" values="0 0 0 0 0 0 0 0 0 0 0 0 0 0 0 0 0 0 127 0" result="hardAlpha"/>
<feOffset/>
<feGaussianBlur stdDeviation="5"/>
<feComposite in2="hardAlpha" operator="out"/>
<feColorMatrix type="matrix" values="0 0 0 0 0.0666667 0 0 0 0 0.145098 0 0 0 0 0.207843 0 0 0 0.5 0"/>
<feBlend mode="normal" in2="BackgroundImageFix" result="effect1_dropShadow_69_187"/>
<feBlend mode="normal" in="SourceGraphic" in2="effect1_dropShadow_69_187" result="shape"/>
</filter>
<filter id="filter20_d_69_187" x="487.71" y="77.34" width="55.1396" height="94.99" filterUnits="userSpaceOnUse" color-interpolation-filters="sRGB">
<feFlood flood-opacity="0" result="BackgroundImageFix"/>
<feColorMatrix in="SourceAlpha" type="matrix" values="0 0 0 0 0 0 0 0 0 0 0 0 0 0 0 0 0 0 127 0" result="hardAlpha"/>
<feOffset/>
<feGaussianBlur stdDeviation="5"/>
<feComposite in2="hardAlpha" operator="out"/>
<feColorMatrix type="matrix" values="0 0 0 0 0.0666667 0 0 0 0 0.145098 0 0 0 0 0.207843 0 0 0 0.5 0"/>
<feBlend mode="normal" in2="BackgroundImageFix" result="effect1_dropShadow_69_187"/>
<feBlend mode="normal" in="SourceGraphic" in2="effect1_dropShadow_69_187" result="shape"/>
</filter>
<filter id="filter21_d_69_187" x="542.17" y="77.3" width="85.3604" height="95.03" filterUnits="userSpaceOnUse" color-interpolation-filters="sRGB">
<feFlood flood-opacity="0" result="BackgroundImageFix"/>
<feColorMatrix in="SourceAlpha" type="matrix" values="0 0 0 0 0 0 0 0 0 0 0 0 0 0 0 0 0 0 127 0" result="hardAlpha"/>
<feOffset/>
<feGaussianBlur stdDeviation="5"/>
<feComposite in2="hardAlpha" operator="out"/>
<feColorMatrix type="matrix" values="0 0 0 0 0.0666667 0 0 0 0 0.145098 0 0 0 0 0.207843 0 0 0 0.5 0"/>
<feBlend mode="normal" in2="BackgroundImageFix" result="effect1_dropShadow_69_187"/>
<feBlend mode="normal" in="SourceGraphic" in2="effect1_dropShadow_69_187" result="shape"/>
</filter>
<filter id="filter22_d_69_187" x="71.0601" y="70.52" width="100.74" height="118.48" filterUnits="userSpaceOnUse" color-interpolation-filters="sRGB">
<feFlood flood-opacity="0" result="BackgroundImageFix"/>
<feColorMatrix in="SourceAlpha" type="matrix" values="0 0 0 0 0 0 0 0 0 0 0 0 0 0 0 0 0 0 127 0" result="hardAlpha"/>
<feOffset/>
<feGaussianBlur stdDeviation="5"/>
<feComposite in2="hardAlpha" operator="out"/>
<feColorMatrix type="matrix" values="0 0 0 0 0.0666667 0 0 0 0 0.145098 0 0 0 0 0.207843 0 0 0 0.5 0"/>
<feBlend mode="normal" in2="BackgroundImageFix" result="effect1_dropShadow_69_187"/>
<feBlend mode="normal" in="SourceGraphic" in2="effect1_dropShadow_69_187" result="shape"/>
</filter>
<filter id="filter23_d_69_187" x="84.7202" y="84.15" width="73.4902" height="90.08" filterUnits="userSpaceOnUse" color-interpolation-filters="sRGB">
<feFlood flood-opacity="0" result="BackgroundImageFix"/>
<feColorMatrix in="SourceAlpha" type="matrix" values="0 0 0 0 0 0 0 0 0 0 0 0 0 0 0 0 0 0 127 0" result="hardAlpha"/>
<feOffset/>
<feGaussianBlur stdDeviation="5"/>
<feComposite in2="hardAlpha" operator="out"/>
<feColorMatrix type="matrix" values="0 0 0 0 0.0666667 0 0 0 0 0.145098 0 0 0 0 0.207843 0 0 0 0.5 0"/>
<feBlend mode="normal" in2="BackgroundImageFix" result="effect1_dropShadow_69_187"/>
<feBlend mode="normal" in="SourceGraphic" in2="effect1_dropShadow_69_187" result="shape"/>
</filter>
</defs>
</svg>