<svg width="99" height="100" viewBox="0 0 99 100" fill="none" xmlns="http://www.w3.org/2000/svg">
<path d="M88.6922 48.5938H88.4139L89.2486 47.4688L89.5268 46.6251L90.0833 44.0938V43.8126L90.6397 39.8751L87.5793 37.9063V37.6251L88.4139 34.8126V33.9688L88.1357 30.8751V28.0626L83.6841 25.8126L83.4059 26.0938L83.1276 24.4063V23.5626L82.0147 21.3126V21.0313L80.0672 17.9376L75.6155 18.2188L75.0591 16.8126L74.5026 16.2501L72.8333 14.5626L72.5551 14.2813L69.7728 11.7501L67.2688 13.1563L65.5994 11.7501L64.7647 11.4688L61.9825 10.6251H61.1478L58.922 10.9063H58.6438L55.3051 11.4688L53.9139 16.5313L56.1397 17.9376L58.0873 19.9063L58.6438 20.1876L61.1478 21.3126L61.7043 21.5938L60.8696 23.5626L62.5389 25.2501L63.9301 26.9376L64.4865 27.5001L66.4341 28.6251L66.9905 28.9063L66.7123 31.4376L68.3817 32.5626L70.051 33.9688L70.6075 34.2501L69.7728 35.6563L71.7204 38.4688V38.7501L73.1115 40.4376L73.9462 41.0001V41.2813L72.2768 42.6876L72.8333 44.9376L73.3897 47.4688V48.3126L73.668 48.5938L72.5551 49.1563L71.9986 52.5313V53.0938L71.7204 55.3438V55.6251L68.6599 56.7501L68.3817 59.2813V59.5626H65.3212L63.9301 62.9376L63.6518 63.2188L62.8172 65.4688V66.0313L61.1478 65.7501L59.7567 67.4376L58.3656 69.4063L58.0873 69.9688L57.2526 71.9376L56.9744 73.0626V74.7501L51.4099 77.0001L49.4623 77.8438L47.5147 77.0001L41.9502 74.7501V73.0626L41.672 71.9376L40.8373 69.9688L40.5591 69.4063L38.8897 67.4376L37.7768 65.7501L36.1075 66.0313V65.4688L35.2728 63.2188L34.9946 62.9376L33.6035 59.5626H30.543V59.2813L30.2647 56.7501L27.2043 55.6251V55.3438L26.926 53.0938V52.5313L26.3696 49.1563L25.2567 48.5938L25.5349 48.3126V47.4688L26.0914 44.9376L26.6478 42.6876L24.9785 41.2813V41.0001L25.8131 40.4376L27.2043 38.7501V38.4688L29.1518 35.6563L28.3172 34.2501L28.8736 33.9688L30.543 32.5626L32.2123 31.4376L31.9341 28.9063L32.4905 28.6251L34.4381 27.5001L34.9946 26.9376L36.3857 25.2501L38.0551 23.5626L37.2204 21.5938L37.7768 21.3126L40.2809 20.1876L40.8373 19.9063L43.0631 17.9376L45.0107 16.5313L43.6196 11.4688L40.2809 10.9063H40.0026L37.7768 10.6251H36.9422L34.1599 11.4688L33.3252 11.7501L31.6559 13.1563L29.1518 11.7501L26.3696 14.2813L26.0914 14.5626L24.422 16.2501L23.8656 16.8126L23.3091 18.2188L18.8575 17.9376L16.9099 21.0313V21.3126L15.797 23.5626V24.4063L15.5188 26.0938L15.2406 25.8126L10.7889 28.0626V30.8751L10.5107 33.9688V34.8126L11.3454 37.6251V37.9063L8.28491 39.8751L8.84136 43.8126V44.0938L9.39781 46.6251L9.67604 47.4688L10.5107 48.5938H10.2325L7.72845 52.8126L9.11958 54.7813L10.2325 57.0313L10.7889 57.8751L12.4583 59.2813H12.1801L10.2325 64.0626L12.7365 66.8751L13.0147 67.1563L14.9623 68.8438L15.797 69.1251L17.4664 69.9688V73.6251L19.4139 75.0313L21.6397 76.4376L22.4744 77.0001L24.7002 77.5626L25.5349 77.8438L25.8131 80.9376L28.8736 82.0626L29.1518 82.3438L31.3776 82.6251L32.2123 82.9063L34.4381 82.6251L35.8293 82.0626L37.4986 81.2188L40.0026 82.0626L39.7244 82.3438L38.6115 86.2813L40.0026 88.2501L43.6196 89.3751L49.4623 86.2813L55.3051 89.3751L58.922 88.2501L60.3131 86.2813L59.2002 82.3438L58.922 82.0626L61.426 81.2188L63.0954 82.0626L64.4865 82.6251L66.7123 82.9063L67.547 82.6251L69.7728 82.3438L70.051 82.0626L73.1115 80.9376L73.3897 77.8438L74.2244 77.5626L76.4502 77.0001L77.2849 76.4376L79.5107 75.0313L81.4583 73.6251V69.9688L83.1276 69.1251L83.9623 68.8438L85.9099 67.1563L86.1881 66.8751L88.6922 64.0626L86.7446 59.2813H86.4664L88.1357 57.8751L88.6922 57.0313L90.0833 54.7813L91.1962 52.8126L88.6922 48.5938Z" fill="#55555F"/>
<path d="M43.3414 14.2813L39.7245 13.7188L37.4987 13.4376L34.9947 14.0001L32.4906 15.6876L32.2124 18.2188L33.6035 19.3438L36.664 18.7813L38.8898 17.6563L41.1156 15.6876L43.3414 14.2813Z" fill="#F1F1F1"/>
<path d="M21.3616 19.3437L19.414 22.4374L18.5793 24.6874L18.3011 27.4999L19.1358 30.3124L21.0833 31.7187L22.7527 30.5937L23.5874 27.4999L23.3091 24.6874L22.1962 21.8749L21.3616 19.3437Z" fill="#F1F1F1"/>
<path d="M30.8213 29.1874L27.7608 28.0624L25.8132 27.7812L23.8656 28.0624L21.918 29.4687L21.3616 31.4374L22.7527 32.5624H25.2567L27.2043 31.7187L28.8737 30.3124L30.8213 29.1874Z" fill="#F1F1F1"/>
<path d="M31.0994 14.0001L28.0389 16.5314L26.3696 18.2189L25.2567 20.7501L24.9785 23.8439L26.6478 25.5314L28.3172 25.2501L30.2647 22.4376L30.8212 19.9064V16.8126L31.0994 14.0001Z" fill="#F1F1F1"/>
<path d="M35.8292 21.5937L33.047 21.3124H31.0994L28.8736 21.8749L27.2042 23.5624V25.8124L28.5954 26.6562L31.0994 26.0937L32.7687 24.9687L34.4381 23.2812L35.8292 21.5937Z" fill="#F1F1F1"/>
<path d="M26.9261 34.2502L24.9785 37.0626L23.5874 38.7501L21.6398 39.8751L18.8575 40.1564L17.1882 38.4689L17.4664 36.7814L19.6922 35.0939L21.918 34.2502H24.422H26.9261Z" fill="#F1F1F1"/>
<path d="M13.5712 28.0626L16.9099 30.5939L18.8575 32.2814L20.2486 35.0939V38.1876L18.301 40.4376L15.797 39.8751L13.8494 37.0626L13.293 34.2501L13.5712 30.8751V28.0626Z" fill="#F1F1F1"/>
<path d="M11.0672 39.5938L11.6237 43.5312L12.1801 46.0625L13.5712 48.3125L16.3535 50L18.8575 49.1562L19.414 47.1875L18.0228 44.0937L16.0753 42.4062L13.293 41L11.0672 39.5938Z" fill="#F1F1F1"/>
<path d="M23.8656 42.1251L20.8051 43.5313L18.8575 44.6563L17.4664 46.3438L16.6317 48.8751L18.0228 51.1251H19.6922L21.918 49.1563L23.0309 47.1876L23.3091 44.3751L23.8656 42.1251Z" fill="#F1F1F1"/>
<path d="M23.5873 49.4375L24.1438 53.0938L24.422 55.625L23.5873 57.875L21.918 60.125L19.1357 60.4062L18.0228 58.7187L18.5793 55.625L19.9704 53.375L21.918 51.4062L23.5873 49.4375Z" fill="#F1F1F1"/>
<path d="M10.2325 51.4063H13.5713L15.7971 51.9688L18.0229 53.0938L19.414 55.3438L18.8575 57.5938L16.91 58.4375L14.4059 57.3125L12.7366 55.625L11.3454 53.375L10.2325 51.4063Z" fill="#F1F1F1"/>
<path d="M12.1802 62.0937L14.9624 64.9062L16.6318 66.5937L19.1358 67.7187L22.1963 67.4374L24.1439 65.4687L23.3092 63.4999L20.527 62.0937L18.0229 61.5312L14.9624 62.0937H12.1802Z" fill="#F1F1F1"/>
<path d="M27.4825 57.0313L24.9784 59.5626L23.5873 60.9688L22.7526 63.2188V66.0313L24.7002 67.7188L26.3696 67.1563L27.7607 64.6251L28.0389 62.0938L27.7607 59.5626L27.4825 57.0313Z" fill="#F1F1F1"/>
<path d="M31.0994 60.6875L32.4905 64.0625L33.3252 66.3125L33.6034 69.125L32.4905 71.9375L30.2647 73.0625L28.8736 71.9375L28.3171 68.8438L28.8736 66.0313L29.9865 63.2188L31.0994 60.6875Z" fill="#F1F1F1"/>
<path d="M18.8575 71.375L22.1962 69.6875L24.422 69.125H26.926L29.4301 70.5313L29.9865 73.0625L28.5954 74.75L25.5349 75.0313L23.3091 74.1875L21.0833 72.7813L18.8575 71.375Z" fill="#F1F1F1"/>
<path d="M26.9261 78.4062L29.9866 79.5312L31.9342 80.0937L34.16 79.8125L36.3858 78.4062L36.9422 76.1562L35.8293 74.7499H33.0471L30.8213 75.5937L28.8737 76.9999L26.9261 78.4062Z" fill="#F1F1F1"/>
<path d="M35.551 67.4376L34.7164 70.2501L34.1599 72.2189L34.7164 74.4689L35.8293 76.4376L38.0551 76.7189L39.168 75.5939V73.0626L38.3333 71.0939L36.6639 69.1251L35.551 67.4376Z" fill="#F1F1F1"/>
<path d="M34.1599 75.8751L39.4462 77.0001L46.4018 79.5314L51.1317 81.5001L57.8091 84.8751L56.6962 86.8439L50.8535 83.7501L44.176 80.6564L38.3333 78.4064L34.1599 75.8751Z" fill="#F1F1F1"/>
<path d="M55.5834 14.2813L59.2003 13.7188L61.4261 13.4376L63.9302 14.0001L66.4342 15.6876L66.7124 18.2188L65.3213 19.3438L62.2608 18.7813L60.035 17.6563L57.8092 15.6876L55.5834 14.2813Z" fill="#F1F1F1"/>
<path d="M77.5632 19.3437L79.5108 22.4374L80.3455 24.6874L80.6237 27.4999L79.789 30.3124L77.8414 31.7187L76.1721 30.5937L75.3374 27.4999L75.6156 24.6874L76.7285 21.8749L77.5632 19.3437Z" fill="#F1F1F1"/>
<path d="M68.1035 29.1874L71.1639 28.0624L73.1115 27.7812L75.0591 28.0624L77.0067 29.4687L77.5631 31.4374L76.172 32.5624H73.668L71.7204 31.7187L70.051 30.3124L68.1035 29.1874Z" fill="#F1F1F1"/>
<path d="M67.8251 14.0001L70.8856 16.5314L72.555 18.2189L73.6679 20.7501L73.9461 23.8439L72.2767 25.5314L70.6074 25.2501L68.6598 22.4376L68.1034 19.9064V16.8126L67.8251 14.0001Z" fill="#F1F1F1"/>
<path d="M63.0955 21.5937L65.8777 21.3124H67.8253L70.0511 21.8749L71.7205 23.5624V25.8124L70.3293 26.6562L67.8253 26.0937L66.1559 24.9687L64.4866 23.2812L63.0955 21.5937Z" fill="#F1F1F1"/>
<path d="M71.9987 34.2502L73.9462 37.0626L75.3374 38.7501L77.285 39.8751L80.0672 40.1564L81.7366 38.4689L81.4583 36.7814L79.2325 35.0939L77.0067 34.2502H74.5027H71.9987Z" fill="#F1F1F1"/>
<path d="M85.3535 28.0626L82.0148 30.5939L80.0672 32.2814L78.6761 35.0939V38.1876L80.6237 40.4376L83.1277 39.8751L85.0753 37.0626L85.6317 34.2501L85.3535 30.8751V28.0626Z" fill="#F1F1F1"/>
<path d="M87.8575 39.5938L87.3011 43.5312L86.7446 46.0625L85.3535 48.3125L82.5712 50L80.0672 49.1562L79.5107 47.1875L80.9019 44.0937L82.8495 42.4062L85.6317 41L87.8575 39.5938Z" fill="#F1F1F1"/>
<path d="M75.059 42.1251L78.1195 43.5313L80.0671 44.6563L81.4582 46.3438L82.2929 48.8751L80.9018 51.1251H79.2324L77.0066 49.1563L75.8937 47.1876L75.6155 44.3751L75.059 42.1251Z" fill="#F1F1F1"/>
<path d="M75.3373 49.4375L74.7809 53.0938L74.5026 55.625L75.3373 57.875L77.0067 60.125L79.5107 60.4062L80.9018 58.7187L80.3454 55.625L78.9542 53.375L77.0067 51.4062L75.3373 49.4375Z" fill="#F1F1F1"/>
<path d="M88.6922 51.4063H85.3535L83.1277 51.9688L80.9019 53.0938L79.5107 55.3438L80.0672 57.5938L82.0148 58.4375L84.5188 57.3125L86.1882 55.625L87.5793 53.375L88.6922 51.4063Z" fill="#F1F1F1"/>
<path d="M86.7446 62.0937L83.9623 64.9062L82.293 66.5937L79.5107 67.7187L76.7285 67.4374L74.7809 65.4687L75.6156 63.4999L78.3978 62.0937L80.9018 61.5312L83.9623 62.0937H86.7446Z" fill="#F1F1F1"/>
<path d="M71.4421 57.0313L73.9462 59.5626L75.3373 60.9688L76.172 63.2188V66.0313L74.2244 67.7188L72.555 67.1563L71.1639 64.6251L70.8857 62.0938L71.1639 59.5626L71.4421 57.0313Z" fill="#F1F1F1"/>
<path d="M67.8253 60.6875L66.4342 64.0625L65.5995 66.3125L65.3213 69.125L66.4342 71.9375L68.66 73.0625L70.0511 71.9375L70.6076 68.8438L70.0511 66.0313L68.9382 63.2188L67.8253 60.6875Z" fill="#F1F1F1"/>
<path d="M80.0671 71.375L76.7284 69.6875L74.5026 69.125H71.9985L69.4945 70.5313L68.938 73.0625L70.3292 74.75L73.3897 75.0313L75.6155 74.1875L77.8413 72.7813L80.0671 71.375Z" fill="#F1F1F1"/>
<path d="M71.9987 78.4062L68.9382 79.5312L66.9906 80.0937L64.7648 79.8125L62.539 78.4062L61.9825 76.1562L63.0954 74.7499H65.8777L68.1035 75.5937L70.0511 76.9999L71.9987 78.4062Z" fill="#F1F1F1"/>
<path d="M63.3737 67.4376L64.2083 70.2501L64.7648 72.2189L64.2083 74.4689L63.0954 76.4376L60.8696 76.7189L59.7567 75.5939V73.0626L60.5914 71.0939L62.2607 69.1251L63.3737 67.4376Z" fill="#F1F1F1"/>
<path d="M64.7648 75.8751L59.4785 77.0001L52.5229 79.5314L47.793 81.5001L41.1156 84.8751L42.2285 86.8439L48.0712 83.7501L54.7487 80.6564L60.5914 78.4064L64.7648 75.8751Z" fill="#F1F1F1"/>
<path opacity="0.25" d="M88.6922 48.5938H88.4139L89.2486 47.4688L89.5268 46.6251L90.0833 44.0938V43.8126L90.6397 39.8751L87.5793 37.9063V37.6251L88.4139 34.8126V33.9688L88.1357 30.8751V28.0626L83.6841 25.8126L83.4059 26.0938L83.1276 24.4063V23.5626L82.0147 21.3126V21.0313L80.0672 17.9376L75.6155 18.2188L75.0591 16.8126L74.5026 16.2501L72.8333 14.5626L72.5551 14.2813L69.7728 11.7501L67.2688 13.1563L65.5994 11.7501L64.7647 11.4688L61.9825 10.6251H61.1478L58.922 10.9063H58.6438L55.3051 11.4688L53.9139 16.5313L56.1397 17.9376L58.0873 19.9063L58.6438 20.1876L61.1478 21.3126L61.7043 21.5938L60.8696 23.5626L62.5389 25.2501L63.9301 26.9376L64.4865 27.5001L66.4341 28.6251L66.9905 28.9063L66.7123 31.4376L68.3817 32.5626L70.051 33.9688L70.6075 34.2501L69.7728 35.6563L71.7204 38.4688V38.7501L73.1115 40.4376L73.9462 41.0001V41.2813L72.2768 42.6876L72.8333 44.9376L73.3897 47.4688V48.3126L73.668 48.5938L72.5551 49.1563L71.9986 52.5313V53.0938L71.7204 55.3438V55.6251L68.6599 56.7501L68.3817 59.2813V59.5626H65.3212L63.9301 62.9376L63.6518 63.2188L62.8172 65.4688V66.0313L61.1478 65.7501L59.7567 67.4376L58.3656 69.1251L58.0873 69.9688L57.2526 71.9376L56.9744 73.0626V74.7501L51.4099 77.0001L49.4623 77.8438L47.5147 77.0001L41.9502 74.7501V73.0626L41.672 71.9376L40.8373 69.9688L40.5591 69.1251L38.8897 67.4376L37.7768 65.7501L36.1075 66.0313V65.4688L35.2728 63.2188L34.9946 62.9376L33.6035 59.5626H30.543V59.2813L30.2647 56.7501L27.2043 55.6251V55.3438L26.926 53.0938V52.5313L26.3696 49.1563L25.2567 48.5938L25.5349 48.3126V47.4688L26.0914 44.9376L26.6478 42.6876L24.9785 41.2813V41.0001L25.8131 40.4376L27.2043 38.7501V38.4688L29.1518 35.6563L28.3172 34.2501L28.8736 33.9688L30.543 32.5626L32.2123 31.4376L31.9341 28.9063L32.4905 28.6251L34.4381 27.5001L34.9946 26.9376L36.3857 25.2501L38.0551 23.5626L37.2204 21.5938L37.7768 21.3126L40.2809 20.1876L40.8373 19.9063L43.0631 17.9376L45.0107 16.5313L43.6196 11.4688L40.2809 10.9063H40.0026L37.7768 10.6251H36.9422L34.1599 11.4688L33.3252 11.7501L31.6559 13.1563L29.1518 11.7501L26.3696 14.2813L26.0914 14.5626L24.422 16.2501L23.8656 16.8126L23.3091 18.2188L18.8575 17.9376L16.9099 21.0313V21.3126L15.797 23.5626V24.4063L15.5188 26.0938L15.2406 25.8126L10.7889 28.0626V30.8751L10.5107 33.9688V34.8126L11.3454 37.6251V37.9063L8.28491 39.8751L8.84136 43.8126V44.0938L9.39781 46.6251L9.67604 47.4688L10.5107 48.5938H10.2325L7.72845 52.8126L9.11958 54.7813L10.2325 57.0313L10.7889 57.8751L12.4583 59.2813H12.1801L10.2325 64.0626L12.7365 66.8751L13.0147 67.1563L14.9623 68.8438L15.797 69.1251L17.4664 69.9688V73.6251L19.4139 75.0313L21.6397 76.4376L22.4744 77.0001L24.7002 77.5626L25.5349 77.8438L25.8131 80.9376L28.8736 82.0626L29.1518 82.3438L31.3776 82.6251L32.2123 82.9063L34.4381 82.6251L35.8293 82.0626L37.4986 81.2188L40.0026 82.0626L39.7244 82.3438L38.6115 86.2813L40.0026 88.2501L43.6196 89.3751L49.4623 86.2813L55.3051 89.3751L58.922 88.2501L60.3131 86.2813L59.2002 82.3438L58.922 82.0626L61.426 81.2188L63.0954 82.0626L64.4865 82.6251L66.7123 82.9063L67.547 82.6251L69.7728 82.3438L70.051 82.0626L73.1115 80.9376L73.3897 77.8438L74.2244 77.5626L76.4502 77.0001L77.2849 76.4376L79.5107 75.0313L81.4583 73.6251V69.9688L83.1276 69.1251L83.9623 68.8438L85.9099 67.1563L86.1881 66.8751L88.6922 64.0626L86.7446 59.2813H86.4664L88.1357 57.8751L88.6922 57.0313L90.0833 54.7813L91.1962 52.8126L88.6922 48.5938Z" fill="#808080"/>
<path d="M55.0269 35.9376H21.6398V47.1876H55.0269V35.9376Z" fill="#F1F1F1"/>
<path d="M55.0269 52.8125H21.6398V64.0625H55.0269V52.8125Z" fill="#F1F1F1"/>
<path d="M66.7123 35.9376H60.5914V64.0626H66.7123L81.4583 50.0001L66.7123 35.9376Z" fill="#F1F1F1"/>
<path d="M67.8252 33.1251H60.5914H55.0268H18.8575V47.1876V52.8126V66.8751H55.0268H60.5914H67.8252L85.6317 50.0001L67.8252 33.1251ZM60.5914 64.0626V35.9376H66.7123L81.7365 50.0001L66.7123 64.0626H60.5914ZM21.6397 52.8126H55.0268V64.0626H21.6397V52.8126ZM21.6397 35.9376H55.0268V47.1876H21.6397V35.9376Z" fill="#55555F"/>
</svg>
