<svg width="97" height="100" viewBox="0 0 97 100" fill="none" xmlns="http://www.w3.org/2000/svg">
<path d="M86.7641 48.5938H86.4919L87.3085 47.4688L87.5806 46.6251L88.125 44.0938V43.8126L88.6693 39.8751L85.6754 37.9063V37.6251L86.4919 34.8126V33.9688L86.2198 30.8751V28.0626L81.8649 25.8126L81.5927 26.0938L81.3206 24.4063V23.5626L80.2319 21.3126V21.0313L78.3266 17.9376L73.9718 18.2188L73.4274 16.8126L72.8831 16.2501L71.25 14.5626L70.9778 14.2813L68.256 11.7501L65.8064 13.1563L64.1734 11.7501L63.3568 11.4688L60.6351 10.6251H59.8185L57.6411 10.9063H57.3689L54.1028 11.4688L52.7419 16.5313L54.9193 17.9376L56.8246 19.9063L57.3689 20.1876L59.8185 21.3126L60.3629 21.5938L59.5464 23.5626L61.1794 25.2501L62.5403 26.9376L63.0847 27.5001L64.9899 28.6251L65.5343 28.9063L65.2621 31.4376L66.8952 32.5626L68.5282 33.9688L69.0726 34.2501L68.256 35.6563L70.1613 38.4688V38.7501L71.5222 40.4376L72.3387 41.0001V41.2813L70.7056 42.6876L71.25 44.9376L71.7943 47.4688V48.3126L72.0665 48.5938L70.9778 49.1563L70.4335 52.5313V53.0938L70.1613 55.3438V55.6251L67.1673 56.7501L66.8952 59.2813V59.5626H63.9012L62.5403 62.9376L62.2681 63.2188L61.4516 65.4688V66.0313L59.8185 65.7501L58.4577 67.4376L57.0968 69.4063L56.8246 69.9688L56.0081 71.9376L55.7359 73.0626V74.7501L50.2923 77.0001L48.3871 77.8438L46.4818 77.0001L41.0383 74.7501V73.0626L40.7661 71.9376L39.9496 69.9688L39.6774 69.4063L38.0443 67.4376L36.9556 65.7501L35.3226 66.0313V65.4688L34.506 63.2188L34.2339 62.9376L32.873 59.5626H29.879V59.2813L29.6068 56.7501L26.6129 55.6251V55.3438L26.3407 53.0938V52.5313L25.7964 49.1563L24.7077 48.5938L24.9798 48.3126V47.4688L25.5242 44.9376L26.0685 42.6876L24.4355 41.2813V41.0001L25.252 40.4376L26.6129 38.7501V38.4688L28.5181 35.6563L27.7016 34.2501L28.246 33.9688L29.879 32.5626L31.5121 31.4376L31.2399 28.9063L31.7843 28.6251L33.6895 27.5001L34.2339 26.9376L35.5947 25.2501L37.2278 23.5626L36.4113 21.5938L36.9556 21.3126L39.4052 20.1876L39.9496 19.9063L42.127 17.9376L44.0322 16.5313L42.6714 11.4688L39.4052 10.9063H39.1331L36.9556 10.6251H36.1391L33.4173 11.4688L32.6008 11.7501L30.9677 13.1563L28.5181 11.7501L25.7964 14.2813L25.5242 14.5626L23.8911 16.2501L23.3468 16.8126L22.8024 18.2188L18.4476 17.9376L16.5423 21.0313V21.3126L15.4536 23.5626V24.4063L15.1814 26.0938L14.9093 25.8126L10.5544 28.0626V30.8751L10.2822 33.9688V34.8126L11.0988 37.6251V37.9063L8.10483 39.8751L8.64918 43.8126V44.0938L9.19354 46.6251L9.46571 47.4688L10.2822 48.5938H10.0101L7.56047 52.8126L8.92136 54.7813L10.0101 57.0313L10.5544 57.8751L12.1875 59.2813H11.9153L10.0101 64.0626L12.4597 66.8751L12.7318 67.1563L14.6371 68.8438L15.4536 69.1251L17.0867 69.9688V73.6251L18.9919 75.0313L21.1693 76.4376L21.9859 77.0001L24.1633 77.5626L24.9798 77.8438L25.252 80.9376L28.246 82.0626L28.5181 82.3438L30.6956 82.6251L31.5121 82.9063L33.6895 82.6251L35.0504 82.0626L36.6835 81.2188L39.1331 82.0626L38.8609 82.3438L37.7722 86.2813L39.1331 88.2501L42.6714 89.3751L48.3871 86.2813L54.1028 89.3751L57.6411 88.2501L59.002 86.2813L57.9133 82.3438L57.6411 82.0626L60.0907 81.2188L61.7238 82.0626L63.0847 82.6251L65.2621 82.9063L66.0786 82.6251L68.256 82.3438L68.5282 82.0626L71.5222 80.9376L71.7943 77.8438L72.6109 77.5626L74.7883 77.0001L75.6048 76.4376L77.7822 75.0313L79.6875 73.6251V69.9688L81.3206 69.1251L82.1371 68.8438L84.0423 67.1563L84.3145 66.8751L86.7641 64.0626L84.8589 59.2813H84.5867L86.2198 57.8751L86.7641 57.0313L88.125 54.7813L89.2137 52.8126L86.7641 48.5938Z" fill="#916424"/>
<path d="M42.3992 14.2813L38.8609 13.7188L36.6835 13.4376L34.2339 14.0001L31.7843 15.6876L31.5121 18.2188L32.873 19.3438L35.8669 18.7813L38.0443 17.6563L40.2218 15.6876L42.3992 14.2813Z" fill="#FFCC66"/>
<path d="M20.8972 19.3437L18.9919 22.4374L18.1754 24.6874L17.9032 27.4999L18.7198 30.3124L20.625 31.7187L22.2581 30.5937L23.0746 27.4999L22.8024 24.6874L21.7137 21.8749L20.8972 19.3437Z" fill="#FFCC66"/>
<path d="M30.1512 29.1874L27.1572 28.0624L25.252 27.7812L23.3468 28.0624L21.4415 29.4687L20.8972 31.4374L22.258 32.5624H24.7076L26.6129 31.7187L28.2459 30.3124L30.1512 29.1874Z" fill="#FFCC66"/>
<path d="M30.4234 14.0001L27.4294 16.5314L25.7963 18.2189L24.7076 20.7501L24.4355 23.8439L26.0685 25.5314L27.7016 25.2501L29.6068 22.4376L30.1512 19.9064V16.8126L30.4234 14.0001Z" fill="#FFCC66"/>
<path d="M35.0504 21.5937L32.3286 21.3125H30.4234L28.246 21.875L26.6129 23.5625V25.8125L27.9738 26.6562L30.4234 26.0937L32.0565 24.9687L33.6895 23.2812L35.0504 21.5937Z" fill="#FFCC66"/>
<path d="M26.3407 34.2502L24.4355 37.0627L23.0746 38.7502L21.1694 39.8752L18.4476 40.1565L16.8145 38.469L17.0867 36.7815L19.2641 35.094L21.4415 34.2502H23.8911H26.3407Z" fill="#FFCC66"/>
<path d="M13.2762 28.0626L16.5423 30.5939L18.4476 32.2814L19.8085 35.0939V38.1876L17.9032 40.4376L15.4536 39.8751L13.5484 37.0626L13.004 34.2501L13.2762 30.8751V28.0626Z" fill="#FFCC66"/>
<path d="M10.8266 39.5938L11.371 43.5313L11.9153 46.0626L13.2762 48.3126L15.998 50.0001L18.4476 49.1563L18.9919 47.1876L17.631 44.0938L15.7258 42.4063L13.004 41.0001L10.8266 39.5938Z" fill="#FFCC66"/>
<path d="M23.3468 42.1251L20.3528 43.5313L18.4476 44.6563L17.0867 46.3438L16.2701 48.8751L17.631 51.1251H19.2641L21.4415 49.1563L22.5302 47.1876L22.8024 44.3751L23.3468 42.1251Z" fill="#FFCC66"/>
<path d="M23.0746 49.4375L23.6189 53.0937L23.8911 55.625L23.0746 57.875L21.4415 60.125L18.7198 60.4062L17.631 58.7187L18.1754 55.625L19.5363 53.375L21.4415 51.4062L23.0746 49.4375Z" fill="#FFCC66"/>
<path d="M10.0101 51.4063H13.2762L15.4536 51.9688L17.6311 53.0938L18.9919 55.3438L18.4476 57.5938L16.5423 58.4376L14.0927 57.3126L12.4597 55.6251L11.0988 53.3751L10.0101 51.4063Z" fill="#FFCC66"/>
<path d="M11.9153 62.0937L14.6371 64.9062L16.2702 66.5937L18.7198 67.7187L21.7137 67.4374L23.619 65.4687L22.8024 63.4999L20.0807 62.0937L17.6311 61.5312L14.6371 62.0937H11.9153Z" fill="#FFCC66"/>
<path d="M26.8851 57.0313L24.4355 59.5626L23.0746 60.9688L22.2581 63.2188V66.0313L24.1633 67.7188L25.7964 67.1563L27.1573 64.6251L27.4295 62.0938L27.1573 59.5626L26.8851 57.0313Z" fill="#FFCC66"/>
<path d="M30.4234 60.6876L31.7843 64.0626L32.6008 66.3126L32.873 69.1251L31.7843 71.9376L29.6068 73.0626L28.246 71.9376L27.7016 68.8438L28.246 66.0313L29.3347 63.2188L30.4234 60.6876Z" fill="#FFCC66"/>
<path d="M18.4476 71.3751L21.7137 69.6876L23.8911 69.1251H26.3407L28.7903 70.5313L29.3347 73.0626L27.9738 74.7501L24.9799 75.0313L22.8024 74.1876L20.625 72.7813L18.4476 71.3751Z" fill="#FFCC66"/>
<path d="M26.3407 78.4062L29.3347 79.5312L31.2399 80.0937L33.4173 79.8125L35.5948 78.4062L36.1391 76.1562L35.0504 74.75H32.3286L30.1512 75.5937L28.246 77L26.3407 78.4062Z" fill="#FFCC66"/>
<path d="M34.7782 67.4376L33.9617 70.2501L33.4173 72.2188L33.9617 74.4688L35.0504 76.4376L37.2278 76.7188L38.3165 75.5938V73.0626L37.5 71.0938L35.8669 69.1251L34.7782 67.4376Z" fill="#FFCC66"/>
<path d="M33.4173 75.8751L38.5887 77.0001L45.3931 79.5313L50.0202 81.5001L56.5524 84.875L55.4637 86.8438L49.748 83.7501L43.2157 80.6563L37.5 78.4063L33.4173 75.8751Z" fill="#FFCC66"/>
<path d="M54.375 14.2813L57.9133 13.7188L60.0908 13.4376L62.5404 14.0001L64.9899 15.6876L65.2621 18.2188L63.9012 19.3438L60.9073 18.7813L58.7299 17.6563L56.5524 15.6876L54.375 14.2813Z" fill="#FFCC66"/>
<path d="M75.877 19.3437L77.7822 22.4374L78.5988 24.6874L78.871 27.4999L78.0544 30.3124L76.1492 31.7187L74.5161 30.5937L73.6996 27.4999L73.9718 24.6874L75.0605 21.8749L75.877 19.3437Z" fill="#FFCC66"/>
<path d="M66.623 29.1874L69.6169 28.0624L71.5221 27.7812L73.4274 28.0624L75.3326 29.4687L75.877 31.4374L74.5161 32.5624H72.0665L70.1613 31.7187L68.5282 30.3124L66.623 29.1874Z" fill="#FFCC66"/>
<path d="M66.3508 14.0001L69.3448 16.5314L70.9778 18.2189L72.0665 20.7501L72.3387 23.8439L70.7057 25.5314L69.0726 25.2501L67.1674 22.4376L66.623 19.9064V16.8126L66.3508 14.0001Z" fill="#FFCC66"/>
<path d="M61.7238 21.5937L64.4456 21.3125H66.3508L68.5282 21.875L70.1613 23.5625V25.8125L68.8004 26.6562L66.3508 26.0937L64.7177 24.9687L63.0847 23.2812L61.7238 21.5937Z" fill="#FFCC66"/>
<path d="M70.4335 34.2502L72.3387 37.0627L73.6996 38.7502L75.6048 39.8752L78.3266 40.1565L79.9597 38.469L79.6875 36.7815L77.5101 35.094L75.3327 34.2502H72.8831H70.4335Z" fill="#FFCC66"/>
<path d="M83.498 28.0626L80.2318 30.5939L78.3266 32.2814L76.9657 35.0939V38.1876L78.8709 40.4376L81.3205 39.8751L83.2258 37.0626L83.7701 34.2501L83.498 30.8751V28.0626Z" fill="#FFCC66"/>
<path d="M85.9476 39.5938L85.4033 43.5313L84.8589 46.0626L83.498 48.3126L80.7762 50.0001L78.3266 49.1563L77.7823 47.1876L79.1432 44.0938L81.0484 42.4063L83.7702 41.0001L85.9476 39.5938Z" fill="#FFCC66"/>
<path d="M73.4274 42.1251L76.4213 43.5313L78.3266 44.6563L79.6875 46.3438L80.504 48.8751L79.1431 51.1251H77.5101L75.3326 49.1563L74.2439 47.1876L73.9718 44.3751L73.4274 42.1251Z" fill="#FFCC66"/>
<path d="M73.6996 49.4375L73.1553 53.0937L72.8831 55.625L73.6996 57.875L75.3327 60.125L77.7823 60.4062L79.1432 58.7187L78.5988 55.625L77.2379 53.375L75.3327 51.4062L73.6996 49.4375Z" fill="#FFCC66"/>
<path d="M86.7641 51.4063H83.498L81.3206 51.9688L79.1432 53.0938L77.7823 55.3438L78.3266 57.5938L80.2319 58.4376L82.6815 57.3126L84.3145 55.6251L85.6754 53.3751L86.7641 51.4063Z" fill="#FFCC66"/>
<path d="M84.8589 62.0937L82.1371 64.9062L80.504 66.5937L77.7822 67.7187L75.0605 67.4374L73.1552 65.4687L73.9717 63.4999L76.6935 62.0937L79.1431 61.5312L82.1371 62.0937H84.8589Z" fill="#FFCC66"/>
<path d="M69.8891 57.0313L72.3387 59.5626L73.6996 60.9688L74.5162 63.2188V66.0313L72.6109 67.7188L70.9778 67.1563L69.617 64.6251L69.3448 62.0938L69.617 59.5626L69.8891 57.0313Z" fill="#FFCC66"/>
<path d="M66.3508 60.6876L64.9899 64.0626L64.1734 66.3126L63.9012 69.1251L64.9899 71.9376L67.1673 73.0626L68.5282 71.9376L69.0726 68.8438L68.5282 66.0313L67.4395 63.2188L66.3508 60.6876Z" fill="#FFCC66"/>
<path d="M78.3266 71.3751L75.0605 69.6876L72.8831 69.1251H70.4335L67.9839 70.5313L67.4395 73.0626L68.8004 74.7501L71.7944 75.0313L73.9718 74.1876L76.1492 72.7813L78.3266 71.3751Z" fill="#FFCC66"/>
<path d="M70.4335 78.4062L67.4395 79.5312L65.5343 80.0937L63.3569 79.8125L61.1795 78.4062L60.6351 76.1562L61.7238 74.75H64.4456L66.623 75.5937L68.5282 77L70.4335 78.4062Z" fill="#FFCC66"/>
<path d="M61.9959 67.4376L62.8125 70.2501L63.3568 72.2188L62.8125 74.4688L61.7238 76.4376L59.5464 76.7188L58.4576 75.5938V73.0626L59.2742 71.0938L60.9072 69.1251L61.9959 67.4376Z" fill="#FFCC66"/>
<path d="M63.3568 75.8751L58.1855 77.0001L51.381 79.5313L46.754 81.5001L40.2218 84.875L41.3105 86.8438L47.0262 83.7501L53.5585 80.6563L59.2742 78.4063L63.3568 75.8751Z" fill="#FFCC66"/>
<path opacity="0.25" d="M86.7642 48.5937H86.492L87.3085 47.4687L87.5807 46.625L88.125 44.0937V43.8125L88.6694 39.875L85.6754 37.9062V37.625L86.492 34.8125V33.9687L86.2198 30.875V28.0625L81.865 25.8125L81.5928 26.0937L81.3206 24.4062V23.5625L80.2319 21.3125V21.0312L78.3267 17.9375L73.9718 18.2187L73.4275 16.8125L72.8831 16.25L71.25 14.5625L70.9779 14.2812L68.2561 11.75L65.8065 13.1562L64.1734 11.75L63.3569 11.4687L60.6351 10.625H59.8186L57.6412 10.9062H57.369L54.1029 11.4687L52.742 16.5312L54.9194 17.9375L56.8246 19.9062L57.369 20.1875L59.8186 21.3125L60.3629 21.5937L59.5464 23.5625L61.1795 25.25L62.5404 26.9375L63.0847 27.5L64.99 28.625L65.5343 28.9062L65.2621 31.4375L66.8952 32.5625L68.5283 33.9687L69.0726 34.25L68.2561 35.6562L70.1613 38.4687V38.75L71.5222 40.4375L72.3387 41V41.2812L70.7057 42.6875L71.25 44.9375L71.7944 47.4687V48.3125L72.0666 48.5937L70.9779 49.1562L70.4335 52.5312V53.0937L70.1613 55.3437V55.625L67.1674 56.75L66.8952 59.2812V59.5625H63.9012L62.5404 62.9375L62.2682 63.2187L61.4516 65.4687V66.0312L59.8186 65.75L58.4577 67.4375L57.0968 69.125L56.8246 69.9687L56.0081 71.9375L55.7359 73.0625V74.75L50.2924 77L48.3871 77.8437L46.4819 77L41.0383 74.75V73.0625L40.7662 71.9375L39.9496 69.9687L39.6775 69.125L38.0444 67.4375L36.9557 65.75L35.3226 66.0312V65.4687L34.5061 63.2187L34.2339 62.9375L32.873 59.5625H29.8791V59.2812L29.6069 56.75L26.6129 55.625V55.3437L26.3408 53.0937V52.5312L25.7964 49.1562L24.7077 48.5937L24.9799 48.3125V47.4687L25.5242 44.9375L26.0686 42.6875L24.4355 41.2812V41L25.2521 40.4375L26.6129 38.75V38.4687L28.5182 35.6562L27.7016 34.25L28.246 33.9687L29.8791 32.5625L31.5121 31.4375L31.24 28.9062L31.7843 28.625L33.6896 27.5L34.2339 26.9375L35.5948 25.25L37.2279 23.5625L36.4113 21.5937L36.9557 21.3125L39.4053 20.1875L39.9496 19.9062L42.127 17.9375L44.0323 16.5312L42.6714 11.4687L39.4053 10.9062H39.1331L36.9557 10.625H36.1391L33.4174 11.4687L32.6008 11.75L30.9678 13.1562L28.5182 11.75L25.7964 14.2812L25.5242 14.5625L23.8912 16.25L23.3468 16.8125L22.8025 18.2187L18.4476 17.9375L16.5424 21.0312V21.3125L15.4537 23.5625V24.4062L15.1815 26.0937L14.9093 25.8125L10.5545 28.0625V30.875L10.2823 33.9687V34.8125L11.0988 37.625V37.9062L8.10487 39.875L8.64923 43.8125V44.0937L9.19358 46.625L9.46576 47.4687L10.2823 48.5937H10.0101L7.56052 52.8125L8.9214 54.7812L10.0101 57.0312L10.5545 57.875L12.1875 59.2812H11.9154L10.0101 64.0625L12.4597 66.875L12.7319 67.1562L14.6371 68.8437L15.4537 69.125L17.0867 69.9687V73.625L18.992 75.0312L21.1694 76.4375L21.9859 77L24.1633 77.5625L24.9799 77.8437L25.2521 80.9375L28.246 82.0625L28.5182 82.3437L30.6956 82.625L31.5121 82.9062L33.6896 82.625L35.0504 82.0625L36.6835 81.2187L39.1331 82.0625L38.8609 82.3437L37.7722 86.2812L39.1331 88.25L42.6714 89.375L48.3871 86.2812L54.1029 89.375L57.6412 88.25L59.002 86.2812L57.9133 82.3437L57.6412 82.0625L60.0908 81.2187L61.7238 82.0625L63.0847 82.625L65.2621 82.9062L66.0787 82.625L68.2561 82.3437L68.5283 82.0625L71.5222 80.9375L71.7944 77.8437L72.6109 77.5625L74.7883 77L75.6049 76.4375L77.7823 75.0312L79.6875 73.625V69.9687L81.3206 69.125L82.1371 68.8437L84.0424 67.1562L84.3146 66.875L86.7642 64.0625L84.8589 59.2812H84.5867L86.2198 57.875L86.7642 57.0312L88.125 54.7812L89.2137 52.8125L86.7642 48.5937Z" fill="#808080"/>
<path d="M53.8307 35.9376H50.5645L35.5948 64.0626H42.9436L57.9133 35.9376H53.8307Z" fill="#FFCC66"/>
<path d="M65.2621 35.9376L50.0201 64.0626H53.8306H59.2742H65.2621L79.6875 50.0001L65.2621 35.9376Z" fill="#FFCC66"/>
<path d="M21.1693 35.9375V47.1875V52.8125V64.0625H28.246L43.4879 35.9375H21.1693Z" fill="#FFCC66"/>
<path d="M66.623 33.4062L66.3508 33.1249H59.5464H59.2742H53.8307H52.1976H44.8488H18.4476V47.1874V52.8124V66.8749H26.8851H34.2339H41.5827H48.9315H53.8307H59.2742H66.3508L83.7702 49.9999L66.623 33.4062ZM59.2742 64.0624H53.8307H50.0202L65.2621 35.9374L79.9597 49.9999L65.2621 64.0624H59.2742ZM21.1694 52.8124V47.1874V35.9374H43.4879L28.246 64.0624H21.1694V52.8124ZM50.5645 35.9374H53.8307H57.9133L42.9436 64.0624H35.5948L50.5645 35.9374Z" fill="#916424"/>
</svg>
