<svg width="98" height="100" viewBox="0 0 98 100" fill="none" xmlns="http://www.w3.org/2000/svg">
<path d="M87.7281 48.5937H87.4529L88.2785 47.4687L88.5537 46.6249L89.1041 44.0937V43.8124L89.6545 39.8749L86.6273 37.9062V37.6249L87.4529 34.8124V33.9687L87.1777 30.8749V28.0624L82.7745 25.8124L82.4993 26.0937L82.2241 24.4062V23.5624L81.1233 21.3124V21.0312L79.1969 17.9374L74.7936 18.2187L74.2432 16.8124L73.6928 16.2499L72.0416 14.5624L71.7664 14.2812L69.0144 11.7499L66.5376 13.1562L64.8864 11.7499L64.0608 11.4687L61.3088 10.6249H60.4832L58.2815 10.9062H58.0063L54.7039 11.4687L53.3279 16.5312L55.5295 17.9374L57.4559 19.9062L58.0063 20.1874L60.4832 21.3124L61.0336 21.5937L60.208 23.5624L61.8592 25.2499L63.2352 26.9374L63.7856 27.4999L65.712 28.6249L66.2624 28.9062L65.9872 31.4374L67.6384 32.5624L69.2896 33.9687L69.84 34.2499L69.0144 35.6562L70.9408 38.4687V38.7499L72.3168 40.4374L73.1424 40.9999V41.2812L71.4912 42.6874L72.0416 44.9374L72.592 47.4687V48.3124L72.8672 48.5937L71.7664 49.1562L71.216 52.5312V53.0937L70.9408 55.3437V55.6249L67.9136 56.7499L67.6384 59.2812V59.5624H64.6112L63.2352 62.9374L62.96 63.2187L62.1344 65.4687V66.0312L60.4832 65.7499L59.1071 67.4374L57.7311 69.4062L57.4559 69.9687L56.6303 71.9374L56.3551 73.0624V74.7499L50.8511 76.9999L48.9247 77.8437L46.9983 76.9999L41.4942 74.7499V73.0624L41.219 71.9374L40.3934 69.9687L40.1182 69.4062L38.467 67.4374L37.3662 65.7499L35.715 66.0312V65.4687L34.8894 63.2187L34.6142 62.9374L33.2382 59.5624H30.211V59.2812L29.9358 56.7499L26.9086 55.6249V55.3437L26.6334 53.0937V52.5312L26.0829 49.1562L24.9821 48.5937L25.2573 48.3124V47.4687L25.8077 44.9374L26.3582 42.6874L24.7069 41.2812V40.9999L25.5325 40.4374L26.9086 38.7499V38.4687L28.835 35.6562L28.0094 34.2499L28.5598 33.9687L30.211 32.5624L31.8622 31.4374L31.587 28.9062L32.1374 28.6249L34.0638 27.4999L34.6142 26.9374L35.9902 25.2499L37.6414 23.5624L36.8158 21.5937L37.3662 21.3124L39.843 20.1874L40.3934 19.9062L42.595 17.9374L44.5215 16.5312L43.1455 11.4687L39.843 10.9062H39.5678L37.3662 10.6249H36.5406L33.7886 11.4687L32.963 11.7499L31.3118 13.1562L28.835 11.7499L26.0829 14.2812L25.8077 14.5624L24.1565 16.2499L23.6061 16.8124L23.0557 18.2187L18.6525 17.9374L16.7261 21.0312V21.3124L15.6253 23.5624V24.4062L15.3501 26.0937L15.0749 25.8124L10.6717 28.0624V30.8749L10.3965 33.9687V34.8124L11.2221 37.6249V37.9062L8.19484 39.8749L8.74525 43.8124V44.0937L9.29565 46.6249L9.57085 47.4687L10.3965 48.5937H10.1213L7.64444 52.8124L9.02045 54.7812L10.1213 57.0312L10.6717 57.8749L12.3229 59.2812H12.0477L10.1213 64.0624L12.5981 66.8749L12.8733 67.1562L14.7997 68.8437L15.6253 69.1249L17.2765 69.9687V73.6249L19.2029 75.0312L21.4045 76.4374L22.2301 76.9999L24.4317 77.5624L25.2573 77.8437L25.5325 80.9374L28.5598 82.0624L28.835 82.3437L31.0366 82.6249L31.8622 82.9062L34.0638 82.6249L35.4398 82.0624L37.091 81.2187L39.5678 82.0624L39.2926 82.3437L38.1918 86.2812L39.5678 88.2499L43.1455 89.3749L48.9247 86.2812L54.7039 89.3749L58.2815 88.2499L59.6575 86.2812L58.5567 82.3437L58.2815 82.0624L60.7584 81.2187L62.4096 82.0624L63.7856 82.6249L65.9872 82.9062L66.8128 82.6249L69.0144 82.3437L69.2896 82.0624L72.3168 80.9374L72.592 77.8437L73.4176 77.5624L75.6192 76.9999L76.4448 76.4374L78.6465 75.0312L80.5729 73.6249V69.9687L82.2241 69.1249L83.0497 68.8437L84.9761 67.1562L85.2513 66.8749L87.7281 64.0624L85.8017 59.2812H85.5265L87.1777 57.8749L87.7281 57.0312L89.1041 54.7812L90.2049 52.8124L87.7281 48.5937Z" fill="#916424"/>
<path d="M42.8702 14.2812L39.2926 13.7187L37.091 13.4374L34.6142 13.9999L32.1373 15.6874L31.8621 18.2187L33.2381 19.3437L36.2654 18.7812L38.467 17.6562L40.6686 15.6874L42.8702 14.2812Z" fill="#FFCC66"/>
<path d="M21.1292 19.3436L19.2028 22.4374L18.3772 24.6874L18.102 27.4999L18.9276 30.3124L20.854 31.7186L22.5052 30.5936L23.3308 27.4999L23.0556 24.6874L21.9548 21.8749L21.1292 19.3436Z" fill="#FFCC66"/>
<path d="M30.4861 29.1873L27.4589 28.0623L25.5325 27.781L23.6061 28.0623L21.6797 29.4685L21.1293 31.4373L22.5053 32.5623H24.9821L26.9085 31.7185L28.5597 30.3123L30.4861 29.1873Z" fill="#FFCC66"/>
<path d="M30.7614 14L27.7342 16.5312L26.083 18.2188L24.9822 20.75L24.707 23.8438L26.3582 25.5313L28.0094 25.25L29.9358 22.4375L30.4862 19.9063V16.8125L30.7614 14Z" fill="#FFCC66"/>
<path d="M35.4398 21.5936L32.6877 21.3124H30.7613L28.5597 21.8749L26.9085 23.5624V25.8124L28.2845 26.6561L30.7613 26.0936L32.4125 24.9686L34.0638 23.2811L35.4398 21.5936Z" fill="#FFCC66"/>
<path d="M26.6333 34.25L24.7069 37.0625L23.3309 38.75L21.4045 39.875L18.6525 40.1562L17.0013 38.4687L17.2765 36.7812L19.4781 35.0937L21.6797 34.25H24.1565H26.6333Z" fill="#FFCC66"/>
<path d="M13.4235 28.0625L16.726 30.5938L18.6524 32.2813L20.0284 35.0938V38.1875L18.102 40.4375L15.6252 39.875L13.6987 37.0625L13.1483 34.25L13.4235 30.875V28.0625Z" fill="#FFCC66"/>
<path d="M10.9468 39.5936L11.4972 43.5311L12.0476 46.0624L13.4236 48.3124L16.1756 49.9999L18.6525 49.1561L19.2029 47.1874L17.8268 44.0936L15.9004 42.4061L13.1484 40.9999L10.9468 39.5936Z" fill="#FFCC66"/>
<path d="M23.6061 42.1249L20.5789 43.5312L18.6524 44.6562L17.2764 46.3437L16.4508 48.8749L17.8268 51.1249H19.4781L21.6797 49.1562L22.7805 47.1874L23.0557 44.3749L23.6061 42.1249Z" fill="#FFCC66"/>
<path d="M23.3309 49.4374L23.8813 53.0936L24.1565 55.6249L23.3309 57.8749L21.6797 60.1249L18.9277 60.4061L17.8269 58.7186L18.3773 55.6249L19.7533 53.3749L21.6797 51.4061L23.3309 49.4374Z" fill="#FFCC66"/>
<path d="M10.1212 51.4062H13.4236L15.6252 51.9688L17.8268 53.0938L19.2028 55.3437L18.6524 57.5938L16.726 58.4375L14.2492 57.3125L12.598 55.625L11.222 53.375L10.1212 51.4062Z" fill="#FFCC66"/>
<path d="M12.0476 62.0936L14.7997 64.9061L16.4509 66.5936L18.9277 67.7186L21.9549 67.4373L23.8813 65.4686L23.0557 63.4998L20.3037 62.0936L17.8269 61.5311L14.7997 62.0936H12.0476Z" fill="#FFCC66"/>
<path d="M27.1837 57.0312L24.7069 59.5625L23.3309 60.9687L22.5053 63.2187V66.0312L24.4317 67.7187L26.0829 67.1562L27.4589 64.625L27.7341 62.0937L27.4589 59.5625L27.1837 57.0312Z" fill="#FFCC66"/>
<path d="M30.7612 60.6874L32.1373 64.0624L32.9629 66.3124L33.2381 69.1249L32.1373 71.9374L29.9356 73.0624L28.5596 71.9374L28.0092 68.8437L28.5596 66.0312L29.6604 63.2187L30.7612 60.6874Z" fill="#FFCC66"/>
<path d="M18.6524 71.3749L21.9548 69.6874L24.1564 69.1249H26.6332L29.1101 70.5312L29.6605 73.0624L28.2844 74.7499L25.2572 75.0312L23.0556 74.1874L20.854 72.7812L18.6524 71.3749Z" fill="#FFCC66"/>
<path d="M26.6333 78.4061L29.6605 79.5311L31.5869 80.0936L33.7885 79.8124L35.9902 78.4061L36.5406 76.1561L35.4398 74.7499H32.6877L30.4861 75.5936L28.5597 76.9999L26.6333 78.4061Z" fill="#FFCC66"/>
<path d="M35.1645 67.4375L34.3389 70.25L33.7885 72.2188L34.3389 74.4688L35.4397 76.4375L37.6413 76.7188L38.7421 75.5938V73.0625L37.9165 71.0938L36.2653 69.125L35.1645 67.4375Z" fill="#FFCC66"/>
<path d="M33.7885 75.875L39.0173 77L45.8974 79.5312L50.5758 81.5L57.1806 84.875L56.0798 86.8437L50.3006 83.75L43.6957 80.6562L37.9165 78.4062L33.7885 75.875Z" fill="#FFCC66"/>
<path d="M54.9791 14.2812L58.5567 13.7187L60.7584 13.4374L63.2352 13.9999L65.712 15.6874L65.9872 18.2187L64.6112 19.3437L61.584 18.7812L59.3824 17.6562L57.1807 15.6874L54.9791 14.2812Z" fill="#FFCC66"/>
<path d="M76.7199 19.3436L78.6463 22.4374L79.4719 24.6874L79.7471 27.4999L78.9215 30.3124L76.9951 31.7186L75.3439 30.5936L74.5183 27.4999L74.7935 24.6874L75.8943 21.8749L76.7199 19.3436Z" fill="#FFCC66"/>
<path d="M67.3631 29.1873L70.3903 28.0623L72.3167 27.781L74.2431 28.0623L76.1695 29.4685L76.7199 31.4373L75.3439 32.5623H72.8671L70.9407 31.7185L69.2895 30.3123L67.3631 29.1873Z" fill="#FFCC66"/>
<path d="M67.0879 14L70.1151 16.5312L71.7663 18.2188L72.8671 20.75L73.1423 23.8438L71.4911 25.5313L69.8399 25.25L67.9135 22.4375L67.3631 19.9063V16.8125L67.0879 14Z" fill="#FFCC66"/>
<path d="M62.4095 21.5936L65.1615 21.3124H67.0879L69.2896 21.8749L70.9408 23.5624V25.8124L69.5648 26.6561L67.0879 26.0936L65.4367 24.9686L63.7855 23.2811L62.4095 21.5936Z" fill="#FFCC66"/>
<path d="M71.2159 34.25L73.1423 37.0625L74.5183 38.75L76.4447 39.875L79.1967 40.1562L80.8479 38.4687L80.5727 36.7812L78.3711 35.0937L76.1695 34.25H73.6927H71.2159Z" fill="#FFCC66"/>
<path d="M84.4255 28.0625L81.1231 30.5938L79.1967 32.2813L77.8207 35.0938V38.1875L79.7471 40.4375L82.2239 39.875L84.1503 37.0625L84.7007 34.25L84.4255 30.875V28.0625Z" fill="#FFCC66"/>
<path d="M86.9024 39.5936L86.352 43.5311L85.8016 46.0624L84.4256 48.3124L81.6735 49.9999L79.1967 49.1561L78.6463 47.1874L80.0223 44.0936L81.9487 42.4061L84.7008 40.9999L86.9024 39.5936Z" fill="#FFCC66"/>
<path d="M74.2431 42.1249L77.2703 43.5312L79.1967 44.6562L80.5727 46.3437L81.3983 48.8749L80.0223 51.1249H78.3711L76.1695 49.1562L75.0687 47.1874L74.7935 44.3749L74.2431 42.1249Z" fill="#FFCC66"/>
<path d="M74.5182 49.4374L73.9678 53.0936L73.6926 55.6249L74.5182 57.8749L76.1694 60.1249L78.6463 60.4061L80.0223 58.7186L79.4719 55.6249L78.0959 53.3749L76.1694 51.4061L74.5182 49.4374Z" fill="#FFCC66"/>
<path d="M87.728 51.4062H84.4256L82.2239 51.9688L80.0223 53.0938L78.6463 55.3437L79.1967 57.5938L81.1231 58.4375L83.6 57.3125L85.2512 55.625L86.6272 53.375L87.728 51.4062Z" fill="#FFCC66"/>
<path d="M85.8016 62.0936L83.0495 64.9061L81.3983 66.5936L78.6463 67.7186L75.8943 67.4373L73.9679 65.4686L74.7935 63.4998L77.5455 62.0936L80.0223 61.5311L83.0495 62.0936H85.8016Z" fill="#FFCC66"/>
<path d="M70.6655 57.0312L73.1423 59.5625L74.5183 60.9687L75.3439 63.2187V66.0312L73.4175 67.7187L71.7663 67.1562L70.3903 64.625L70.1151 62.0937L70.3903 59.5625L70.6655 57.0312Z" fill="#FFCC66"/>
<path d="M67.0879 60.6874L65.7119 64.0624L64.8863 66.3124L64.6111 69.1249L65.7119 71.9374L67.9135 73.0624L69.2895 71.9374L69.8399 68.8437L69.2895 66.0312L68.1887 63.2187L67.0879 60.6874Z" fill="#FFCC66"/>
<path d="M79.1967 71.3749L75.8942 69.6874L73.6926 69.1249H71.2158L68.739 70.5312L68.1886 73.0624L69.5646 74.7499L72.5918 75.0312L74.7934 74.1874L76.9951 72.7812L79.1967 71.3749Z" fill="#FFCC66"/>
<path d="M71.2159 78.4061L68.1887 79.5311L66.2623 80.0936L64.0607 79.8124L61.8591 78.4061L61.3087 76.1561L62.4095 74.7499H65.1615L67.3631 75.5936L69.2895 76.9999L71.2159 78.4061Z" fill="#FFCC66"/>
<path d="M62.6847 67.4375L63.5104 70.25L64.0608 72.2188L63.5104 74.4688L62.4095 76.4375L60.2079 76.7188L59.1071 75.5938V73.0625L59.9327 71.0938L61.5839 69.125L62.6847 67.4375Z" fill="#FFCC66"/>
<path d="M64.0607 75.875L58.8319 77L51.9518 79.5312L47.2734 81.5L40.6685 84.875L41.7694 86.8437L47.5486 83.75L54.1534 80.6562L59.9327 78.4062L64.0607 75.875Z" fill="#FFCC66"/>
<path opacity="0.25" d="M87.7281 48.5937H87.4529L88.2785 47.4687L88.5537 46.6249L89.1041 44.0937V43.8124L89.6545 39.8749L86.6273 37.9062V37.6249L87.4529 34.8124V33.9687L87.1777 30.8749V28.0624L82.7745 25.8124L82.4993 26.0937L82.2241 24.4062V23.5624L81.1233 21.3124V21.0312L79.1969 17.9374L74.7936 18.2187L74.2432 16.8124L73.6928 16.2499L72.0416 14.5624L71.7664 14.2812L69.0144 11.7499L66.5376 13.1562L64.8864 11.7499L64.0608 11.4687L61.3088 10.6249H60.4832L58.2815 10.9062H58.0063L54.7039 11.4687L53.3279 16.5312L55.5295 17.9374L57.4559 19.9062L58.0063 20.1874L60.4832 21.3124L61.0336 21.5937L60.208 23.5624L61.8592 25.2499L63.2352 26.9374L63.7856 27.4999L65.712 28.6249L66.2624 28.9062L65.9872 31.4374L67.6384 32.5624L69.2896 33.9687L69.84 34.2499L69.0144 35.6562L70.9408 38.4687V38.7499L72.3168 40.4374L73.1424 40.9999V41.2812L71.4912 42.6874L72.0416 44.9374L72.592 47.4687V48.3124L72.8672 48.5937L71.7664 49.1562L71.216 52.5312V53.0937L70.9408 55.3437V55.6249L67.9136 56.7499L67.6384 59.2812V59.5624H64.6112L63.2352 62.9374L62.96 63.2187L62.1344 65.4687V66.0312L60.4832 65.7499L59.1071 67.4374L57.7311 69.1249L57.4559 69.9687L56.6303 71.9374L56.3551 73.0624V74.7499L50.8511 76.9999L48.9247 77.8437L46.9983 76.9999L41.4942 74.7499V73.0624L41.219 71.9374L40.3934 69.9687L40.1182 69.1249L38.467 67.4374L37.3662 65.7499L35.715 66.0312V65.4687L34.8894 63.2187L34.6142 62.9374L33.2382 59.5624H30.211V59.2812L29.9358 56.7499L26.9086 55.6249V55.3437L26.6334 53.0937V52.5312L26.0829 49.1562L24.9821 48.5937L25.2573 48.3124V47.4687L25.8077 44.9374L26.3582 42.6874L24.7069 41.2812V40.9999L25.5325 40.4374L26.9086 38.7499V38.4687L28.835 35.6562L28.0094 34.2499L28.5598 33.9687L30.211 32.5624L31.8622 31.4374L31.587 28.9062L32.1374 28.6249L34.0638 27.4999L34.6142 26.9374L35.9902 25.2499L37.6414 23.5624L36.8158 21.5937L37.3662 21.3124L39.843 20.1874L40.3934 19.9062L42.595 17.9374L44.5215 16.5312L43.1455 11.4687L39.843 10.9062H39.5678L37.3662 10.6249H36.5406L33.7886 11.4687L32.963 11.7499L31.3118 13.1562L28.835 11.7499L26.0829 14.2812L25.8077 14.5624L24.1565 16.2499L23.6061 16.8124L23.0557 18.2187L18.6525 17.9374L16.7261 21.0312V21.3124L15.6253 23.5624V24.4062L15.3501 26.0937L15.0749 25.8124L10.6717 28.0624V30.8749L10.3965 33.9687V34.8124L11.2221 37.6249V37.9062L8.19484 39.8749L8.74525 43.8124V44.0937L9.29565 46.6249L9.57085 47.4687L10.3965 48.5937H10.1213L7.64444 52.8124L9.02045 54.7812L10.1213 57.0312L10.6717 57.8749L12.3229 59.2812H12.0477L10.1213 64.0624L12.5981 66.8749L12.8733 67.1562L14.7997 68.8437L15.6253 69.1249L17.2765 69.9687V73.6249L19.2029 75.0312L21.4045 76.4374L22.2301 76.9999L24.4317 77.5624L25.2573 77.8437L25.5325 80.9374L28.5598 82.0624L28.835 82.3437L31.0366 82.6249L31.8622 82.9062L34.0638 82.6249L35.4398 82.0624L37.091 81.2187L39.5678 82.0624L39.2926 82.3437L38.1918 86.2812L39.5678 88.2499L43.1455 89.3749L48.9247 86.2812L54.7039 89.3749L58.2815 88.2499L59.6575 86.2812L58.5567 82.3437L58.2815 82.0624L60.7584 81.2187L62.4096 82.0624L63.7856 82.6249L65.9872 82.9062L66.8128 82.6249L69.0144 82.3437L69.2896 82.0624L72.3168 80.9374L72.592 77.8437L73.4176 77.5624L75.6192 76.9999L76.4448 76.4374L78.6465 75.0312L80.5729 73.6249V69.9687L82.2241 69.1249L83.0497 68.8437L84.9761 67.1562L85.2513 66.8749L87.7281 64.0624L85.8017 59.2812H85.5265L87.1777 57.8749L87.7281 57.0312L89.1041 54.7812L90.2049 52.8124L87.7281 48.5937Z" fill="#808080"/>
<path d="M65.9871 35.9374H59.9327H58.5567L43.4206 64.0624H54.4287H59.9327H65.9871L80.5728 49.9999L65.9871 35.9374Z" fill="#FFCC66"/>
<path d="M21.4045 35.9374V47.1874V52.8124V64.0624H35.9902L51.1263 35.9374H21.4045Z" fill="#FFCC66"/>
<path d="M67.088 33.1249H60.208H59.9328H54.4287H52.7775H18.6525V47.1874V52.8124V66.8749H34.339H41.7695H54.4287H59.9328H67.088L84.7009 49.9999L67.088 33.1249ZM59.9328 64.0624H54.4287H43.4207L58.832 35.9374H59.9328H65.9872L80.8481 49.9999L65.9872 64.0624H59.9328ZM21.4045 52.8124V47.1874V35.9374H51.1263L35.715 64.0624H21.4045V52.8124Z" fill="#916424"/>
</svg>
