<svg width="97" height="100" viewBox="0 0 97 100" fill="none" xmlns="http://www.w3.org/2000/svg">
<path d="M86.7641 48.5938H86.4919L87.3084 47.4688L87.5806 46.6251L88.125 44.0938V43.8126L88.6693 39.8751L85.6754 37.9063V37.6251L86.4919 34.8126V33.9688L86.2197 30.8751V28.0626L81.8649 25.8126L81.5927 26.0938L81.3205 24.4063V23.5626L80.2318 21.3126V21.0313L78.3266 17.9376L73.9718 18.2188L73.4274 16.8126L72.883 16.2501L71.25 14.5626L70.9778 14.2813L68.256 11.7501L65.8064 13.1563L64.1734 11.7501L63.3568 11.4688L60.6351 10.6251H59.8185L57.6411 10.9063H57.3689L54.1028 11.4688L52.7419 16.5313L54.9193 17.9376L56.8246 19.9063L57.3689 20.1876L59.8185 21.3126L60.3629 21.5938L59.5464 23.5626L61.1794 25.2501L62.5403 26.9376L63.0847 27.5001L64.9899 28.6251L65.5343 28.9063L65.2621 31.4376L66.8951 32.5626L68.5282 33.9688L69.0726 34.2501L68.256 35.6563L70.1613 38.4688V38.7501L71.5222 40.4376L72.3387 41.0001V41.2813L70.7056 42.6876L71.25 44.9376L71.7943 47.4688V48.3126L72.0665 48.5938L70.9778 49.1563L70.4335 52.5313V53.0938L70.1613 55.3438V55.6251L67.1673 56.7501L66.8951 59.2813V59.5626H63.9012L62.5403 62.9376L62.2681 63.2188L61.4516 65.4688V66.0313L59.8185 65.7501L58.4576 67.4376L57.0968 69.4063L56.8246 69.9688L56.008 71.9376L55.7359 73.0626V74.7501L50.2923 77.0001L48.3871 77.8438L46.4818 77.0001L41.0383 74.7501V73.0626L40.7661 71.9376L39.9496 69.9688L39.6774 69.4063L38.0443 67.4376L36.9556 65.7501L35.3226 66.0313V65.4688L34.506 63.2188L34.2339 62.9376L32.873 59.5626H29.879V59.2813L29.6068 56.7501L26.6129 55.6251V55.3438L26.3407 53.0938V52.5313L25.7964 49.1563L24.7076 48.5938L24.9798 48.3126V47.4688L25.5242 44.9376L26.0685 42.6876L24.4355 41.2813V41.0001L25.252 40.4376L26.6129 38.7501V38.4688L28.5181 35.6563L27.7016 34.2501L28.2459 33.9688L29.879 32.5626L31.5121 31.4376L31.2399 28.9063L31.7843 28.6251L33.6895 27.5001L34.2339 26.9376L35.5947 25.2501L37.2278 23.5626L36.4113 21.5938L36.9556 21.3126L39.4052 20.1876L39.9496 19.9063L42.127 17.9376L44.0322 16.5313L42.6714 11.4688L39.4052 10.9063H39.133L36.9556 10.6251H36.1391L33.4173 11.4688L32.6008 11.7501L30.9677 13.1563L28.5181 11.7501L25.7964 14.2813L25.5242 14.5626L23.8911 16.2501L23.3468 16.8126L22.8024 18.2188L18.4476 17.9376L16.5423 21.0313V21.3126L15.4536 23.5626V24.4063L15.1814 26.0938L14.9093 25.8126L10.5544 28.0626V30.8751L10.2822 33.9688V34.8126L11.0988 37.6251V37.9063L8.10482 39.8751L8.64917 43.8126V44.0938L9.19353 46.6251L9.46571 47.4688L10.2822 48.5938H10.0101L7.56046 52.8126L8.92135 54.7813L10.0101 57.0313L10.5544 57.8751L12.1875 59.2813H11.9153L10.0101 64.0626L12.4597 66.8751L12.7318 67.1563L14.6371 68.8438L15.4536 69.1251L17.0867 69.9688V73.6251L18.9919 75.0313L21.1693 76.4376L21.9859 77.0001L24.1633 77.5626L24.9798 77.8438L25.252 80.9376L28.2459 82.0626L28.5181 82.3438L30.6955 82.6251L31.5121 82.9063L33.6895 82.6251L35.0504 82.0626L36.6834 81.2188L39.133 82.0626L38.8609 82.3438L37.7722 86.2813L39.133 88.2501L42.6714 89.3751L48.3871 86.2813L54.1028 89.3751L57.6411 88.2501L59.002 86.2813L57.9133 82.3438L57.6411 82.0626L60.0907 81.2188L61.7238 82.0626L63.0847 82.6251L65.2621 82.9063L66.0786 82.6251L68.256 82.3438L68.5282 82.0626L71.5222 80.9376L71.7943 77.8438L72.6109 77.5626L74.7883 77.0001L75.6048 76.4376L77.7822 75.0313L79.6875 73.6251V69.9688L81.3205 69.1251L82.1371 68.8438L84.0423 67.1563L84.3145 66.8751L86.7641 64.0626L84.8589 59.2813H84.5867L86.2197 57.8751L86.7641 57.0313L88.125 54.7813L89.2137 52.8126L86.7641 48.5938Z" fill="#916424"/>
<path d="M42.3991 14.2813L38.8608 13.7188L36.6834 13.4376L34.2338 14.0001L31.7842 15.6876L31.512 18.2188L32.8729 19.3438L35.8669 18.7813L38.0443 17.6563L40.2217 15.6876L42.3991 14.2813Z" fill="#FFCC66"/>
<path d="M20.8971 19.3437L18.9919 22.4374L18.1753 24.6874L17.9032 27.4999L18.7197 30.3124L20.6249 31.7187L22.258 30.5937L23.0745 27.4999L22.8023 24.6874L21.7136 21.8749L20.8971 19.3437Z" fill="#FFCC66"/>
<path d="M30.1512 29.1874L27.1572 28.0624L25.252 27.7812L23.3467 28.0624L21.4415 29.4687L20.8971 31.4374L22.258 32.5624H24.7076L26.6129 31.7187L28.2459 30.3124L30.1512 29.1874Z" fill="#FFCC66"/>
<path d="M30.4233 14.0001L27.4294 16.5314L25.7963 18.2189L24.7076 20.7501L24.4354 23.8439L26.0685 25.5314L27.7015 25.2501L29.6068 22.4376L30.1511 19.9064V16.8126L30.4233 14.0001Z" fill="#FFCC66"/>
<path d="M35.0504 21.5937L32.3286 21.3125H30.4234L28.246 21.875L26.6129 23.5625V25.8125L27.9738 26.6562L30.4234 26.0937L32.0564 24.9687L33.6895 23.2812L35.0504 21.5937Z" fill="#FFCC66"/>
<path d="M26.3406 34.2502L24.4354 37.0627L23.0745 38.7502L21.1692 39.8752L18.4475 40.1565L16.8144 38.469L17.0866 36.7815L19.264 35.094L21.4414 34.2502H23.891H26.3406Z" fill="#FFCC66"/>
<path d="M13.2762 28.0626L16.5423 30.5939L18.4476 32.2814L19.8085 35.0939V38.1876L17.9032 40.4376L15.4536 39.8751L13.5484 37.0626L13.004 34.2501L13.2762 30.8751V28.0626Z" fill="#FFCC66"/>
<path d="M10.8265 39.5938L11.3709 43.5313L11.9152 46.0626L13.2761 48.3126L15.9979 50.0001L18.4475 49.1563L18.9919 47.1876L17.631 44.0938L15.7257 42.4063L13.0039 41.0001L10.8265 39.5938Z" fill="#FFCC66"/>
<path d="M23.3468 42.1251L20.3528 43.5313L18.4476 44.6563L17.0867 46.3438L16.2701 48.8751L17.631 51.1251H19.2641L21.4415 49.1563L22.5302 47.1876L22.8024 44.3751L23.3468 42.1251Z" fill="#FFCC66"/>
<path d="M23.0746 49.4375L23.6189 53.0937L23.8911 55.625L23.0746 57.875L21.4415 60.125L18.7197 60.4062L17.631 58.7187L18.1754 55.625L19.5363 53.375L21.4415 51.4062L23.0746 49.4375Z" fill="#FFCC66"/>
<path d="M10.01 51.4063H13.2762L15.4536 51.9688L17.631 53.0938L18.9919 55.3438L18.4475 57.5938L16.5423 58.4376L14.0927 57.3126L12.4596 55.6251L11.0987 53.3751L10.01 51.4063Z" fill="#FFCC66"/>
<path d="M11.9153 62.0937L14.637 64.9062L16.2701 66.5937L18.7197 67.7187L21.7137 67.4374L23.6189 65.4687L22.8024 63.4999L20.0806 62.0937L17.631 61.5312L14.637 62.0937H11.9153Z" fill="#FFCC66"/>
<path d="M26.885 57.0313L24.4354 59.5626L23.0746 60.9688L22.258 63.2188V66.0313L24.1633 67.7188L25.7963 67.1563L27.1572 64.6251L27.4294 62.0938L27.1572 59.5626L26.885 57.0313Z" fill="#FFCC66"/>
<path d="M30.4233 60.6876L31.7842 64.0626L32.6007 66.3126L32.8729 69.1251L31.7842 71.9376L29.6068 73.0626L28.2459 71.9376L27.7015 68.8438L28.2459 66.0313L29.3346 63.2188L30.4233 60.6876Z" fill="#FFCC66"/>
<path d="M18.4475 71.3751L21.7137 69.6876L23.8911 69.1251H26.3407L28.7903 70.5313L29.3346 73.0626L27.9737 74.7501L24.9798 75.0313L22.8024 74.1876L20.6249 72.7813L18.4475 71.3751Z" fill="#FFCC66"/>
<path d="M26.3407 78.4062L29.3346 79.5312L31.2398 80.0937L33.4173 79.8125L35.5947 78.4062L36.139 76.1562L35.0503 74.75H32.3286L30.1511 75.5937L28.2459 77L26.3407 78.4062Z" fill="#FFCC66"/>
<path d="M34.7782 67.4376L33.9616 70.2501L33.4173 72.2188L33.9616 74.4688L35.0503 76.4376L37.2278 76.7188L38.3165 75.5938V73.0626L37.4999 71.0938L35.8669 69.1251L34.7782 67.4376Z" fill="#FFCC66"/>
<path d="M33.4173 75.8751L38.5886 77.0001L45.3931 79.5313L50.0201 81.5001L56.5524 84.875L55.4636 86.8438L49.7479 83.7501L43.2157 80.6563L37.4999 78.4063L33.4173 75.8751Z" fill="#FFCC66"/>
<path d="M54.3749 14.2813L57.9132 13.7188L60.0906 13.4376L62.5402 14.0001L64.9898 15.6876L65.262 18.2188L63.9011 19.3438L60.9072 18.7813L58.7297 17.6563L56.5523 15.6876L54.3749 14.2813Z" fill="#FFCC66"/>
<path d="M75.8769 19.3437L77.7822 22.4374L78.5987 24.6874L78.8709 27.4999L78.0544 30.3124L76.1491 31.7187L74.5161 30.5937L73.6995 27.4999L73.9717 24.6874L75.0604 21.8749L75.8769 19.3437Z" fill="#FFCC66"/>
<path d="M66.6229 29.1874L69.6169 28.0624L71.5221 27.7812L73.4273 28.0624L75.3326 29.4687L75.8769 31.4374L74.5161 32.5624H72.0665L70.1612 31.7187L68.5281 30.3124L66.6229 29.1874Z" fill="#FFCC66"/>
<path d="M66.3508 14.0001L69.3447 16.5314L70.9778 18.2189L72.0665 20.7501L72.3387 23.8439L70.7056 25.5314L69.0725 25.2501L67.1673 22.4376L66.6229 19.9064V16.8126L66.3508 14.0001Z" fill="#FFCC66"/>
<path d="M61.7238 21.5937L64.4455 21.3125H66.3508L68.5282 21.875L70.1613 23.5625V25.8125L68.8004 26.6562L66.3508 26.0937L64.7177 24.9687L63.0847 23.2812L61.7238 21.5937Z" fill="#FFCC66"/>
<path d="M70.4334 34.2502L72.3386 37.0627L73.6995 38.7502L75.6048 39.8752L78.3265 40.1565L79.9596 38.469L79.6874 36.7815L77.51 35.094L75.3326 34.2502H72.883H70.4334Z" fill="#FFCC66"/>
<path d="M83.4979 28.0626L80.2318 30.5939L78.3265 32.2814L76.9657 35.0939V38.1876L78.8709 40.4376L81.3205 39.8751L83.2257 37.0626L83.7701 34.2501L83.4979 30.8751V28.0626Z" fill="#FFCC66"/>
<path d="M85.9475 39.5938L85.4031 43.5313L84.8588 46.0626L83.4979 48.3126L80.7761 50.0001L78.3265 49.1563L77.7822 47.1876L79.143 44.0938L81.0483 42.4063L83.7701 41.0001L85.9475 39.5938Z" fill="#FFCC66"/>
<path d="M73.4274 42.1251L76.4214 43.5313L78.3266 44.6563L79.6875 46.3438L80.504 48.8751L79.1431 51.1251H77.5101L75.3326 49.1563L74.2439 47.1876L73.9718 44.3751L73.4274 42.1251Z" fill="#FFCC66"/>
<path d="M73.6996 49.4375L73.1552 53.0937L72.883 55.625L73.6996 57.875L75.3326 60.125L77.7822 60.4062L79.1431 58.7187L78.5988 55.625L77.2379 53.375L75.3326 51.4062L73.6996 49.4375Z" fill="#FFCC66"/>
<path d="M86.764 51.4063H83.4979L81.3205 51.9688L79.143 53.0938L77.7822 55.3438L78.3265 57.5938L80.2317 58.4376L82.6813 57.3126L84.3144 55.6251L85.6753 53.3751L86.764 51.4063Z" fill="#FFCC66"/>
<path d="M84.8588 62.0937L82.137 64.9062L80.5039 66.5937L77.7822 67.7187L75.0604 67.4374L73.1552 65.4687L73.9717 63.4999L76.6935 62.0937L79.1431 61.5312L82.137 62.0937H84.8588Z" fill="#FFCC66"/>
<path d="M69.889 57.0313L72.3386 59.5626L73.6995 60.9688L74.516 63.2188V66.0313L72.6108 67.7188L70.9777 67.1563L69.6168 64.6251L69.3447 62.0938L69.6168 59.5626L69.889 57.0313Z" fill="#FFCC66"/>
<path d="M66.3508 60.6876L64.9899 64.0626L64.1733 66.3126L63.9012 69.1251L64.9899 71.9376L67.1673 73.0626L68.5282 71.9376L69.0725 68.8438L68.5282 66.0313L67.4395 63.2188L66.3508 60.6876Z" fill="#FFCC66"/>
<path d="M78.3265 71.3751L75.0604 69.6876L72.883 69.1251H70.4334L67.9838 70.5313L67.4394 73.0626L68.8003 74.7501L71.7942 75.0313L73.9717 74.1876L76.1491 72.7813L78.3265 71.3751Z" fill="#FFCC66"/>
<path d="M70.4334 78.4062L67.4395 79.5312L65.5342 80.0937L63.3568 79.8125L61.1794 78.4062L60.635 76.1562L61.7237 74.75H64.4455L66.6229 75.5937L68.5282 77L70.4334 78.4062Z" fill="#FFCC66"/>
<path d="M61.9959 67.4376L62.8125 70.2501L63.3568 72.2188L62.8125 74.4688L61.7238 76.4376L59.5464 76.7188L58.4576 75.5938V73.0626L59.2742 71.0938L60.9072 69.1251L61.9959 67.4376Z" fill="#FFCC66"/>
<path d="M63.3567 75.8751L58.1854 77.0001L51.3809 79.5313L46.7539 81.5001L40.2217 84.875L41.3104 86.8438L47.0261 83.7501L53.5584 80.6563L59.2741 78.4063L63.3567 75.8751Z" fill="#FFCC66"/>
<path opacity="0.25" d="M86.7641 48.5938H86.4919L87.3084 47.4688L87.5806 46.6251L88.125 44.0938V43.8126L88.6693 39.8751L85.6754 37.9063V37.6251L86.4919 34.8126V33.9688L86.2197 30.8751V28.0626L81.8649 25.8126L81.5927 26.0938L81.3205 24.4063V23.5626L80.2318 21.3126V21.0313L78.3266 17.9376L73.9718 18.2188L73.4274 16.8126L72.883 16.2501L71.25 14.5626L70.9778 14.2813L68.256 11.7501L65.8064 13.1563L64.1734 11.7501L63.3568 11.4688L60.6351 10.6251H59.8185L57.6411 10.9063H57.3689L54.1028 11.4688L52.7419 16.5313L54.9193 17.9376L56.8246 19.9063L57.3689 20.1876L59.8185 21.3126L60.3629 21.5938L59.5464 23.5626L61.1794 25.2501L62.5403 26.9376L63.0847 27.5001L64.9899 28.6251L65.5343 28.9063L65.2621 31.4376L66.8951 32.5626L68.5282 33.9688L69.0726 34.2501L68.256 35.6563L70.1613 38.4688V38.7501L71.5222 40.4376L72.3387 41.0001V41.2813L70.7056 42.6876L71.25 44.9376L71.7943 47.4688V48.3126L72.0665 48.5938L70.9778 49.1563L70.4335 52.5313V53.0938L70.1613 55.3438V55.6251L67.1673 56.7501L66.8951 59.2813V59.5626H63.9012L62.5403 62.9376L62.2681 63.2188L61.4516 65.4688V66.0313L59.8185 65.7501L58.4576 67.4376L57.0968 69.1251L56.8246 69.9688L56.008 71.9376L55.7359 73.0626V74.7501L50.2923 77.0001L48.3871 77.8438L46.4818 77.0001L41.0383 74.7501V73.0626L40.7661 71.9376L39.9496 69.9688L39.6774 69.1251L38.0443 67.4376L36.9556 65.7501L35.3226 66.0313V65.4688L34.506 63.2188L34.2339 62.9376L32.873 59.5626H29.879V59.2813L29.6068 56.7501L26.6129 55.6251V55.3438L26.3407 53.0938V52.5313L25.7964 49.1563L24.7076 48.5938L24.9798 48.3126V47.4688L25.5242 44.9376L26.0685 42.6876L24.4355 41.2813V41.0001L25.252 40.4376L26.6129 38.7501V38.4688L28.5181 35.6563L27.7016 34.2501L28.2459 33.9688L29.879 32.5626L31.5121 31.4376L31.2399 28.9063L31.7843 28.6251L33.6895 27.5001L34.2339 26.9376L35.5947 25.2501L37.2278 23.5626L36.4113 21.5938L36.9556 21.3126L39.4052 20.1876L39.9496 19.9063L42.127 17.9376L44.0322 16.5313L42.6714 11.4688L39.4052 10.9063H39.133L36.9556 10.6251H36.1391L33.4173 11.4688L32.6008 11.7501L30.9677 13.1563L28.5181 11.7501L25.7964 14.2813L25.5242 14.5626L23.8911 16.2501L23.3468 16.8126L22.8024 18.2188L18.4476 17.9376L16.5423 21.0313V21.3126L15.4536 23.5626V24.4063L15.1814 26.0938L14.9093 25.8126L10.5544 28.0626V30.8751L10.2822 33.9688V34.8126L11.0988 37.6251V37.9063L8.10482 39.8751L8.64917 43.8126V44.0938L9.19353 46.6251L9.46571 47.4688L10.2822 48.5938H10.0101L7.56046 52.8126L8.92135 54.7813L10.0101 57.0313L10.5544 57.8751L12.1875 59.2813H11.9153L10.0101 64.0626L12.4597 66.8751L12.7318 67.1563L14.6371 68.8438L15.4536 69.1251L17.0867 69.9688V73.6251L18.9919 75.0313L21.1693 76.4376L21.9859 77.0001L24.1633 77.5626L24.9798 77.8438L25.252 80.9376L28.2459 82.0626L28.5181 82.3438L30.6955 82.6251L31.5121 82.9063L33.6895 82.6251L35.0504 82.0626L36.6834 81.2188L39.133 82.0626L38.8609 82.3438L37.7722 86.2813L39.133 88.2501L42.6714 89.3751L48.3871 86.2813L54.1028 89.3751L57.6411 88.2501L59.002 86.2813L57.9133 82.3438L57.6411 82.0626L60.0907 81.2188L61.7238 82.0626L63.0847 82.6251L65.2621 82.9063L66.0786 82.6251L68.256 82.3438L68.5282 82.0626L71.5222 80.9376L71.7943 77.8438L72.6109 77.5626L74.7883 77.0001L75.6048 76.4376L77.7822 75.0313L79.6875 73.6251V69.9688L81.3205 69.1251L82.1371 68.8438L84.0423 67.1563L84.3145 66.8751L86.7641 64.0626L84.8589 59.2813H84.5867L86.2197 57.8751L86.7641 57.0313L88.125 54.7813L89.2137 52.8126L86.7641 48.5938Z" fill="#808080"/>
<path d="M83.498 49.9999L75.6048 52.8124L21.1693 63.2186V36.7811L75.6048 47.1874L83.498 49.9999Z" fill="#FFCC66"/>
<path d="M18.4476 33.1249V66.8749L75.6048 55.6249L81.0484 54.4999L82.4093 52.8124L83.7702 49.9999L82.6815 47.1874L81.0484 45.4999L75.6048 44.0937L18.4476 33.1249ZM21.1694 36.7812L75.6048 47.1874L83.498 49.9999L75.6048 52.8124L21.1694 63.2187V36.7812Z" fill="#916424"/>
</svg>
